{
DisplayStrings = (
4,
5,
6,
7,
8,
9,
"\U00BD",
"\U00BD\U00BC",
"\U00BC",
"\U00BE",
N,
"\U00D1",
w,
Q
);
copyright = "Copyright (c) 2014 by Steven Ng with Reserved Font Name \"Aitu\". Licensed under the SIL Open Font License, Version 1.1. ";
customParameters = (
{
name = vendorID;
value = tyPL;
}
);
date = "2014-08-18 18:15:38 +0000";
designer = "Steven Ng";
designerURL = "http://www.assignittous.com";
familyName = "Aitu";
featurePrefixes = (
{
automatic = 1;
code = "languagesystem DFLT dflt;\012languagesystem latn dflt;\012languagesystem math dflt;\012";
name = Languagesystems;
}
);
features = (
{
automatic = 1;
code = "feature frac;\012";
name = aalt;
},
{
automatic = 1;
code = "sub one slash four by onequarter;\012sub one slash two by onehalf;\012sub three slash four by threequarters;\012";
name = frac;
},
{
automatic = 1;
code = "sub f f i by f_f_i;\012sub f f l by f_f_l;\012sub f i by fi;\012sub f l by fl;\012";
name = liga;
}
);
fontMaster = (
{
alignmentZones = (
"{1455, 59}",
"{1036, 17}",
"{0, -19}",
"{-329, -12}"
);
ascender = 1610;
capHeight = 1457;
customParameters = (
{
name = typoAscender;
value = 1610;
},
{
name = typoDescender;
value = "-390";
},
{
name = typoLineGap;
value = 400;
},
{
name = underlinePosition;
value = "-6";
}
);
descender = "-390";
id = "421C8255-749A-4570-9FED-EBF43319311F";
italicAngle = 7;
weight = Bold;
weightValue = 900;
widthValue = 5;
xHeight = 1037;
}
);
glyphs = (
{
glyphname = A;
layers = (
{
layerId = "421C8255-749A-4570-9FED-EBF43319311F";
name = "Bold Italic";
paths = (
{
closed = 1;
nodes = (
"1275 0 LINE",
"937 1457 LINE",
"603 1457 LINE",
"-93 0 LINE",
"163 0 LINE SMOOTH",
"189 0 OFFCURVE",
"212.167 7.33333 OFFCURVE",
"232.5 22 CURVE SMOOTH",
"252.833 36.6667 OFFCURVE",
"267.667 53 OFFCURVE",
"277 71 CURVE",
"385 333 LINE",
"880 333 LINE",
"925 71 LINE",
"931 49.6667 OFFCURVE",
"941.833 32.5 OFFCURVE",
"957.5 19.5 CURVE SMOOTH",
"973.167 6.5 OFFCURVE",
"995 0 OFFCURVE",
"1023 0 CURVE SMOOTH"
);
},
{
closed = 1;
nodes = (
"476 555 LINE",
"647 969 LINE SMOOTH",
"658.333 995.667 OFFCURVE",
"671.833 1026.83 OFFCURVE",
"687.5 1062.5 CURVE SMOOTH",
"703.167 1098.17 OFFCURVE",
"719 1136.67 OFFCURVE",
"735 1178 CURVE",
"741 1136.67 OFFCURVE",
"747.167 1098.33 OFFCURVE",
"753.5 1063 CURVE SMOOTH",
"759.833 1027.67 OFFCURVE",
"765.667 997 OFFCURVE",
"771 971 CURVE SMOOTH",
"842 555 LINE"
);
}
);
width = 1334;
}
);
leftKerningGroup = A;
rightKerningGroup = A;
unicode = 0041;
},
{
glyphname = Aacute;
layers = (
{
layerId = "421C8255-749A-4570-9FED-EBF43319311F";
name = "Bold Italic";
paths = (
{
closed = 1;
nodes = (
"0 0 LINE"
);
},
{
closed = 1;
nodes = (
"1275 0 LINE",
"937 1457 LINE",
"603 1457 LINE",
"-93 0 LINE",
"163 0 LINE SMOOTH",
"189 0 OFFCURVE",
"212.167 7.33333 OFFCURVE",
"232.5 22 CURVE SMOOTH",
"252.833 36.6667 OFFCURVE",
"267.667 53 OFFCURVE",
"277 71 CURVE",
"385 333 LINE",
"880 333 LINE",
"925 71 LINE",
"931 49.6667 OFFCURVE",
"941.833 32.5 OFFCURVE",
"957.5 19.5 CURVE SMOOTH",
"973.167 6.5 OFFCURVE",
"995 0 OFFCURVE",
"1023 0 CURVE SMOOTH"
);
},
{
closed = 1;
nodes = (
"476 555 LINE",
"647 969 LINE SMOOTH",
"658.333 995.667 OFFCURVE",
"671.833 1026.83 OFFCURVE",
"687.5 1062.5 CURVE SMOOTH",
"703.167 1098.17 OFFCURVE",
"719 1136.67 OFFCURVE",
"735 1178 CURVE",
"741 1136.67 OFFCURVE",
"747.167 1098.33 OFFCURVE",
"753.5 1063 CURVE SMOOTH",
"759.833 1027.67 OFFCURVE",
"765.667 997 OFFCURVE",
"771 971 CURVE SMOOTH",
"842 555 LINE"
);
},
{
closed = 1;
nodes = (
"1256 1867 LINE",
"942 1867 LINE SMOOTH",
"928 1867 OFFCURVE",
"915.667 1866.67 OFFCURVE",
"905 1866 CURVE SMOOTH",
"894.333 1865.33 OFFCURVE",
"884.667 1863.5 OFFCURVE",
"876 1860.5 CURVE SMOOTH",
"867.333 1857.5 OFFCURVE",
"859 1852.83 OFFCURVE",
"851 1846.5 CURVE SMOOTH",
"843 1840.17 OFFCURVE",
"834.667 1831.67 OFFCURVE",
"826 1821 CURVE",
"622 1551 LINE",
"829 1551 LINE SMOOTH",
"839.667 1551 OFFCURVE",
"849.167 1551.33 OFFCURVE",
"857.5 1552 CURVE SMOOTH",
"865.833 1552.67 OFFCURVE",
"873.833 1554 OFFCURVE",
"881.5 1556 CURVE SMOOTH",
"889.167 1558 OFFCURVE",
"896.5 1561 OFFCURVE",
"903.5 1565 CURVE SMOOTH",
"910.5 1569 OFFCURVE",
"918.333 1574.67 OFFCURVE",
"927 1582 CURVE SMOOTH"
);
}
);
width = 1334;
}
);
leftKerningGroup = A;
rightKerningGroup = A;
unicode = 00C1;
},
{
glyphname = Acircumflex;
layers = (
{
layerId = "421C8255-749A-4570-9FED-EBF43319311F";
name = "Bold Italic";
paths = (
{
closed = 1;
nodes = (
"0 0 LINE"
);
},
{
closed = 1;
nodes = (
"1275 0 LINE",
"937 1457 LINE",
"603 1457 LINE",
"-93 0 LINE",
"163 0 LINE SMOOTH",
"189 0 OFFCURVE",
"212.167 7.33333 OFFCURVE",
"232.5 22 CURVE SMOOTH",
"252.833 36.6667 OFFCURVE",
"267.667 53 OFFCURVE",
"277 71 CURVE",
"385 333 LINE",
"880 333 LINE",
"925 71 LINE",
"931 49.6667 OFFCURVE",
"941.833 32.5 OFFCURVE",
"957.5 19.5 CURVE SMOOTH",
"973.167 6.5 OFFCURVE",
"995 0 OFFCURVE",
"1023 0 CURVE SMOOTH"
);
},
{
closed = 1;
nodes = (
"476 555 LINE",
"647 969 LINE SMOOTH",
"658.333 995.667 OFFCURVE",
"671.833 1026.83 OFFCURVE",
"687.5 1062.5 CURVE SMOOTH",
"703.167 1098.17 OFFCURVE",
"719 1136.67 OFFCURVE",
"735 1178 CURVE",
"741 1136.67 OFFCURVE",
"747.167 1098.33 OFFCURVE",
"753.5 1063 CURVE SMOOTH",
"759.833 1027.67 OFFCURVE",
"765.667 997 OFFCURVE",
"771 971 CURVE SMOOTH",
"842 555 LINE"
);
},
{
closed = 1;
nodes = (
"1145 1551 LINE",
"951 1829 LINE",
"692 1829 LINE",
"436 1551 LINE",
"633 1551 LINE SMOOTH",
"644.333 1551 OFFCURVE",
"658.167 1553.17 OFFCURVE",
"674.5 1557.5 CURVE SMOOTH",
"690.833 1561.83 OFFCURVE",
"709 1575 OFFCURVE",
"729 1597 CURVE",
"783 1675 LINE",
"802 1700 LINE",
"816 1675 LINE",
"854 1597 LINE",
"860.667 1585.67 OFFCURVE",
"867.833 1577 OFFCURVE",
"875.5 1571 CURVE SMOOTH",
"883.167 1565 OFFCURVE",
"890.833 1560.5 OFFCURVE",
"898.5 1557.5 CURVE SMOOTH",
"906.167 1554.5 OFFCURVE",
"913.333 1552.67 OFFCURVE",
"920 1552 CURVE SMOOTH",
"926.667 1551.33 OFFCURVE",
"933 1551 OFFCURVE",
"939 1551 CURVE SMOOTH"
);
}
);
width = 1334;
}
);
leftKerningGroup = A;
rightKerningGroup = A;
unicode = 00C2;
},
{
glyphname = Adieresis;
layers = (
{
layerId = "421C8255-749A-4570-9FED-EBF43319311F";
name = "Bold Italic";
paths = (
{
closed = 1;
nodes = (
"0 0 LINE"
);
},
{
closed = 1;
nodes = (
"1275 0 LINE",
"937 1457 LINE",
"603 1457 LINE",
"-93 0 LINE",
"163 0 LINE SMOOTH",
"189 0 OFFCURVE",
"212.167 7.33333 OFFCURVE",
"232.5 22 CURVE SMOOTH",
"252.833 36.6667 OFFCURVE",
"267.667 53 OFFCURVE",
"277 71 CURVE",
"385 333 LINE",
"880 333 LINE",
"925 71 LINE",
"931 49.6667 OFFCURVE",
"941.833 32.5 OFFCURVE",
"957.5 19.5 CURVE SMOOTH",
"973.167 6.5 OFFCURVE",
"995 0 OFFCURVE",
"1023 0 CURVE SMOOTH"
);
},
{
closed = 1;
nodes = (
"476 555 LINE",
"647 969 LINE SMOOTH",
"658.333 995.667 OFFCURVE",
"671.833 1026.83 OFFCURVE",
"687.5 1062.5 CURVE SMOOTH",
"703.167 1098.17 OFFCURVE",
"719 1136.67 OFFCURVE",
"735 1178 CURVE",
"741 1136.67 OFFCURVE",
"747.167 1098.33 OFFCURVE",
"753.5 1063 CURVE SMOOTH",
"759.833 1027.67 OFFCURVE",
"765.667 997 OFFCURVE",
"771 971 CURVE SMOOTH",
"842 555 LINE"
);
},
{
closed = 1;
nodes = (
"737 1688 OFFCURVE",
"732.667 1708.5 OFFCURVE",
"724 1727.5 CURVE SMOOTH",
"715.333 1746.5 OFFCURVE",
"703.5 1763.33 OFFCURVE",
"688.5 1778 CURVE SMOOTH",
"673.5 1792.67 OFFCURVE",
"656.167 1804.17 OFFCURVE",
"636.5 1812.5 CURVE SMOOTH",
"616.833 1820.83 OFFCURVE",
"595.667 1825 OFFCURVE",
"573 1825 CURVE SMOOTH",
"551.667 1825 OFFCURVE",
"531.5 1820.83 OFFCURVE",
"512.5 1812.5 CURVE SMOOTH",
"493.5 1804.17 OFFCURVE",
"476.833 1792.67 OFFCURVE",
"462.5 1778 CURVE SMOOTH",
"448.167 1763.33 OFFCURVE",
"436.667 1746.5 OFFCURVE",
"428 1727.5 CURVE SMOOTH",
"419.333 1708.5 OFFCURVE",
"415 1688 OFFCURVE",
"415 1666 CURVE SMOOTH",
"415 1644.67 OFFCURVE",
"419.333 1624.67 OFFCURVE",
"428 1606 CURVE SMOOTH",
"436.667 1587.33 OFFCURVE",
"448.167 1571.17 OFFCURVE",
"462.5 1557.5 CURVE SMOOTH",
"476.833 1543.83 OFFCURVE",
"493.5 1533 OFFCURVE",
"512.5 1525 CURVE SMOOTH",
"531.5 1517 OFFCURVE",
"551.667 1513 OFFCURVE",
"573 1513 CURVE SMOOTH",
"595.667 1513 OFFCURVE",
"616.833 1517 OFFCURVE",
"636.5 1525 CURVE SMOOTH",
"656.167 1533 OFFCURVE",
"673.5 1543.83 OFFCURVE",
"688.5 1557.5 CURVE SMOOTH",
"703.5 1571.17 OFFCURVE",
"715.333 1587.33 OFFCURVE",
"724 1606 CURVE SMOOTH",
"732.667 1624.67 OFFCURVE",
"737 1644.67 OFFCURVE",
"737 1666 CURVE SMOOTH"
);
},
{
closed = 1;
nodes = (
"1153 1688 OFFCURVE",
"1148.83 1708.5 OFFCURVE",
"1140.5 1727.5 CURVE SMOOTH",
"1132.17 1746.5 OFFCURVE",
"1120.67 1763.33 OFFCURVE",
"1106 1778 CURVE SMOOTH",
"1091.33 1792.67 OFFCURVE",
"1074.17 1804.17 OFFCURVE",
"1054.5 1812.5 CURVE SMOOTH",
"1034.83 1820.83 OFFCURVE",
"1013.67 1825 OFFCURVE",
"991 1825 CURVE SMOOTH",
"969 1825 OFFCURVE",
"948.333 1820.83 OFFCURVE",
"929 1812.5 CURVE SMOOTH",
"909.667 1804.17 OFFCURVE",
"892.667 1792.67 OFFCURVE",
"878 1778 CURVE SMOOTH",
"863.333 1763.33 OFFCURVE",
"851.833 1746.5 OFFCURVE",
"843.5 1727.5 CURVE SMOOTH",
"835.167 1708.5 OFFCURVE",
"831 1688 OFFCURVE",
"831 1666 CURVE SMOOTH",
"831 1644.67 OFFCURVE",
"835.167 1624.67 OFFCURVE",
"843.5 1606 CURVE SMOOTH",
"851.833 1587.33 OFFCURVE",
"863.333 1571.17 OFFCURVE",
"878 1557.5 CURVE SMOOTH",
"892.667 1543.83 OFFCURVE",
"909.667 1533 OFFCURVE",
"929 1525 CURVE SMOOTH",
"948.333 1517 OFFCURVE",
"969 1513 OFFCURVE",
"991 1513 CURVE SMOOTH",
"1013.67 1513 OFFCURVE",
"1034.83 1517 OFFCURVE",
"1054.5 1525 CURVE SMOOTH",
"1074.17 1533 OFFCURVE",
"1091.33 1543.83 OFFCURVE",
"1106 1557.5 CURVE SMOOTH",
"1120.67 1571.17 OFFCURVE",
"1132.17 1587.33 OFFCURVE",
"1140.5 1606 CURVE SMOOTH",
"1148.83 1624.67 OFFCURVE",
"1153 1644.67 OFFCURVE",
"1153 1666 CURVE SMOOTH"
);
}
);
width = 1334;
}
);
leftKerningGroup = A;
rightKerningGroup = A;
unicode = 00C4;
},
{
glyphname = Agrave;
layers = (
{
layerId = "421C8255-749A-4570-9FED-EBF43319311F";
name = "Bold Italic";
paths = (
{
closed = 1;
nodes = (
"0 0 LINE"
);
},
{
closed = 1;
nodes = (
"1275 0 LINE",
"937 1457 LINE",
"603 1457 LINE",
"-93 0 LINE",
"163 0 LINE SMOOTH",
"189 0 OFFCURVE",
"212.167 7.33333 OFFCURVE",
"232.5 22 CURVE SMOOTH",
"252.833 36.6667 OFFCURVE",
"267.667 53 OFFCURVE",
"277 71 CURVE",
"385 333 LINE",
"880 333 LINE",
"925 71 LINE",
"931 49.6667 OFFCURVE",
"941.833 32.5 OFFCURVE",
"957.5 19.5 CURVE SMOOTH",
"973.167 6.5 OFFCURVE",
"995 0 OFFCURVE",
"1023 0 CURVE SMOOTH"
);
},
{
closed = 1;
nodes = (
"476 555 LINE",
"647 969 LINE SMOOTH",
"658.333 995.667 OFFCURVE",
"671.833 1026.83 OFFCURVE",
"687.5 1062.5 CURVE SMOOTH",
"703.167 1098.17 OFFCURVE",
"719 1136.67 OFFCURVE",
"735 1178 CURVE",
"741 1136.67 OFFCURVE",
"747.167 1098.33 OFFCURVE",
"753.5 1063 CURVE SMOOTH",
"759.833 1027.67 OFFCURVE",
"765.667 997 OFFCURVE",
"771 971 CURVE SMOOTH",
"842 555 LINE"
);
},
{
closed = 1;
nodes = (
"356 1867 LINE",
"623 1580 LINE SMOOTH",
"629.667 1572.67 OFFCURVE",
"635.833 1567.17 OFFCURVE",
"641.5 1563.5 CURVE SMOOTH",
"647.167 1559.83 OFFCURVE",
"653.333 1557 OFFCURVE",
"660 1555 CURVE SMOOTH",
"666.667 1553 OFFCURVE",
"674 1551.83 OFFCURVE",
"682 1551.5 CURVE SMOOTH",
"690 1551.17 OFFCURVE",
"699.667 1551 OFFCURVE",
"711 1551 CURVE SMOOTH",
"919 1551 LINE",
"757 1821 LINE SMOOTH",
"750.333 1831.67 OFFCURVE",
"743.833 1840 OFFCURVE",
"737.5 1846 CURVE SMOOTH",
"731.167 1852 OFFCURVE",
"724 1856.5 OFFCURVE",
"716 1859.5 CURVE SMOOTH",
"708 1862.5 OFFCURVE",
"698.833 1864.5 OFFCURVE",
"688.5 1865.5 CURVE SMOOTH",
"678.167 1866.5 OFFCURVE",
"666 1867 OFFCURVE",
"652 1867 CURVE SMOOTH"
);
}
);
width = 1334;
}
);
leftKerningGroup = A;
rightKerningGroup = A;
unicode = 00C0;
},
{
glyphname = Aring;
layers = (
{
layerId = "421C8255-749A-4570-9FED-EBF43319311F";
name = "Bold Italic";
paths = (
{
closed = 1;
nodes = (
"0 0 LINE"
);
},
{
closed = 1;
nodes = (
"1275 0 LINE",
"937 1457 LINE",
"603 1457 LINE",
"-93 0 LINE",
"163 0 LINE SMOOTH",
"189 0 OFFCURVE",
"212.167 7.33333 OFFCURVE",
"232.5 22 CURVE SMOOTH",
"252.833 36.6667 OFFCURVE",
"267.667 53 OFFCURVE",
"277 71 CURVE",
"385 333 LINE",
"880 333 LINE",
"925 71 LINE",
"931 49.6667 OFFCURVE",
"941.833 32.5 OFFCURVE",
"957.5 19.5 CURVE SMOOTH",
"973.167 6.5 OFFCURVE",
"995 0 OFFCURVE",
"1023 0 CURVE SMOOTH"
);
},
{
closed = 1;
nodes = (
"476 555 LINE",
"647 969 LINE SMOOTH",
"658.333 995.667 OFFCURVE",
"671.833 1026.83 OFFCURVE",
"687.5 1062.5 CURVE SMOOTH",
"703.167 1098.17 OFFCURVE",
"719 1136.67 OFFCURVE",
"735 1178 CURVE",
"741 1136.67 OFFCURVE",
"747.167 1098.33 OFFCURVE",
"753.5 1063 CURVE SMOOTH",
"759.833 1027.67 OFFCURVE",
"765.667 997 OFFCURVE",
"771 971 CURVE SMOOTH",
"842 555 LINE"
);
},
{
closed = 1;
nodes = (
"591.667 1684.67 OFFCURVE",
"594.167 1657.83 OFFCURVE",
"602.5 1633.5 CURVE SMOOTH",
"610.833 1609.17 OFFCURVE",
"623.5 1588.33 OFFCURVE",
"640.5 1571 CURVE SMOOTH",
"657.5 1553.67 OFFCURVE",
"677.833 1540.33 OFFCURVE",
"701.5 1531 CURVE SMOOTH",
"725.167 1521.67 OFFCURVE",
"750.333 1517 OFFCURVE",
"777 1517 CURVE SMOOTH",
"805 1517 OFFCURVE",
"832.333 1521.67 OFFCURVE",
"859 1531 CURVE SMOOTH",
"885.667 1540.33 OFFCURVE",
"909.5 1553.67 OFFCURVE",
"930.5 1571 CURVE SMOOTH",
"951.5 1588.33 OFFCURVE",
"969 1609.17 OFFCURVE",
"983 1633.5 CURVE SMOOTH",
"997 1657.83 OFFCURVE",
"1005.67 1684.67 OFFCURVE",
"1009 1714 CURVE SMOOTH",
"1012.33 1744.67 OFFCURVE",
"1009.83 1772.5 OFFCURVE",
"1001.5 1797.5 CURVE SMOOTH",
"993.167 1822.5 OFFCURVE",
"980.333 1843.83 OFFCURVE",
"963 1861.5 CURVE SMOOTH",
"945.667 1879.17 OFFCURVE",
"924.833 1892.83 OFFCURVE",
"900.5 1902.5 CURVE SMOOTH",
"876.167 1912.17 OFFCURVE",
"850 1917 OFFCURVE",
"822 1917 CURVE SMOOTH",
"795.333 1917 OFFCURVE",
"769.167 1912.17 OFFCURVE",
"743.5 1902.5 CURVE SMOOTH",
"717.833 1892.83 OFFCURVE",
"694.667 1879.17 OFFCURVE",
"674 1861.5 CURVE SMOOTH",
"653.333 1843.83 OFFCURVE",
"635.833 1822.5 OFFCURVE",
"621.5 1797.5 CURVE SMOOTH",
"607.167 1772.5 OFFCURVE",
"598.333 1744.67 OFFCURVE",
"595 1714 CURVE SMOOTH"
);
},
{
closed = 1;
nodes = (
"732.667 1739.33 OFFCURVE",
"740.833 1759.33 OFFCURVE",
"754.5 1774 CURVE SMOOTH",
"768.167 1788.67 OFFCURVE",
"787.333 1796 OFFCURVE",
"812 1796 CURVE SMOOTH",
"834 1796 OFFCURVE",
"850.667 1788.67 OFFCURVE",
"862 1774 CURVE SMOOTH",
"873.333 1759.33 OFFCURVE",
"877.667 1739.33 OFFCURVE",
"875 1714 CURVE SMOOTH",
"872.333 1690.67 OFFCURVE",
"863.833 1671.5 OFFCURVE",
"849.5 1656.5 CURVE SMOOTH",
"835.167 1641.5 OFFCURVE",
"817 1634 OFFCURVE",
"795 1634 CURVE SMOOTH",
"769.667 1634 OFFCURVE",
"751.833 1641.5 OFFCURVE",
"741.5 1656.5 CURVE SMOOTH",
"731.167 1671.5 OFFCURVE",
"727.333 1690.67 OFFCURVE",
"730 1714 CURVE SMOOTH"
);
}
);
width = 1334;
}
);
leftKerningGroup = A;
rightKerningGroup = A;
unicode = 00C5;
},
{
glyphname = Atilde;
layers = (
{
layerId = "421C8255-749A-4570-9FED-EBF43319311F";
name = "Bold Italic";
paths = (
{
closed = 1;
nodes = (
"0 0 LINE"
);
},
{
closed = 1;
nodes = (
"1275 0 LINE",
"937 1457 LINE",
"603 1457 LINE",
"-93 0 LINE",
"163 0 LINE SMOOTH",
"189 0 OFFCURVE",
"212.167 7.33333 OFFCURVE",
"232.5 22 CURVE SMOOTH",
"252.833 36.6667 OFFCURVE",
"267.667 53 OFFCURVE",
"277 71 CURVE",
"385 333 LINE",
"880 333 LINE",
"925 71 LINE",
"931 49.6667 OFFCURVE",
"941.833 32.5 OFFCURVE",
"957.5 19.5 CURVE SMOOTH",
"973.167 6.5 OFFCURVE",
"995 0 OFFCURVE",
"1023 0 CURVE SMOOTH"
);
},
{
closed = 1;
nodes = (
"476 555 LINE",
"647 969 LINE SMOOTH",
"658.333 995.667 OFFCURVE",
"671.833 1026.83 OFFCURVE",
"687.5 1062.5 CURVE SMOOTH",
"703.167 1098.17 OFFCURVE",
"719 1136.67 OFFCURVE",
"735 1178 CURVE",
"741 1136.67 OFFCURVE",
"747.167 1098.33 OFFCURVE",
"753.5 1063 CURVE SMOOTH",
"759.833 1027.67 OFFCURVE",
"765.667 997 OFFCURVE",
"771 971 CURVE SMOOTH",
"842 555 LINE"
);
},
{
closed = 1;
nodes = (
"905 1729 OFFCURVE",
"890 1734 OFFCURVE",
"876 1744 CURVE SMOOTH",
"862 1754 OFFCURVE",
"846.333 1765.17 OFFCURVE",
"829 1777.5 CURVE SMOOTH",
"811.667 1789.83 OFFCURVE",
"791.333 1801 OFFCURVE",
"768 1811 CURVE SMOOTH",
"744.667 1821 OFFCURVE",
"715.667 1826 OFFCURVE",
"681 1826 CURVE SMOOTH",
"647 1826 OFFCURVE",
"616 1818 OFFCURVE",
"588 1802 CURVE SMOOTH",
"560 1786 OFFCURVE",
"535.5 1764.67 OFFCURVE",
"514.5 1738 CURVE SMOOTH",
"493.5 1711.33 OFFCURVE",
"476.333 1681 OFFCURVE",
"463 1647 CURVE SMOOTH",
"449.667 1613 OFFCURVE",
"441 1577.67 OFFCURVE",
"437 1541 CURVE",
"612 1541 LINE",
"612.667 1550.33 OFFCURVE",
"614.833 1560.33 OFFCURVE",
"618.5 1571 CURVE SMOOTH",
"622.167 1581.67 OFFCURVE",
"627.333 1591.5 OFFCURVE",
"634 1600.5 CURVE SMOOTH",
"640.667 1609.5 OFFCURVE",
"649 1617 OFFCURVE",
"659 1623 CURVE SMOOTH",
"669 1629 OFFCURVE",
"680.667 1632 OFFCURVE",
"694 1632 CURVE SMOOTH",
"710 1632 OFFCURVE",
"725 1627 OFFCURVE",
"739 1617 CURVE SMOOTH",
"753 1607 OFFCURVE",
"768.833 1595.83 OFFCURVE",
"786.5 1583.5 CURVE SMOOTH",
"804.167 1571.17 OFFCURVE",
"824.5 1560 OFFCURVE",
"847.5 1550 CURVE SMOOTH",
"870.5 1540 OFFCURVE",
"899 1535 OFFCURVE",
"933 1535 CURVE SMOOTH",
"967.667 1535 OFFCURVE",
"999 1542.83 OFFCURVE",
"1027 1558.5 CURVE SMOOTH",
"1055 1574.17 OFFCURVE",
"1079.5 1595.17 OFFCURVE",
"1100.5 1621.5 CURVE SMOOTH",
"1121.5 1647.83 OFFCURVE",
"1138.5 1678 OFFCURVE",
"1151.5 1712 CURVE SMOOTH",
"1164.5 1746 OFFCURVE",
"1173 1781.33 OFFCURVE",
"1177 1818 CURVE",
"1004 1818 LINE",
"1002.67 1808.67 OFFCURVE",
"1000.17 1798.83 OFFCURVE",
"996.5 1788.5 CURVE SMOOTH",
"992.833 1778.17 OFFCURVE",
"987.667 1768.5 OFFCURVE",
"981 1759.5 CURVE SMOOTH",
"974.333 1750.5 OFFCURVE",
"966 1743.17 OFFCURVE",
"956 1737.5 CURVE SMOOTH",
"946 1731.83 OFFCURVE",
"934.333 1729 OFFCURVE",
"921 1729 CURVE SMOOTH"
);
}
);
width = 1334;
}
);
leftKerningGroup = A;
rightKerningGroup = A;
unicode = 00C3;
},
{
glyphname = AE;
layers = (
{
layerId = "421C8255-749A-4570-9FED-EBF43319311F";
name = "Bold Italic";
paths = (
{
closed = 1;
nodes = (
"729 1457 LINE",
"-89 0 LINE",
"165 0 LINE SMOOTH",
"192.333 0 OFFCURVE",
"216.667 7.33333 OFFCURVE",
"238 22 CURVE SMOOTH",
"259.333 36.6667 OFFCURVE",
"275.667 53 OFFCURVE",
"287 71 CURVE",
"418 333 LINE",
"847 333 LINE",
"847 0 LINE",
"1605 0 LINE",
"1637 251 LINE",
"1155 251 LINE",
"1155 610 LINE",
"1551 610 LINE",
"1581 852 LINE",
"1155 852 LINE",
"1155 1206 LINE",
"1753 1206 LINE",
"1785 1457 LINE"
);
},
{
closed = 1;
nodes = (
"529 555 LINE",
"761 1019 LINE",
"776.333 1044.33 OFFCURVE",
"791 1072 OFFCURVE",
"805 1102 CURVE SMOOTH",
"819 1132 OFFCURVE",
"833 1164 OFFCURVE",
"847 1198 CURVE",
"847 555 LINE"
);
}
);
width = 1751;
}
);
leftKerningGroup = AE;
rightKerningGroup = E;
unicode = 00C6;
},
{
glyphname = B;
layers = (
{
layerId = "421C8255-749A-4570-9FED-EBF43319311F";
name = "Bold Italic";
paths = (
{
closed = 1;
nodes = (
"57 0 LINE",
"601 0 LINE SMOOTH",
"689 0 OFFCURVE",
"767.833 12.5 OFFCURVE",
"837.5 37.5 CURVE SMOOTH",
"907.167 62.5 OFFCURVE",
"966.333 96.6667 OFFCURVE",
"1015 140 CURVE SMOOTH",
"1063.67 183.333 OFFCURVE",
"1100.83 234.167 OFFCURVE",
"1126.5 292.5 CURVE SMOOTH",
"1152.17 350.833 OFFCURVE",
"1165 413.667 OFFCURVE",
"1165 481 CURVE SMOOTH",
"1165 549.667 OFFCURVE",
"1146.17 606.5 OFFCURVE",
"1108.5 651.5 CURVE SMOOTH",
"1070.83 696.5 OFFCURVE",
"1012.67 729.667 OFFCURVE",
"934 751 CURVE",
"984 768.333 OFFCURVE",
"1026.67 789.833 OFFCURVE",
"1062 815.5 CURVE SMOOTH",
"1097.33 841.167 OFFCURVE",
"1126.17 869.667 OFFCURVE",
"1148.5 901 CURVE SMOOTH",
"1170.83 932.333 OFFCURVE",
"1187.17 966.5 OFFCURVE",
"1197.5 1003.5 CURVE SMOOTH",
"1207.83 1040.5 OFFCURVE",
"1213 1079 OFFCURVE",
"1213 1119 CURVE SMOOTH",
"1213 1169.67 OFFCURVE",
"1204.17 1215.83 OFFCURVE",
"1186.5 1257.5 CURVE SMOOTH",
"1168.83 1299.17 OFFCURVE",
"1140.83 1334.83 OFFCURVE",
"1102.5 1364.5 CURVE SMOOTH",
"1064.17 1394.17 OFFCURVE",
"1014.83 1417 OFFCURVE",
"954.5 1433 CURVE SMOOTH",
"894.167 1449 OFFCURVE",
"821.667 1457 OFFCURVE",
"737 1457 CURVE SMOOTH",
"237 1457 LINE"
);
},
{
closed = 1;
nodes = (
"459 622 LINE",
"669 622 LINE SMOOTH",
"701.667 622 OFFCURVE",
"729.167 618.5 OFFCURVE",
"751.5 611.5 CURVE SMOOTH",
"773.834 604.5 OFFCURVE",
"791.834 594.833 OFFCURVE",
"805.5 582.5 CURVE SMOOTH",
"819.167 570.166 OFFCURVE",
"828.834 555 OFFCURVE",
"834.5 537 CURVE SMOOTH",
"840.167 519 OFFCURVE",
"843 499 OFFCURVE",
"843 477 CURVE SMOOTH",
"843 443.666 OFFCURVE",
"839.167 413 OFFCURVE",
"831.5 385 CURVE SMOOTH",
"823.834 357 OFFCURVE",
"811.5 332.5 OFFCURVE",
"794.5 311.5 CURVE SMOOTH",
"777.5 290.5 OFFCURVE",
"755.334 274.166 OFFCURVE",
"728 262.5 CURVE SMOOTH",
"700.667 250.833 OFFCURVE",
"667 245 OFFCURVE",
"627 245 CURVE SMOOTH",
"413 245 LINE"
);
},
{
closed = 1;
nodes = (
"485 838 LINE",
"531 1214 LINE",
"707 1214 LINE SMOOTH",
"766.334 1214 OFFCURVE",
"810.167 1202.83 OFFCURVE",
"838.5 1180.5 CURVE SMOOTH",
"866.834 1158.17 OFFCURVE",
"881 1120 OFFCURVE",
"881 1066 CURVE SMOOTH",
"881 1022.67 OFFCURVE",
"875.334 986.333 OFFCURVE",
"864 957 CURVE SMOOTH",
"852.667 927.667 OFFCURVE",
"836.5 904.167 OFFCURVE",
"815.5 886.5 CURVE SMOOTH",
"794.5 868.833 OFFCURVE",
"769.334 856.333 OFFCURVE",
"740 849 CURVE SMOOTH",
"710.667 841.667 OFFCURVE",
"677.667 838 OFFCURVE",
"641 838 CURVE SMOOTH"
);
}
);
width = 1250;
}
);
leftKerningGroup = B;
rightKerningGroup = B;
unicode = 0042;
},
{
glyphname = C;
layers = (
{
layerId = "421C8255-749A-4570-9FED-EBF43319311F";
name = "Bold Italic";
paths = (
{
closed = 1;
nodes = (
"651 252 OFFCURVE",
"612 260.833 OFFCURVE",
"576 278.5 CURVE SMOOTH",
"540 296.167 OFFCURVE",
"509 321.833 OFFCURVE",
"483 355.5 CURVE SMOOTH",
"457 389.167 OFFCURVE",
"436.5 430.333 OFFCURVE",
"421.5 479 CURVE SMOOTH",
"406.5 527.667 OFFCURVE",
"399 583 OFFCURVE",
"399 645 CURVE SMOOTH",
"399 730.333 OFFCURVE",
"410 807.5 OFFCURVE",
"432 876.5 CURVE SMOOTH",
"454 945.5 OFFCURVE",
"484.5 1004.17 OFFCURVE",
"523.5 1052.5 CURVE SMOOTH",
"562.5 1100.83 OFFCURVE",
"608.5 1138 OFFCURVE",
"661.5 1164 CURVE SMOOTH",
"714.5 1190 OFFCURVE",
"771.667 1203 OFFCURVE",
"833 1203 CURVE SMOOTH",
"864.333 1203 OFFCURVE",
"891.5 1200.33 OFFCURVE",
"914.5 1195 CURVE SMOOTH",
"937.5 1189.67 OFFCURVE",
"957.333 1183.17 OFFCURVE",
"974 1175.5 CURVE SMOOTH",
"990.667 1167.83 OFFCURVE",
"1005 1159.33 OFFCURVE",
"1017 1150 CURVE SMOOTH",
"1029 1140.67 OFFCURVE",
"1039.83 1132.17 OFFCURVE",
"1049.5 1124.5 CURVE SMOOTH",
"1059.17 1116.83 OFFCURVE",
"1068.67 1110.33 OFFCURVE",
"1078 1105 CURVE SMOOTH",
"1087.33 1099.67 OFFCURVE",
"1097.67 1097 OFFCURVE",
"1109 1097 CURVE SMOOTH",
"1126.33 1097 OFFCURVE",
"1140.33 1100.67 OFFCURVE",
"1151 1108 CURVE SMOOTH",
"1161.67 1115.33 OFFCURVE",
"1171 1123.67 OFFCURVE",
"1179 1133 CURVE SMOOTH",
"1293 1265 LINE",
"1271.67 1295.67 OFFCURVE",
"1246.67 1323.67 OFFCURVE",
"1218 1349 CURVE SMOOTH",
"1189.33 1374.33 OFFCURVE",
"1156.83 1396.17 OFFCURVE",
"1120.5 1414.5 CURVE SMOOTH",
"1084.17 1432.83 OFFCURVE",
"1043.5 1447.17 OFFCURVE",
"998.5 1457.5 CURVE SMOOTH",
"953.5 1467.83 OFFCURVE",
"903.667 1473 OFFCURVE",
"849 1473 CURVE SMOOTH",
"776.333 1473 OFFCURVE",
"706.667 1463.5 OFFCURVE",
"640 1444.5 CURVE SMOOTH",
"573.333 1425.5 OFFCURVE",
"511 1398.33 OFFCURVE",
"453 1363 CURVE SMOOTH",
"395 1327.67 OFFCURVE",
"342.167 1284.67 OFFCURVE",
"294.5 1234 CURVE SMOOTH",
"246.833 1183.33 OFFCURVE",
"206 1126.33 OFFCURVE",
"172 1063 CURVE SMOOTH",
"138 999.667 OFFCURVE",
"111.667 930.667 OFFCURVE",
"93 856 CURVE SMOOTH",
"74.3334 781.334 OFFCURVE",
"65 702.334 OFFCURVE",
"65 619 CURVE SMOOTH",
"65 529 OFFCURVE",
"77.5001 445.167 OFFCURVE",
"102.5 367.5 CURVE SMOOTH",
"127.5 289.834 OFFCURVE",
"164.333 222.667 OFFCURVE",
"213 166 CURVE SMOOTH",
"261.667 109.334 OFFCURVE",
"321.5 64.8337 OFFCURVE",
"392.5 32.5004 CURVE SMOOTH",
"463.5 0.167023 OFFCURVE",
"545 -16 OFFCURVE",
"637 -16 CURVE SMOOTH",
"747.667 -16 OFFCURVE",
"846.5 3.50035 OFFCURVE",
"933.5 42.5004 CURVE SMOOTH",
"1020.5 81.5004 OFFCURVE",
"1095.67 138.667 OFFCURVE",
"1159 214 CURVE",
"1045 351 LINE",
"1041.67 355.667 OFFCURVE",
"1036.5 359.834 OFFCURVE",
"1029.5 363.5 CURVE SMOOTH",
"1022.5 367.167 OFFCURVE",
"1013.67 369 OFFCURVE",
"1003 369 CURVE SMOOTH",
"992.333 369 OFFCURVE",
"982.333 366.167 OFFCURVE",
"973 360.5 CURVE SMOOTH",
"963.667 354.834 OFFCURVE",
"953.667 347.667 OFFCURVE",
"943 339 CURVE SMOOTH",
"932.333 330.334 OFFCURVE",
"920.333 320.834 OFFCURVE",
"907 310.5 CURVE SMOOTH",
"893.667 300.167 OFFCURVE",
"877.333 290.667 OFFCURVE",
"858 282 CURVE SMOOTH",
"838.667 273.334 OFFCURVE",
"815.5 266.167 OFFCURVE",
"788.5 260.5 CURVE SMOOTH",
"761.5 254.834 OFFCURVE",
"729.667 252 OFFCURVE",
"693 252 CURVE SMOOTH"
);
}
);
width = 1234;
}
);
leftKerningGroup = C;
rightKerningGroup = C;
unicode = 0043;
},
{
glyphname = Ccedilla;
layers = (
{
layerId = "421C8255-749A-4570-9FED-EBF43319311F";
name = "Bold Italic";
paths = (
{
closed = 1;
nodes = (
"500.333 -220 OFFCURVE",
"488 -229 OFFCURVE",
"482 -247 CURVE",
"442 -340 LINE",
"465.333 -345 OFFCURVE",
"487.333 -349 OFFCURVE",
"508 -352 CURVE SMOOTH",
"528.667 -355 OFFCURVE",
"551.667 -356 OFFCURVE",
"577 -356 CURVE SMOOTH",
"617.667 -356 OFFCURVE",
"654.833 -352 OFFCURVE",
"688.5 -345 CURVE SMOOTH",
"722.167 -337 OFFCURVE",
"751.167 -326 OFFCURVE",
"775.5 -311 CURVE SMOOTH",
"799.833 -296 OFFCURVE",
"818.833 -279 OFFCURVE",
"832.5 -258 CURVE SMOOTH",
"846.167 -237 OFFCURVE",
"853 -213 OFFCURVE",
"853 -186 CURVE SMOOTH",
"853 -158 OFFCURVE",
"843.667 -132 OFFCURVE",
"825 -109 CURVE SMOOTH",
"806.333 -85 OFFCURVE",
"771.667 -65 OFFCURVE",
"721 -50 CURVE",
"736 -10 LINE",
"823.333 0 OFFCURVE",
"902.167 23.8333 OFFCURVE",
"972.5 61.5 CURVE SMOOTH",
"1042.83 99.1667 OFFCURVE",
"1105 150 OFFCURVE",
"1159 214 CURVE",
"1045 351 LINE",
"1041.67 355.667 OFFCURVE",
"1036.5 359.833 OFFCURVE",
"1029.5 363.5 CURVE SMOOTH",
"1022.5 367.167 OFFCURVE",
"1013.67 369 OFFCURVE",
"1003 369 CURVE SMOOTH",
"992.333 369 OFFCURVE",
"982.333 366.167 OFFCURVE",
"973 360.5 CURVE SMOOTH",
"963.667 354.833 OFFCURVE",
"953.667 347.667 OFFCURVE",
"943 339 CURVE SMOOTH",
"932.333 330.333 OFFCURVE",
"920.333 320.833 OFFCURVE",
"907 310.5 CURVE SMOOTH",
"893.667 300.167 OFFCURVE",
"877.333 290.667 OFFCURVE",
"858 282 CURVE SMOOTH",
"838.667 273.333 OFFCURVE",
"815.5 266.167 OFFCURVE",
"788.5 260.5 CURVE SMOOTH",
"761.5 254.833 OFFCURVE",
"729.667 252 OFFCURVE",
"693 252 CURVE SMOOTH",
"651 252 OFFCURVE",
"612 260.833 OFFCURVE",
"576 278.5 CURVE SMOOTH",
"540 296.167 OFFCURVE",
"509 321.833 OFFCURVE",
"483 355.5 CURVE SMOOTH",
"457 389.167 OFFCURVE",
"436.5 430.333 OFFCURVE",
"421.5 479 CURVE SMOOTH",
"406.5 527.667 OFFCURVE",
"399 583 OFFCURVE",
"399 645 CURVE SMOOTH",
"399 730.333 OFFCURVE",
"410 807.5 OFFCURVE",
"432 876.5 CURVE SMOOTH",
"454 945.5 OFFCURVE",
"484.5 1004.17 OFFCURVE",
"523.5 1052.5 CURVE SMOOTH",
"562.5 1100.83 OFFCURVE",
"608.5 1138 OFFCURVE",
"661.5 1164 CURVE SMOOTH",
"714.5 1190 OFFCURVE",
"771.667 1203 OFFCURVE",
"833 1203 CURVE SMOOTH",
"864.333 1203 OFFCURVE",
"891.5 1200.33 OFFCURVE",
"914.5 1195 CURVE SMOOTH",
"937.5 1189.67 OFFCURVE",
"957.333 1183.17 OFFCURVE",
"974 1175.5 CURVE SMOOTH",
"990.667 1167.83 OFFCURVE",
"1005 1159.33 OFFCURVE",
"1017 1150 CURVE SMOOTH",
"1029 1140.67 OFFCURVE",
"1039.83 1132.17 OFFCURVE",
"1049.5 1124.5 CURVE SMOOTH",
"1059.17 1116.83 OFFCURVE",
"1068.67 1110.33 OFFCURVE",
"1078 1105 CURVE SMOOTH",
"1087.33 1099.67 OFFCURVE",
"1097.67 1097 OFFCURVE",
"1109 1097 CURVE SMOOTH",
"1126.33 1097 OFFCURVE",
"1140.33 1100.67 OFFCURVE",
"1151 1108 CURVE SMOOTH",
"1161.67 1115.33 OFFCURVE",
"1171 1123.67 OFFCURVE",
"1179 1133 CURVE SMOOTH",
"1293 1265 LINE",
"1271.67 1295.67 OFFCURVE",
"1246.67 1323.67 OFFCURVE",
"1218 1349 CURVE SMOOTH",
"1189.33 1374.33 OFFCURVE",
"1156.83 1396.17 OFFCURVE",
"1120.5 1414.5 CURVE SMOOTH",
"1084.17 1432.83 OFFCURVE",
"1043.5 1447.17 OFFCURVE",
"998.5 1457.5 CURVE SMOOTH",
"953.5 1467.83 OFFCURVE",
"903.667 1473 OFFCURVE",
"849 1473 CURVE SMOOTH",
"776.333 1473 OFFCURVE",
"706.667 1463.5 OFFCURVE",
"640 1444.5 CURVE SMOOTH",
"573.333 1425.5 OFFCURVE",
"511 1398.33 OFFCURVE",
"453 1363 CURVE SMOOTH",
"395 1327.67 OFFCURVE",
"342.167 1284.67 OFFCURVE",
"294.5 1234 CURVE SMOOTH",
"246.833 1183.33 OFFCURVE",
"206 1126.33 OFFCURVE",
"172 1063 CURVE SMOOTH",
"138 999.667 OFFCURVE",
"111.667 930.667 OFFCURVE",
"93 856 CURVE SMOOTH",
"74.3334 781.334 OFFCURVE",
"65 702.334 OFFCURVE",
"65 619 CURVE SMOOTH",
"65 535 OFFCURVE",
"75.8334 456.667 OFFCURVE",
"97.5001 384 CURVE SMOOTH",
"119.167 311.334 OFFCURVE",
"150.833 247.167 OFFCURVE",
"192.5 191.5 CURVE SMOOTH",
"234.167 135.834 OFFCURVE",
"285.667 90.3337 OFFCURVE",
"347 55 CURVE SMOOTH",
"408.333 19.667 OFFCURVE",
"479 -2 OFFCURVE",
"559 -11 CURVE",
"499 -145 LINE",
"540.333 -152 OFFCURVE",
"569.333 -158 OFFCURVE",
"586 -165 CURVE SMOOTH",
"602.667 -172 OFFCURVE",
"611 -182 OFFCURVE",
"611 -195 CURVE SMOOTH",
"611 -202 OFFCURVE",
"608 -210 OFFCURVE",
"602 -217 CURVE SMOOTH",
"596 -224 OFFCURVE",
"585.333 -227 OFFCURVE",
"570 -227 CURVE SMOOTH",
"560 -227 OFFCURVE",
"551.333 -226 OFFCURVE",
"544 -224 CURVE SMOOTH",
"536.667 -221 OFFCURVE",
"528.333 -220 OFFCURVE",
"519 -220 CURVE SMOOTH"
);
}
);
width = 1234;
}
);
leftKerningGroup = C;
rightKerningGroup = C;
unicode = 00C7;
},
{
glyphname = D;
layers = (
{
layerId = "421C8255-749A-4570-9FED-EBF43319311F";
name = "Bold Italic";
paths = (
{
closed = 1;
nodes = (
"1379 912.667 OFFCURVE",
"1364.67 996.667 OFFCURVE",
"1336 1074 CURVE SMOOTH",
"1307.33 1151.33 OFFCURVE",
"1266.33 1218.33 OFFCURVE",
"1213 1275 CURVE SMOOTH",
"1159.67 1331.67 OFFCURVE",
"1094.83 1376.17 OFFCURVE",
"1018.5 1408.5 CURVE SMOOTH",
"942.167 1440.83 OFFCURVE",
"856.333 1457 OFFCURVE",
"761 1457 CURVE SMOOTH",
"237 1457 LINE",
"56.9999 0 LINE",
"581 0 LINE SMOOTH",
"657.667 0 OFFCURVE",
"730.833 9.33333 OFFCURVE",
"800.5 28 CURVE SMOOTH",
"870.167 46.6667 OFFCURVE",
"934.5 73.3333 OFFCURVE",
"993.5 108 CURVE SMOOTH",
"1052.5 142.667 OFFCURVE",
"1105.83 184.5 OFFCURVE",
"1153.5 233.5 CURVE SMOOTH",
"1201.17 282.5 OFFCURVE",
"1241.67 337.5 OFFCURVE",
"1275 398.5 CURVE SMOOTH",
"1308.33 459.5 OFFCURVE",
"1334 525.5 OFFCURVE",
"1352 596.5 CURVE SMOOTH",
"1370 667.5 OFFCURVE",
"1379 742.667 OFFCURVE",
"1379 822 CURVE SMOOTH"
);
},
{
closed = 1;
nodes = (
"1045 727.333 OFFCURVE",
"1035 649.333 OFFCURVE",
"1015 580 CURVE SMOOTH",
"995 510.667 OFFCURVE",
"966.333 451.667 OFFCURVE",
"929 403 CURVE SMOOTH",
"891.667 354.333 OFFCURVE",
"846.333 316.833 OFFCURVE",
"793 290.5 CURVE SMOOTH",
"739.667 264.167 OFFCURVE",
"679.667 251 OFFCURVE",
"613 251 CURVE SMOOTH",
"417 251 LINE",
"533 1206 LINE",
"729 1206 LINE SMOOTH",
"779.667 1206 OFFCURVE",
"824.667 1196.67 OFFCURVE",
"864 1178 CURVE SMOOTH",
"903.333 1159.33 OFFCURVE",
"936.5 1133 OFFCURVE",
"963.5 1099 CURVE SMOOTH",
"990.5 1065 OFFCURVE",
"1010.83 1023.83 OFFCURVE",
"1024.5 975.5 CURVE SMOOTH",
"1038.17 927.167 OFFCURVE",
"1045 873.333 OFFCURVE",
"1045 814 CURVE SMOOTH"
);
}
);
width = 1418;
}
);
leftKerningGroup = B;
rightKerningGroup = D;
unicode = 0044;
},
{
glyphname = Eth;
layers = (
{
layerId = "421C8255-749A-4570-9FED-EBF43319311F";
name = "Bold Italic";
paths = (
{
closed = 1;
nodes = (
"27 819 LINE",
"3 641 LINE",
"153 641 LINE",
"75 0 LINE",
"599 0 LINE SMOOTH",
"675.667 0 OFFCURVE",
"748.5 9.33333 OFFCURVE",
"817.5 28 CURVE SMOOTH",
"886.5 46.6667 OFFCURVE",
"950.5 73.3333 OFFCURVE",
"1009.5 108 CURVE SMOOTH",
"1068.5 142.667 OFFCURVE",
"1121.83 184.5 OFFCURVE",
"1169.5 233.5 CURVE SMOOTH",
"1217.17 282.5 OFFCURVE",
"1257.67 337.5 OFFCURVE",
"1291 398.5 CURVE SMOOTH",
"1324.33 459.5 OFFCURVE",
"1350 525.5 OFFCURVE",
"1368 596.5 CURVE SMOOTH",
"1386 667.5 OFFCURVE",
"1395 742.667 OFFCURVE",
"1395 822 CURVE SMOOTH",
"1395 912.667 OFFCURVE",
"1380.83 996.667 OFFCURVE",
"1352.5 1074 CURVE SMOOTH",
"1324.17 1151.33 OFFCURVE",
"1283.33 1218.33 OFFCURVE",
"1230 1275 CURVE SMOOTH",
"1176.67 1331.67 OFFCURVE",
"1111.83 1376.17 OFFCURVE",
"1035.5 1408.5 CURVE SMOOTH",
"959.166 1440.83 OFFCURVE",
"873 1457 OFFCURVE",
"777 1457 CURVE SMOOTH",
"253 1457 LINE",
"175 819 LINE"
);
},
{
closed = 1;
nodes = (
"1061 727.333 OFFCURVE",
"1051 649.333 OFFCURVE",
"1031 580 CURVE SMOOTH",
"1011 510.667 OFFCURVE",
"982.5 451.667 OFFCURVE",
"945.5 403 CURVE SMOOTH",
"908.5 354.333 OFFCURVE",
"863.5 316.833 OFFCURVE",
"810.5 290.5 CURVE SMOOTH",
"757.5 264.167 OFFCURVE",
"697.666 251 OFFCURVE",
"631 251 CURVE SMOOTH",
"435 251 LINE",
"481 641 LINE",
"793 641 LINE",
"815 819 LINE",
"503 819 LINE",
"549 1206 LINE",
"745 1206 LINE SMOOTH",
"795.666 1206 OFFCURVE",
"840.666 1196.67 OFFCURVE",
"880 1178 CURVE SMOOTH",
"919.333 1159.33 OFFCURVE",
"952.5 1133 OFFCURVE",
"979.5 1099 CURVE SMOOTH",
"1006.5 1065 OFFCURVE",
"1026.83 1023.83 OFFCURVE",
"1040.5 975.5 CURVE SMOOTH",
"1054.17 927.167 OFFCURVE",
"1061 873.333 OFFCURVE",
"1061 814 CURVE SMOOTH"
);
}
);
width = 1434;
}
);
leftKerningGroup = B;
rightKerningGroup = D;
unicode = 00D0;
},
{
glyphname = E;
layers = (
{
layerId = "421C8255-749A-4570-9FED-EBF43319311F";
name = "Bold Italic";
paths = (
{
closed = 1;
nodes = (
"1073 1206 LINE",
"1105 1457 LINE",
"237 1457 LINE",
"57 0 LINE",
"927 0 LINE",
"959 251 LINE",
"416 251 LINE",
"460 612 LINE",
"871 612 LINE",
"903 854 LINE",
"490 854 LINE",
"534 1206 LINE"
);
}
);
width = 1071;
}
);
leftKerningGroup = B;
rightKerningGroup = E;
unicode = 0045;
},
{
glyphname = Eacute;
layers = (
{
layerId = "421C8255-749A-4570-9FED-EBF43319311F";
name = "Bold Italic";
paths = (
{
closed = 1;
nodes = (
"57 0 LINE"
);
},
{
closed = 1;
nodes = (
"1073 1206 LINE",
"1105 1457 LINE",
"237 1457 LINE",
"57 0 LINE",
"927 0 LINE",
"959 251 LINE",
"416 251 LINE",
"460 612 LINE",
"871 612 LINE",
"903 854 LINE",
"490 854 LINE",
"534 1206 LINE"
);
},
{
closed = 1;
nodes = (
"1176 1867 LINE",
"862 1867 LINE SMOOTH",
"848 1867 OFFCURVE",
"835.667 1866.67 OFFCURVE",
"825 1866 CURVE SMOOTH",
"814.333 1865.33 OFFCURVE",
"804.667 1863.5 OFFCURVE",
"796 1860.5 CURVE SMOOTH",
"787.333 1857.5 OFFCURVE",
"779 1852.83 OFFCURVE",
"771 1846.5 CURVE SMOOTH",
"763 1840.17 OFFCURVE",
"754.667 1831.67 OFFCURVE",
"746 1821 CURVE",
"542 1551 LINE",
"749 1551 LINE SMOOTH",
"759.667 1551 OFFCURVE",
"769.167 1551.33 OFFCURVE",
"777.5 1552 CURVE SMOOTH",
"785.833 1552.67 OFFCURVE",
"793.833 1554 OFFCURVE",
"801.5 1556 CURVE SMOOTH",
"809.167 1558 OFFCURVE",
"816.5 1561 OFFCURVE",
"823.5 1565 CURVE SMOOTH",
"830.5 1569 OFFCURVE",
"838.333 1574.67 OFFCURVE",
"847 1582 CURVE SMOOTH"
);
}
);
width = 1071;
}
);
leftKerningGroup = B;
rightKerningGroup = E;
unicode = 00C9;
},
{
glyphname = Ecircumflex;
layers = (
{
layerId = "421C8255-749A-4570-9FED-EBF43319311F";
name = "Bold Italic";
paths = (
{
closed = 1;
nodes = (
"57 0 LINE"
);
},
{
closed = 1;
nodes = (
"1073 1206 LINE",
"1105 1457 LINE",
"237 1457 LINE",
"57 0 LINE",
"927 0 LINE",
"959 251 LINE",
"416 251 LINE",
"460 612 LINE",
"871 612 LINE",
"903 854 LINE",
"490 854 LINE",
"534 1206 LINE"
);
},
{
closed = 1;
nodes = (
"1050 1551 LINE",
"856 1829 LINE",
"597 1829 LINE",
"341 1551 LINE",
"538 1551 LINE SMOOTH",
"549.333 1551 OFFCURVE",
"563.167 1553.17 OFFCURVE",
"579.5 1557.5 CURVE SMOOTH",
"595.833 1561.83 OFFCURVE",
"614 1575 OFFCURVE",
"634 1597 CURVE",
"688 1675 LINE",
"707 1700 LINE",
"721 1675 LINE",
"759 1597 LINE",
"765.667 1585.67 OFFCURVE",
"772.833 1577 OFFCURVE",
"780.5 1571 CURVE SMOOTH",
"788.167 1565 OFFCURVE",
"795.833 1560.5 OFFCURVE",
"803.5 1557.5 CURVE SMOOTH",
"811.167 1554.5 OFFCURVE",
"818.333 1552.67 OFFCURVE",
"825 1552 CURVE SMOOTH",
"831.667 1551.33 OFFCURVE",
"838 1551 OFFCURVE",
"844 1551 CURVE SMOOTH"
);
}
);
width = 1071;
}
);
leftKerningGroup = B;
rightKerningGroup = E;
unicode = 00CA;
},
{
glyphname = Edieresis;
layers = (
{
layerId = "421C8255-749A-4570-9FED-EBF43319311F";
name = "Bold Italic";
paths = (
{
closed = 1;
nodes = (
"57 0 LINE"
);
},
{
closed = 1;
nodes = (
"1073 1206 LINE",
"1105 1457 LINE",
"237 1457 LINE",
"57 0 LINE",
"927 0 LINE",
"959 251 LINE",
"416 251 LINE",
"460 612 LINE",
"871 612 LINE",
"903 854 LINE",
"490 854 LINE",
"534 1206 LINE"
);
},
{
closed = 1;
nodes = (
"654 1688 OFFCURVE",
"649.667 1708.5 OFFCURVE",
"641 1727.5 CURVE SMOOTH",
"632.333 1746.5 OFFCURVE",
"620.5 1763.33 OFFCURVE",
"605.5 1778 CURVE SMOOTH",
"590.5 1792.67 OFFCURVE",
"573.167 1804.17 OFFCURVE",
"553.5 1812.5 CURVE SMOOTH",
"533.833 1820.83 OFFCURVE",
"512.667 1825 OFFCURVE",
"490 1825 CURVE SMOOTH",
"468.667 1825 OFFCURVE",
"448.5 1820.83 OFFCURVE",
"429.5 1812.5 CURVE SMOOTH",
"410.5 1804.17 OFFCURVE",
"393.833 1792.67 OFFCURVE",
"379.5 1778 CURVE SMOOTH",
"365.167 1763.33 OFFCURVE",
"353.667 1746.5 OFFCURVE",
"345 1727.5 CURVE SMOOTH",
"336.333 1708.5 OFFCURVE",
"332 1688 OFFCURVE",
"332 1666 CURVE SMOOTH",
"332 1644.67 OFFCURVE",
"336.333 1624.67 OFFCURVE",
"345 1606 CURVE SMOOTH",
"353.667 1587.33 OFFCURVE",
"365.167 1571.17 OFFCURVE",
"379.5 1557.5 CURVE SMOOTH",
"393.833 1543.83 OFFCURVE",
"410.5 1533 OFFCURVE",
"429.5 1525 CURVE SMOOTH",
"448.5 1517 OFFCURVE",
"468.667 1513 OFFCURVE",
"490 1513 CURVE SMOOTH",
"512.667 1513 OFFCURVE",
"533.833 1517 OFFCURVE",
"553.5 1525 CURVE SMOOTH",
"573.167 1533 OFFCURVE",
"590.5 1543.83 OFFCURVE",
"605.5 1557.5 CURVE SMOOTH",
"620.5 1571.17 OFFCURVE",
"632.333 1587.33 OFFCURVE",
"641 1606 CURVE SMOOTH",
"649.667 1624.67 OFFCURVE",
"654 1644.67 OFFCURVE",
"654 1666 CURVE SMOOTH"
);
},
{
closed = 1;
nodes = (
"1070 1688 OFFCURVE",
"1065.83 1708.5 OFFCURVE",
"1057.5 1727.5 CURVE SMOOTH",
"1049.17 1746.5 OFFCURVE",
"1037.67 1763.33 OFFCURVE",
"1023 1778 CURVE SMOOTH",
"1008.33 1792.67 OFFCURVE",
"991.167 1804.17 OFFCURVE",
"971.5 1812.5 CURVE SMOOTH",
"951.833 1820.83 OFFCURVE",
"930.667 1825 OFFCURVE",
"908 1825 CURVE SMOOTH",
"886 1825 OFFCURVE",
"865.333 1820.83 OFFCURVE",
"846 1812.5 CURVE SMOOTH",
"826.667 1804.17 OFFCURVE",
"809.667 1792.67 OFFCURVE",
"795 1778 CURVE SMOOTH",
"780.333 1763.33 OFFCURVE",
"768.833 1746.5 OFFCURVE",
"760.5 1727.5 CURVE SMOOTH",
"752.167 1708.5 OFFCURVE",
"748 1688 OFFCURVE",
"748 1666 CURVE SMOOTH",
"748 1644.67 OFFCURVE",
"752.167 1624.67 OFFCURVE",
"760.5 1606 CURVE SMOOTH",
"768.833 1587.33 OFFCURVE",
"780.333 1571.17 OFFCURVE",
"795 1557.5 CURVE SMOOTH",
"809.667 1543.83 OFFCURVE",
"826.667 1533 OFFCURVE",
"846 1525 CURVE SMOOTH",
"865.333 1517 OFFCURVE",
"886 1513 OFFCURVE",
"908 1513 CURVE SMOOTH",
"930.667 1513 OFFCURVE",
"951.833 1517 OFFCURVE",
"971.5 1525 CURVE SMOOTH",
"991.167 1533 OFFCURVE",
"1008.33 1543.83 OFFCURVE",
"1023 1557.5 CURVE SMOOTH",
"1037.67 1571.17 OFFCURVE",
"1049.17 1587.33 OFFCURVE",
"1057.5 1606 CURVE SMOOTH",
"1065.83 1624.67 OFFCURVE",
"1070 1644.67 OFFCURVE",
"1070 1666 CURVE SMOOTH"
);
}
);
width = 1071;
}
);
leftKerningGroup = B;
rightKerningGroup = E;
unicode = 00CB;
},
{
glyphname = Egrave;
layers = (
{
layerId = "421C8255-749A-4570-9FED-EBF43319311F";
name = "Bold Italic";
paths = (
{
closed = 1;
nodes = (
"57 0 LINE"
);
},
{
closed = 1;
nodes = (
"1073 1206 LINE",
"1105 1457 LINE",
"237 1457 LINE",
"57 0 LINE",
"927 0 LINE",
"959 251 LINE",
"416 251 LINE",
"460 612 LINE",
"871 612 LINE",
"903 854 LINE",
"490 854 LINE",
"534 1206 LINE"
);
},
{
closed = 1;
nodes = (
"310 1867 LINE",
"577 1580 LINE SMOOTH",
"583.667 1572.67 OFFCURVE",
"589.833 1567.17 OFFCURVE",
"595.5 1563.5 CURVE SMOOTH",
"601.167 1559.83 OFFCURVE",
"607.333 1557 OFFCURVE",
"614 1555 CURVE SMOOTH",
"620.667 1553 OFFCURVE",
"628 1551.83 OFFCURVE",
"636 1551.5 CURVE SMOOTH",
"644 1551.17 OFFCURVE",
"653.667 1551 OFFCURVE",
"665 1551 CURVE SMOOTH",
"873 1551 LINE",
"711 1821 LINE SMOOTH",
"704.333 1831.67 OFFCURVE",
"697.833 1840 OFFCURVE",
"691.5 1846 CURVE SMOOTH",
"685.167 1852 OFFCURVE",
"678 1856.5 OFFCURVE",
"670 1859.5 CURVE SMOOTH",
"662 1862.5 OFFCURVE",
"652.833 1864.5 OFFCURVE",
"642.5 1865.5 CURVE SMOOTH",
"632.167 1866.5 OFFCURVE",
"620 1867 OFFCURVE",
"606 1867 CURVE SMOOTH"
);
}
);
width = 1071;
}
);
leftKerningGroup = B;
rightKerningGroup = E;
unicode = 00C8;
},
{
glyphname = F;
layers = (
{
layerId = "421C8255-749A-4570-9FED-EBF43319311F";
name = "Bold Italic";
paths = (
{
closed = 1;
nodes = (
"1073 1206 LINE",
"1105 1457 LINE",
"237 1457 LINE",
"57 0 LINE",
"385 0 LINE",
"455 571 LINE",
"903 571 LINE",
"937 822 LINE",
"486 822 LINE",
"534 1206 LINE"
);
}
);
width = 1064;
}
);
leftKerningGroup = B;
rightKerningGroup = F;
unicode = 0046;
},
{
glyphname = G;
layers = (
{
layerId = "421C8255-749A-4570-9FED-EBF43319311F";
name = "Bold Italic";
paths = (
{
closed = 1;
nodes = (
"676.333 235 OFFCURVE",
"632 244.333 OFFCURVE",
"592 263 CURVE SMOOTH",
"552 281.667 OFFCURVE",
"517.667 308.5 OFFCURVE",
"489 343.5 CURVE SMOOTH",
"460.333 378.5 OFFCURVE",
"438.167 421.5 OFFCURVE",
"422.5 472.5 CURVE SMOOTH",
"406.833 523.5 OFFCURVE",
"399 581 OFFCURVE",
"399 645 CURVE SMOOTH",
"399 727.667 OFFCURVE",
"409.5 803.333 OFFCURVE",
"430.5 872 CURVE SMOOTH",
"451.5 940.667 OFFCURVE",
"481 999.5 OFFCURVE",
"519 1048.5 CURVE SMOOTH",
"557 1097.5 OFFCURVE",
"602.333 1135.5 OFFCURVE",
"655 1162.5 CURVE SMOOTH",
"707.667 1189.5 OFFCURVE",
"765.667 1203 OFFCURVE",
"829 1203 CURVE SMOOTH",
"858.333 1203 OFFCURVE",
"884.833 1201.17 OFFCURVE",
"908.5 1197.5 CURVE SMOOTH",
"932.167 1193.83 OFFCURVE",
"954.667 1188.17 OFFCURVE",
"976 1180.5 CURVE SMOOTH",
"997.333 1172.83 OFFCURVE",
"1018.33 1163.17 OFFCURVE",
"1039 1151.5 CURVE SMOOTH",
"1059.67 1139.83 OFFCURVE",
"1081.67 1126 OFFCURVE",
"1105 1110 CURVE",
"1130.33 1094 OFFCURVE",
"1155 1088.5 OFFCURVE",
"1179 1093.5 CURVE SMOOTH",
"1203 1098.5 OFFCURVE",
"1223.67 1112.67 OFFCURVE",
"1241 1136 CURVE",
"1347 1267 LINE",
"1323 1293.67 OFFCURVE",
"1295.33 1319.5 OFFCURVE",
"1264 1344.5 CURVE SMOOTH",
"1232.67 1369.5 OFFCURVE",
"1197 1391.5 OFFCURVE",
"1157 1410.5 CURVE SMOOTH",
"1117 1429.5 OFFCURVE",
"1071.83 1444.67 OFFCURVE",
"1021.5 1456 CURVE SMOOTH",
"971.167 1467.33 OFFCURVE",
"915 1473 OFFCURVE",
"853 1473 CURVE SMOOTH",
"779 1473 OFFCURVE",
"708.333 1463.5 OFFCURVE",
"641 1444.5 CURVE SMOOTH",
"573.667 1425.5 OFFCURVE",
"510.833 1398.33 OFFCURVE",
"452.5 1363 CURVE SMOOTH",
"394.167 1327.67 OFFCURVE",
"341.167 1285 OFFCURVE",
"293.5 1235 CURVE SMOOTH",
"245.833 1185 OFFCURVE",
"205 1129 OFFCURVE",
"171 1067 CURVE SMOOTH",
"137 1005 OFFCURVE",
"110.833 937.5 OFFCURVE",
"92.5001 864.5 CURVE SMOOTH",
"74.1667 791.5 OFFCURVE",
"65 714.667 OFFCURVE",
"65 634 CURVE SMOOTH",
"65 541.334 OFFCURVE",
"79.5001 455.334 OFFCURVE",
"108.5 376 CURVE SMOOTH",
"137.5 296.667 OFFCURVE",
"178.5 228 OFFCURVE",
"231.5 170 CURVE SMOOTH",
"284.5 112 OFFCURVE",
"348.167 66.5003 OFFCURVE",
"422.5 33.5003 CURVE SMOOTH",
"496.833 0.500259 OFFCURVE",
"579 -16 OFFCURVE",
"669 -16 CURVE SMOOTH",
"723.667 -16 OFFCURVE",
"775.167 -13 OFFCURVE",
"823.5 -7 CURVE SMOOTH",
"871.833 -1 OFFCURVE",
"917.833 8.33359 OFFCURVE",
"961.5 21 CURVE SMOOTH",
"1005.17 33.6669 OFFCURVE",
"1047 49.8336 OFFCURVE",
"1087 69.5003 CURVE SMOOTH",
"1127 89.1669 OFFCURVE",
"1165.67 112.667 OFFCURVE",
"1203 140 CURVE",
"1279 749 LINE",
"793 749 LINE",
"771 569 LINE SMOOTH",
"769 552.334 OFFCURVE",
"773.167 538.834 OFFCURVE",
"783.5 528.5 CURVE SMOOTH",
"793.833 518.167 OFFCURVE",
"809 513 OFFCURVE",
"829 513 CURVE SMOOTH",
"953 513 LINE",
"925 275 LINE",
"895.667 262.334 OFFCURVE",
"865 252.5 OFFCURVE",
"833 245.5 CURVE SMOOTH",
"801 238.5 OFFCURVE",
"765 235 OFFCURVE",
"725 235 CURVE SMOOTH"
);
}
);
width = 1350;
}
);
leftKerningGroup = C;
rightKerningGroup = G;
unicode = 0047;
},
{
glyphname = H;
layers = (
{
layerId = "421C8255-749A-4570-9FED-EBF43319311F";
name = "Bold Italic";
paths = (
{
closed = 1;
nodes = (
"1239 0 LINE",
"1419 1457 LINE",
"1091 1457 LINE",
"1015 842 LINE",
"489 842 LINE",
"565 1457 LINE",
"237 1457 LINE",
"57 0 LINE",
"385 0 LINE",
"461 620 LINE",
"987 620 LINE",
"911 0 LINE"
);
}
);
width = 1448;
}
);
leftKerningGroup = B;
rightKerningGroup = H;
unicode = 0048;
},
{
glyphname = I;
layers = (
{
layerId = "421C8255-749A-4570-9FED-EBF43319311F";
name = "Bold Italic";
paths = (
{
closed = 1;
nodes = (
"385 0 LINE",
"563 1457 LINE",
"235 1457 LINE",
"57 0 LINE"
);
}
);
width = 593;
}
);
leftKerningGroup = B;
rightKerningGroup = H;
unicode = 0049;
},
{
glyphname = IJ;
layers = (
{
layerId = "421C8255-749A-4570-9FED-EBF43319311F";
name = "Bold Italic";
paths = (
{
closed = 1;
nodes = (
"57 0 LINE"
);
},
{
closed = 1;
nodes = (
"385 0 LINE",
"563 1457 LINE",
"235 1457 LINE",
"57 0 LINE"
);
},
{
closed = 1;
nodes = (
"1376 1457 LINE",
"1050 1457 LINE",
"936 515 LINE SMOOTH",
"924.667 419 OFFCURVE",
"901.667 349.833 OFFCURVE",
"867 307.5 CURVE SMOOTH",
"832.333 265.167 OFFCURVE",
"788 244 OFFCURVE",
"734 244 CURVE SMOOTH",
"710 244 OFFCURVE",
"688 245.833 OFFCURVE",
"668 249.5 CURVE SMOOTH",
"648 253.167 OFFCURVE",
"630 255 OFFCURVE",
"614 255 CURVE SMOOTH",
"592.667 255 OFFCURVE",
"577.167 249.5 OFFCURVE",
"567.5 238.5 CURVE SMOOTH",
"557.833 227.5 OFFCURVE",
"552 213.667 OFFCURVE",
"550 197 CURVE SMOOTH",
"526 10 LINE",
"562 0.666687 OFFCURVE",
"596.833 -6 OFFCURVE",
"630.5 -10 CURVE SMOOTH",
"664.167 -14 OFFCURVE",
"698.667 -16 OFFCURVE",
"734 -16 CURVE SMOOTH",
"812.667 -16 OFFCURVE",
"882.5 -3 OFFCURVE",
"943.5 22.5 CURVE SMOOTH",
"1004.5 48.1667 OFFCURVE",
"1057 84.6667 OFFCURVE",
"1101 132 CURVE SMOOTH",
"1145 179.333 OFFCURVE",
"1180.33 236 OFFCURVE",
"1207 302 CURVE SMOOTH",
"1233.67 368 OFFCURVE",
"1252 441.667 OFFCURVE",
"1262 523 CURVE SMOOTH"
);
}
);
width = 1394;
}
);
leftKerningGroup = B;
rightKerningGroup = J;
unicode = 0132;
},
{
glyphname = Iacute;
layers = (
{
layerId = "421C8255-749A-4570-9FED-EBF43319311F";
name = "Bold Italic";
paths = (
{
closed = 1;
nodes = (
"57 0 LINE"
);
},
{
closed = 1;
nodes = (
"385 0 LINE",
"563 1457 LINE",
"235 1457 LINE",
"57 0 LINE"
);
},
{
closed = 1;
nodes = (
"884 1867 LINE",
"570 1867 LINE SMOOTH",
"556 1867 OFFCURVE",
"543.667 1866.67 OFFCURVE",
"533 1866 CURVE SMOOTH",
"522.333 1865.33 OFFCURVE",
"512.667 1863.5 OFFCURVE",
"504 1860.5 CURVE SMOOTH",
"495.333 1857.5 OFFCURVE",
"487 1852.83 OFFCURVE",
"479 1846.5 CURVE SMOOTH",
"471 1840.17 OFFCURVE",
"462.667 1831.67 OFFCURVE",
"454 1821 CURVE",
"250 1551 LINE",
"457 1551 LINE SMOOTH",
"467.667 1551 OFFCURVE",
"477.167 1551.33 OFFCURVE",
"485.5 1552 CURVE SMOOTH",
"493.833 1552.67 OFFCURVE",
"501.833 1554 OFFCURVE",
"509.5 1556 CURVE SMOOTH",
"517.167 1558 OFFCURVE",
"524.5 1561 OFFCURVE",
"531.5 1565 CURVE SMOOTH",
"538.5 1569 OFFCURVE",
"546.333 1574.67 OFFCURVE",
"555 1582 CURVE SMOOTH"
);
}
);
width = 593;
}
);
leftKerningGroup = B;
rightKerningGroup = H;
unicode = 00CD;
},
{
glyphname = Idieresis;
layers = (
{
layerId = "421C8255-749A-4570-9FED-EBF43319311F";
name = "Bold Italic";
paths = (
{
closed = 1;
nodes = (
"49 0 LINE"
);
},
{
closed = 1;
nodes = (
"385 0 LINE",
"563 1457 LINE",
"235 1457 LINE",
"57 0 LINE"
);
},
{
closed = 1;
nodes = (
"371 1688 OFFCURVE",
"366.667 1708.5 OFFCURVE",
"358 1727.5 CURVE SMOOTH",
"349.333 1746.5 OFFCURVE",
"337.5 1763.33 OFFCURVE",
"322.5 1778 CURVE SMOOTH",
"307.5 1792.67 OFFCURVE",
"290.167 1804.17 OFFCURVE",
"270.5 1812.5 CURVE SMOOTH",
"250.833 1820.83 OFFCURVE",
"229.667 1825 OFFCURVE",
"207 1825 CURVE SMOOTH",
"185.667 1825 OFFCURVE",
"165.5 1820.83 OFFCURVE",
"146.5 1812.5 CURVE SMOOTH",
"127.5 1804.17 OFFCURVE",
"110.833 1792.67 OFFCURVE",
"96.5 1778 CURVE SMOOTH",
"82.1667 1763.33 OFFCURVE",
"70.6667 1746.5 OFFCURVE",
"62 1727.5 CURVE SMOOTH",
"53.3333 1708.5 OFFCURVE",
"49 1688 OFFCURVE",
"49 1666 CURVE SMOOTH",
"49 1644.67 OFFCURVE",
"53.3333 1624.67 OFFCURVE",
"62 1606 CURVE SMOOTH",
"70.6667 1587.33 OFFCURVE",
"82.1667 1571.17 OFFCURVE",
"96.5 1557.5 CURVE SMOOTH",
"110.833 1543.83 OFFCURVE",
"127.5 1533 OFFCURVE",
"146.5 1525 CURVE SMOOTH",
"165.5 1517 OFFCURVE",
"185.667 1513 OFFCURVE",
"207 1513 CURVE SMOOTH",
"229.667 1513 OFFCURVE",
"250.833 1517 OFFCURVE",
"270.5 1525 CURVE SMOOTH",
"290.167 1533 OFFCURVE",
"307.5 1543.83 OFFCURVE",
"322.5 1557.5 CURVE SMOOTH",
"337.5 1571.17 OFFCURVE",
"349.333 1587.33 OFFCURVE",
"358 1606 CURVE SMOOTH",
"366.667 1624.67 OFFCURVE",
"371 1644.67 OFFCURVE",
"371 1666 CURVE SMOOTH"
);
},
{
closed = 1;
nodes = (
"787 1688 OFFCURVE",
"782.833 1708.5 OFFCURVE",
"774.5 1727.5 CURVE SMOOTH",
"766.167 1746.5 OFFCURVE",
"754.667 1763.33 OFFCURVE",
"740 1778 CURVE SMOOTH",
"725.333 1792.67 OFFCURVE",
"708.167 1804.17 OFFCURVE",
"688.5 1812.5 CURVE SMOOTH",
"668.833 1820.83 OFFCURVE",
"647.667 1825 OFFCURVE",
"625 1825 CURVE SMOOTH",
"603 1825 OFFCURVE",
"582.333 1820.83 OFFCURVE",
"563 1812.5 CURVE SMOOTH",
"543.667 1804.17 OFFCURVE",
"526.667 1792.67 OFFCURVE",
"512 1778 CURVE SMOOTH",
"497.333 1763.33 OFFCURVE",
"485.833 1746.5 OFFCURVE",
"477.5 1727.5 CURVE SMOOTH",
"469.167 1708.5 OFFCURVE",
"465 1688 OFFCURVE",
"465 1666 CURVE SMOOTH",
"465 1644.67 OFFCURVE",
"469.167 1624.67 OFFCURVE",
"477.5 1606 CURVE SMOOTH",
"485.833 1587.33 OFFCURVE",
"497.333 1571.17 OFFCURVE",
"512 1557.5 CURVE SMOOTH",
"526.667 1543.83 OFFCURVE",
"543.667 1533 OFFCURVE",
"563 1525 CURVE SMOOTH",
"582.333 1517 OFFCURVE",
"603 1513 OFFCURVE",
"625 1513 CURVE SMOOTH",
"647.667 1513 OFFCURVE",
"668.833 1517 OFFCURVE",
"688.5 1525 CURVE SMOOTH",
"708.167 1533 OFFCURVE",
"725.333 1543.83 OFFCURVE",
"740 1557.5 CURVE SMOOTH",
"754.667 1571.17 OFFCURVE",
"766.167 1587.33 OFFCURVE",
"774.5 1606 CURVE SMOOTH",
"782.833 1624.67 OFFCURVE",
"787 1644.67 OFFCURVE",
"787 1666 CURVE SMOOTH"
);
}
);
width = 593;
}
);
leftKerningGroup = B;
rightKerningGroup = H;
unicode = 00CF;
},
{
glyphname = Igrave;
layers = (
{
layerId = "421C8255-749A-4570-9FED-EBF43319311F";
name = "Bold Italic";
paths = (
{
closed = 1;
nodes = (
"0 0 LINE"
);
},
{
closed = 1;
nodes = (
"385 0 LINE",
"563 1457 LINE",
"235 1457 LINE",
"57 0 LINE"
);
},
{
closed = 1;
nodes = (
"-7 1867 LINE",
"260 1580 LINE SMOOTH",
"266.667 1572.67 OFFCURVE",
"272.833 1567.17 OFFCURVE",
"278.5 1563.5 CURVE SMOOTH",
"284.167 1559.83 OFFCURVE",
"290.333 1557 OFFCURVE",
"297 1555 CURVE SMOOTH",
"303.667 1553 OFFCURVE",
"311 1551.83 OFFCURVE",
"319 1551.5 CURVE SMOOTH",
"327 1551.17 OFFCURVE",
"336.667 1551 OFFCURVE",
"348 1551 CURVE SMOOTH",
"556 1551 LINE",
"394 1821 LINE SMOOTH",
"387.333 1831.67 OFFCURVE",
"380.833 1840 OFFCURVE",
"374.5 1846 CURVE SMOOTH",
"368.167 1852 OFFCURVE",
"361 1856.5 OFFCURVE",
"353 1859.5 CURVE SMOOTH",
"345 1862.5 OFFCURVE",
"335.833 1864.5 OFFCURVE",
"325.5 1865.5 CURVE SMOOTH",
"315.167 1866.5 OFFCURVE",
"303 1867 OFFCURVE",
"289 1867 CURVE SMOOTH"
);
}
);
width = 593;
}
);
leftKerningGroup = B;
rightKerningGroup = H;
unicode = 00CC;
},
{
glyphname = J;
layers = (
{
layerId = "421C8255-749A-4570-9FED-EBF43319311F";
name = "Bold Italic";
paths = (
{
closed = 1;
nodes = (
"815 1457 LINE",
"489 1457 LINE",
"375 515 LINE SMOOTH",
"363.667 419 OFFCURVE",
"340.667 349.833 OFFCURVE",
"306 307.5 CURVE SMOOTH",
"271.333 265.167 OFFCURVE",
"227 244 OFFCURVE",
"173 244 CURVE SMOOTH",
"149 244 OFFCURVE",
"127 245.833 OFFCURVE",
"107 249.5 CURVE SMOOTH",
"87 253.167 OFFCURVE",
"69 255 OFFCURVE",
"53 255 CURVE SMOOTH",
"31.6667 255 OFFCURVE",
"16.1667 249.5 OFFCURVE",
"6.49998 238.5 CURVE SMOOTH",
"-3 227.5 OFFCURVE",
"-9 213.667 OFFCURVE",
"-11 197 CURVE SMOOTH",
"-35 10 LINE",
"0.999985 0.666687 OFFCURVE",
"35.8333 -6 OFFCURVE",
"69.5 -10 CURVE SMOOTH",
"103.167 -14 OFFCURVE",
"137.667 -16 OFFCURVE",
"173 -16 CURVE SMOOTH",
"251.667 -16 OFFCURVE",
"321.5 -3 OFFCURVE",
"382.5 22.5 CURVE SMOOTH",
"443.5 48.1667 OFFCURVE",
"496 84.6667 OFFCURVE",
"540 132 CURVE SMOOTH",
"584 179.333 OFFCURVE",
"619.333 236 OFFCURVE",
"646 302 CURVE SMOOTH",
"672.667 368 OFFCURVE",
"691 441.667 OFFCURVE",
"701 523 CURVE SMOOTH"
);
}
);
width = 833;
}
);
leftKerningGroup = J;
rightKerningGroup = J;
unicode = 004A;
},
{
glyphname = K;
layers = (
{
layerId = "421C8255-749A-4570-9FED-EBF43319311F";
name = "Bold Italic";
paths = (
{
closed = 1;
nodes = (
"487 861 LINE",
"561 1457 LINE",
"235 1457 LINE",
"57 0 LINE",
"381 0 LINE",
"458 624 LINE",
"533 624 LINE SMOOTH",
"561 624 OFFCURVE",
"583.333 620.167 OFFCURVE",
"600 612.5 CURVE SMOOTH",
"616.667 604.833 OFFCURVE",
"629 591.333 OFFCURVE",
"637 572 CURVE SMOOTH",
"863 60 LINE",
"867.667 50.6667 OFFCURVE",
"873 42.3333 OFFCURVE",
"879 35 CURVE SMOOTH",
"885 27.6667 OFFCURVE",
"892.5 21.3333 OFFCURVE",
"901.5 16 CURVE SMOOTH",
"910.5 10.6667 OFFCURVE",
"921.333 6.66667 OFFCURVE",
"934 4 CURVE SMOOTH",
"946.667 1.33333 OFFCURVE",
"962.333 0 OFFCURVE",
"981 0 CURVE SMOOTH",
"1271 0 LINE",
"963 676 LINE SMOOTH",
"950.333 702 OFFCURVE",
"935.5 723 OFFCURVE",
"918.5 739 CURVE SMOOTH",
"901.5 755 OFFCURVE",
"881.667 767.667 OFFCURVE",
"859 777 CURVE",
"894.333 795 OFFCURVE",
"927.667 823.333 OFFCURVE",
"959 862 CURVE SMOOTH",
"1417 1457 LINE",
"1135 1457 LINE SMOOTH",
"1103 1457 OFFCURVE",
"1075.17 1452.5 OFFCURVE",
"1051.5 1443.5 CURVE SMOOTH",
"1027.83 1434.5 OFFCURVE",
"1006.33 1417.33 OFFCURVE",
"987 1392 CURVE SMOOTH",
"641 909 LINE SMOOTH",
"617 877 OFFCURVE",
"581.667 861 OFFCURVE",
"535 861 CURVE SMOOTH"
);
}
);
width = 1326;
}
);
leftKerningGroup = B;
rightKerningGroup = K;
unicode = 004B;
},
{
glyphname = L;
layers = (
{
layerId = "421C8255-749A-4570-9FED-EBF43319311F";
name = "Bold Italic";
paths = (
{
closed = 1;
nodes = (
"415 260 LINE",
"563 1457 LINE",
"237 1457 LINE",
"57 0 LINE",
"873 0 LINE",
"905 260 LINE"
);
}
);
width = 979;
}
);
leftKerningGroup = B;
rightKerningGroup = L;
unicode = 004C;
},
{
glyphname = M;
layers = (
{
layerId = "421C8255-749A-4570-9FED-EBF43319311F";
name = "Bold Italic";
paths = (
{
closed = 1;
nodes = (
"843 640 LINE",
"587 1407 LINE",
"579.667 1417.67 OFFCURVE",
"572.833 1426.33 OFFCURVE",
"566.5 1433 CURVE SMOOTH",
"560.167 1439.67 OFFCURVE",
"553.333 1444.67 OFFCURVE",
"546 1448 CURVE SMOOTH",
"538.667 1451.33 OFFCURVE",
"530.167 1453.67 OFFCURVE",
"520.5 1455 CURVE SMOOTH",
"510.833 1456.33 OFFCURVE",
"499 1457 OFFCURVE",
"485 1457 CURVE SMOOTH",
"237 1457 LINE",
"57 0 LINE",
"345 0 LINE",
"445 853 LINE SMOOTH",
"447 870.333 OFFCURVE",
"448.5 889.667 OFFCURVE",
"449.5 911 CURVE SMOOTH",
"450.5 932.333 OFFCURVE",
"451.667 954.333 OFFCURVE",
"453 977 CURVE",
"709 223 LINE SMOOTH",
"717 201 OFFCURVE",
"730.333 184.333 OFFCURVE",
"749 173 CURVE SMOOTH",
"767.667 161.667 OFFCURVE",
"789.667 156 OFFCURVE",
"815 156 CURVE SMOOTH",
"859 156 LINE SMOOTH",
"884.333 156 OFFCURVE",
"907.5 161.667 OFFCURVE",
"928.5 173 CURVE SMOOTH",
"949.5 184.333 OFFCURVE",
"967 201 OFFCURVE",
"981 223 CURVE",
"1419 975 LINE",
"1413.67 951.667 OFFCURVE",
"1409 929.167 OFFCURVE",
"1405 907.5 CURVE SMOOTH",
"1401 885.833 OFFCURVE",
"1397.67 866 OFFCURVE",
"1395 848 CURVE SMOOTH",
"1293 -6 LINE",
"1579 -6 LINE",
"1759 1457 LINE",
"1509 1457 LINE SMOOTH",
"1495 1457 OFFCURVE",
"1483 1456.33 OFFCURVE",
"1473 1455 CURVE SMOOTH",
"1463 1453.67 OFFCURVE",
"1454 1451.33 OFFCURVE",
"1446 1448 CURVE SMOOTH",
"1438 1444.67 OFFCURVE",
"1430 1439.67 OFFCURVE",
"1422 1433 CURVE SMOOTH",
"1414 1426.33 OFFCURVE",
"1405 1417.67 OFFCURVE",
"1395 1407 CURVE",
"949 640 LINE SMOOTH",
"935.667 618.667 OFFCURVE",
"923.333 597.333 OFFCURVE",
"912 576 CURVE SMOOTH",
"900.667 554.667 OFFCURVE",
"889.667 533 OFFCURVE",
"879 511 CURVE",
"869 555 OFFCURVE",
"857 598 OFFCURVE",
"843 640 CURVE"
);
}
);
width = 1788;
}
);
leftKerningGroup = B;
rightKerningGroup = H;
unicode = 004D;
},
{
glyphname = N;
lastChange = "2014-08-21 05:05:30 -0500";
layers = (
{
layerId = "421C8255-749A-4570-9FED-EBF43319311F";
name = "Bold Italic";
paths = (
{
closed = 1;
nodes = (
"409 1457 LINE",
"237 1457 LINE",
"57 0 LINE",
"345 0 LINE",
"445 850 LINE SMOOTH",
"446.333 865.333 OFFCURVE",
"447.833 881.667 OFFCURVE",
"449.5 899 CURVE SMOOTH",
"451.167 916.333 OFFCURVE",
"452.667 934.333 OFFCURVE",
"454 953 CURVE",
"963 53.9999 LINE",
"977 34.6666 OFFCURVE",
"991.833 20.8333 OFFCURVE",
"1007.5 12.4999 CURVE SMOOTH",
"1023.17 4.16661 OFFCURVE",
"1024 0 OFFCURVE",
"1064 0 CURVE",
"1239 -6 LINE",
"1419 1457 LINE",
"1131 1457 LINE",
"1033 634 LINE SMOOTH",
"1030.33 615.333 OFFCURVE",
"1027.83 595.333 OFFCURVE",
"1025.5 574 CURVE SMOOTH",
"1023.17 552.667 OFFCURVE",
"1021.33 530.333 OFFCURVE",
"1020 507 CURVE",
"509 1407 LINE",
"502.333 1417.67 OFFCURVE",
"496 1426.33 OFFCURVE",
"490 1433 CURVE SMOOTH",
"484 1439.67 OFFCURVE",
"477.333 1444.83 OFFCURVE",
"470 1448.5 CURVE SMOOTH",
"462.667 1452.17 OFFCURVE",
"454.167 1454.5 OFFCURVE",
"444.5 1455.5 CURVE SMOOTH",
"434.833 1456.5 OFFCURVE",
"423 1457 OFFCURVE",
"409 1457 CURVE SMOOTH"
);
}
);
width = 1448;
}
);
leftKerningGroup = B;
rightKerningGroup = H;
unicode = 004E;
},
{
glyphname = Ntilde;
lastChange = "2014-08-21 05:05:52 -0500";
layers = (
{
layerId = "421C8255-749A-4570-9FED-EBF43319311F";
name = "Bold Italic";
paths = (
{
closed = 1;
nodes = (
"948 1729 OFFCURVE",
"933 1734 OFFCURVE",
"919 1744 CURVE SMOOTH",
"905 1754 OFFCURVE",
"889.333 1765.17 OFFCURVE",
"872 1777.5 CURVE SMOOTH",
"854.667 1789.83 OFFCURVE",
"834.333 1801 OFFCURVE",
"811 1811 CURVE SMOOTH",
"787.667 1821 OFFCURVE",
"758.667 1826 OFFCURVE",
"724 1826 CURVE SMOOTH",
"690 1826 OFFCURVE",
"659 1818 OFFCURVE",
"631 1802 CURVE SMOOTH",
"603 1786 OFFCURVE",
"578.5 1764.67 OFFCURVE",
"557.5 1738 CURVE SMOOTH",
"536.5 1711.33 OFFCURVE",
"519.333 1681 OFFCURVE",
"506 1647 CURVE SMOOTH",
"492.667 1613 OFFCURVE",
"484 1577.67 OFFCURVE",
"480 1541 CURVE",
"655 1541 LINE",
"655.667 1550.33 OFFCURVE",
"657.833 1560.33 OFFCURVE",
"661.5 1571 CURVE SMOOTH",
"665.167 1581.67 OFFCURVE",
"670.333 1591.5 OFFCURVE",
"677 1600.5 CURVE SMOOTH",
"683.667 1609.5 OFFCURVE",
"692 1617 OFFCURVE",
"702 1623 CURVE SMOOTH",
"712 1629 OFFCURVE",
"723.667 1632 OFFCURVE",
"737 1632 CURVE SMOOTH",
"753 1632 OFFCURVE",
"768 1627 OFFCURVE",
"782 1617 CURVE SMOOTH",
"796 1607 OFFCURVE",
"811.833 1595.83 OFFCURVE",
"829.5 1583.5 CURVE SMOOTH",
"847.167 1571.17 OFFCURVE",
"867.5 1560 OFFCURVE",
"890.5 1550 CURVE SMOOTH",
"913.5 1540 OFFCURVE",
"942 1535 OFFCURVE",
"976 1535 CURVE SMOOTH",
"1010.67 1535 OFFCURVE",
"1042 1542.83 OFFCURVE",
"1070 1558.5 CURVE SMOOTH",
"1098 1574.17 OFFCURVE",
"1122.5 1595.17 OFFCURVE",
"1143.5 1621.5 CURVE SMOOTH",
"1164.5 1647.83 OFFCURVE",
"1181.5 1678 OFFCURVE",
"1194.5 1712 CURVE SMOOTH",
"1207.5 1746 OFFCURVE",
"1216 1781.33 OFFCURVE",
"1220 1818 CURVE",
"1047 1818 LINE",
"1045.67 1808.67 OFFCURVE",
"1043.17 1798.83 OFFCURVE",
"1039.5 1788.5 CURVE SMOOTH",
"1035.83 1778.17 OFFCURVE",
"1030.67 1768.5 OFFCURVE",
"1024 1759.5 CURVE SMOOTH",
"1017.33 1750.5 OFFCURVE",
"1009 1743.17 OFFCURVE",
"999 1737.5 CURVE SMOOTH",
"989 1731.83 OFFCURVE",
"977.334 1729 OFFCURVE",
"964 1729 CURVE SMOOTH"
);
},
{
closed = 1;
nodes = (
"409 1457 LINE",
"237 1457 LINE",
"57 0 LINE",
"345 0 LINE",
"445 850 LINE SMOOTH",
"446.333 865.333 OFFCURVE",
"447.833 881.667 OFFCURVE",
"449.5 899 CURVE SMOOTH",
"451.167 916.333 OFFCURVE",
"452.667 934.333 OFFCURVE",
"454 953 CURVE",
"963 54 LINE",
"977 34.667 OFFCURVE",
"991.833 20.833 OFFCURVE",
"1007.5 12.5 CURVE SMOOTH",
"1023.17 4.167 OFFCURVE",
"1024 0 OFFCURVE",
"1064 0 CURVE",
"1239 -6 LINE",
"1419 1457 LINE",
"1131 1457 LINE",
"1033 634 LINE SMOOTH",
"1030.33 615.333 OFFCURVE",
"1027.83 595.333 OFFCURVE",
"1025.5 574 CURVE SMOOTH",
"1023.17 552.667 OFFCURVE",
"1021.33 530.333 OFFCURVE",
"1020 507 CURVE",
"509 1407 LINE",
"502.333 1417.67 OFFCURVE",
"496 1426.33 OFFCURVE",
"490 1433 CURVE SMOOTH",
"484 1439.67 OFFCURVE",
"477.333 1444.83 OFFCURVE",
"470 1448.5 CURVE SMOOTH",
"462.667 1452.17 OFFCURVE",
"454.167 1454.5 OFFCURVE",
"444.5 1455.5 CURVE SMOOTH",
"434.833 1456.5 OFFCURVE",
"423 1457 OFFCURVE",
"409 1457 CURVE SMOOTH"
);
}
);
width = 1448;
}
);
leftKerningGroup = B;
rightKerningGroup = H;
unicode = 00D1;
},
{
glyphname = O;
layers = (
{
layerId = "421C8255-749A-4570-9FED-EBF43319311F";
name = "Bold Italic";
paths = (
{
closed = 1;
nodes = (
"1483 912.667 OFFCURVE",
"1468.83 997.667 OFFCURVE",
"1440.5 1077 CURVE SMOOTH",
"1412.17 1156.33 OFFCURVE",
"1371.5 1225.33 OFFCURVE",
"1318.5 1284 CURVE SMOOTH",
"1265.5 1342.67 OFFCURVE",
"1200.83 1388.83 OFFCURVE",
"1124.5 1422.5 CURVE SMOOTH",
"1048.17 1456.17 OFFCURVE",
"962.333 1473 OFFCURVE",
"867 1473 CURVE SMOOTH",
"789.667 1473 OFFCURVE",
"716.333 1463.17 OFFCURVE",
"647 1443.5 CURVE SMOOTH",
"577.667 1423.83 OFFCURVE",
"513.333 1396.17 OFFCURVE",
"454 1360.5 CURVE SMOOTH",
"394.667 1324.83 OFFCURVE",
"341 1281.67 OFFCURVE",
"293 1231 CURVE SMOOTH",
"245 1180.33 OFFCURVE",
"204.167 1124 OFFCURVE",
"170.5 1062 CURVE SMOOTH",
"136.833 1000 OFFCURVE",
"110.833 932.833 OFFCURVE",
"92.4999 860.5 CURVE SMOOTH",
"74.1666 788.167 OFFCURVE",
"64.9999 712.667 OFFCURVE",
"64.9999 634 CURVE SMOOTH",
"64.9999 542.667 OFFCURVE",
"79.1666 457.5 OFFCURVE",
"107.5 378.5 CURVE SMOOTH",
"135.833 299.5 OFFCURVE",
"176.667 230.833 OFFCURVE",
"230 172.5 CURVE SMOOTH",
"283.333 114.167 OFFCURVE",
"348.167 68.1668 OFFCURVE",
"424.5 34.5001 CURVE SMOOTH",
"500.833 0.83345 OFFCURVE",
"587 -16 OFFCURVE",
"683 -16 CURVE SMOOTH",
"759.667 -16 OFFCURVE",
"832.667 -6 OFFCURVE",
"902 13.5001 CURVE SMOOTH",
"971.333 33.1668 OFFCURVE",
"1035.67 60.8335 OFFCURVE",
"1095 96.5001 CURVE SMOOTH",
"1154.33 132.167 OFFCURVE",
"1207.83 175.333 OFFCURVE",
"1255.5 226 CURVE SMOOTH",
"1303.17 276.667 OFFCURVE",
"1343.83 333 OFFCURVE",
"1377.5 395 CURVE SMOOTH",
"1411.17 457 OFFCURVE",
"1437.17 524 OFFCURVE",
"1455.5 596 CURVE SMOOTH",
"1473.83 668 OFFCURVE",
"1483 743.333 OFFCURVE",
"1483 822 CURVE SMOOTH"
);
},
{
closed = 1;
nodes = (
"1149 728.667 OFFCURVE",
"1139 651 OFFCURVE",
"1119 581 CURVE SMOOTH",
"1099 511 OFFCURVE",
"1070.5 451 OFFCURVE",
"1033.5 401 CURVE SMOOTH",
"996.5 351 OFFCURVE",
"951.5 312.333 OFFCURVE",
"898.5 285 CURVE SMOOTH",
"845.5 257.667 OFFCURVE",
"785.667 244 OFFCURVE",
"719 244 CURVE SMOOTH",
"667.667 244 OFFCURVE",
"622 253.5 OFFCURVE",
"582 272.5 CURVE SMOOTH",
"542 291.5 OFFCURVE",
"508.5 318.333 OFFCURVE",
"481.5 353 CURVE SMOOTH",
"454.5 387.667 OFFCURVE",
"434 429.333 OFFCURVE",
"420 478 CURVE SMOOTH",
"406 526.667 OFFCURVE",
"399 581 OFFCURVE",
"399 641 CURVE SMOOTH",
"399 726.333 OFFCURVE",
"408.833 804.167 OFFCURVE",
"428.5 874.5 CURVE SMOOTH",
"448.167 944.833 OFFCURVE",
"476.5 1005 OFFCURVE",
"513.5 1055 CURVE SMOOTH",
"550.5 1105 OFFCURVE",
"595.333 1143.83 OFFCURVE",
"648 1171.5 CURVE SMOOTH",
"700.667 1199.17 OFFCURVE",
"760.333 1213 OFFCURVE",
"827 1213 CURVE SMOOTH",
"877.667 1213 OFFCURVE",
"923 1203.5 OFFCURVE",
"963 1184.5 CURVE SMOOTH",
"1003 1165.5 OFFCURVE",
"1036.83 1138.5 OFFCURVE",
"1064.5 1103.5 CURVE SMOOTH",
"1092.17 1068.5 OFFCURVE",
"1113.17 1026.5 OFFCURVE",
"1127.5 977.5 CURVE SMOOTH",
"1141.83 928.5 OFFCURVE",
"1149 874 OFFCURVE",
"1149 814 CURVE SMOOTH"
);
}
);
width = 1520;
}
);
leftKerningGroup = C;
rightKerningGroup = O;
unicode = 004F;
},
{
glyphname = Oacute;
layers = (
{
layerId = "421C8255-749A-4570-9FED-EBF43319311F";
name = "Bold Italic";
paths = (
{
closed = 1;
nodes = (
"65 0 LINE"
);
},
{
closed = 1;
nodes = (
"1483 912.667 OFFCURVE",
"1468.83 997.667 OFFCURVE",
"1440.5 1077 CURVE SMOOTH",
"1412.17 1156.33 OFFCURVE",
"1371.5 1225.33 OFFCURVE",
"1318.5 1284 CURVE SMOOTH",
"1265.5 1342.67 OFFCURVE",
"1200.83 1388.83 OFFCURVE",
"1124.5 1422.5 CURVE SMOOTH",
"1048.17 1456.17 OFFCURVE",
"962.333 1473 OFFCURVE",
"867 1473 CURVE SMOOTH",
"789.667 1473 OFFCURVE",
"716.333 1463.17 OFFCURVE",
"647 1443.5 CURVE SMOOTH",
"577.667 1423.83 OFFCURVE",
"513.333 1396.17 OFFCURVE",
"454 1360.5 CURVE SMOOTH",
"394.667 1324.83 OFFCURVE",
"341 1281.67 OFFCURVE",
"293 1231 CURVE SMOOTH",
"245 1180.33 OFFCURVE",
"204.167 1124 OFFCURVE",
"170.5 1062 CURVE SMOOTH",
"136.833 1000 OFFCURVE",
"110.833 932.833 OFFCURVE",
"92.4999 860.5 CURVE SMOOTH",
"74.1666 788.167 OFFCURVE",
"64.9999 712.667 OFFCURVE",
"64.9999 634 CURVE SMOOTH",
"64.9999 542.667 OFFCURVE",
"79.1666 457.5 OFFCURVE",
"107.5 378.5 CURVE SMOOTH",
"135.833 299.5 OFFCURVE",
"176.667 230.833 OFFCURVE",
"230 172.5 CURVE SMOOTH",
"283.333 114.167 OFFCURVE",
"348.167 68.1668 OFFCURVE",
"424.5 34.5001 CURVE SMOOTH",
"500.833 0.83345 OFFCURVE",
"587 -16 OFFCURVE",
"683 -16 CURVE SMOOTH",
"759.667 -16 OFFCURVE",
"832.667 -6 OFFCURVE",
"902 13.5001 CURVE SMOOTH",
"971.333 33.1668 OFFCURVE",
"1035.67 60.8335 OFFCURVE",
"1095 96.5001 CURVE SMOOTH",
"1154.33 132.167 OFFCURVE",
"1207.83 175.333 OFFCURVE",
"1255.5 226 CURVE SMOOTH",
"1303.17 276.667 OFFCURVE",
"1343.83 333 OFFCURVE",
"1377.5 395 CURVE SMOOTH",
"1411.17 457 OFFCURVE",
"1437.17 524 OFFCURVE",
"1455.5 596 CURVE SMOOTH",
"1473.83 668 OFFCURVE",
"1483 743.333 OFFCURVE",
"1483 822 CURVE SMOOTH"
);
},
{
closed = 1;
nodes = (
"1149 728.667 OFFCURVE",
"1139 651 OFFCURVE",
"1119 581 CURVE SMOOTH",
"1099 511 OFFCURVE",
"1070.5 451 OFFCURVE",
"1033.5 401 CURVE SMOOTH",
"996.5 351 OFFCURVE",
"951.5 312.333 OFFCURVE",
"898.5 285 CURVE SMOOTH",
"845.5 257.667 OFFCURVE",
"785.667 244 OFFCURVE",
"719 244 CURVE SMOOTH",
"667.667 244 OFFCURVE",
"622 253.5 OFFCURVE",
"582 272.5 CURVE SMOOTH",
"542 291.5 OFFCURVE",
"508.5 318.333 OFFCURVE",
"481.5 353 CURVE SMOOTH",
"454.5 387.667 OFFCURVE",
"434 429.333 OFFCURVE",
"420 478 CURVE SMOOTH",
"406 526.667 OFFCURVE",
"399 581 OFFCURVE",
"399 641 CURVE SMOOTH",
"399 726.333 OFFCURVE",
"408.833 804.167 OFFCURVE",
"428.5 874.5 CURVE SMOOTH",
"448.167 944.833 OFFCURVE",
"476.5 1005 OFFCURVE",
"513.5 1055 CURVE SMOOTH",
"550.5 1105 OFFCURVE",
"595.333 1143.83 OFFCURVE",
"648 1171.5 CURVE SMOOTH",
"700.667 1199.17 OFFCURVE",
"760.333 1213 OFFCURVE",
"827 1213 CURVE SMOOTH",
"877.667 1213 OFFCURVE",
"923 1203.5 OFFCURVE",
"963 1184.5 CURVE SMOOTH",
"1003 1165.5 OFFCURVE",
"1036.83 1138.5 OFFCURVE",
"1064.5 1103.5 CURVE SMOOTH",
"1092.17 1068.5 OFFCURVE",
"1113.17 1026.5 OFFCURVE",
"1127.5 977.5 CURVE SMOOTH",
"1141.83 928.5 OFFCURVE",
"1149 874 OFFCURVE",
"1149 814 CURVE SMOOTH"
);
},
{
closed = 1;
nodes = (
"1350 1867 LINE",
"1036 1867 LINE SMOOTH",
"1022 1867 OFFCURVE",
"1009.67 1866.67 OFFCURVE",
"999 1866 CURVE SMOOTH",
"988.333 1865.33 OFFCURVE",
"978.667 1863.5 OFFCURVE",
"970 1860.5 CURVE SMOOTH",
"961.333 1857.5 OFFCURVE",
"953 1852.83 OFFCURVE",
"945 1846.5 CURVE SMOOTH",
"937 1840.17 OFFCURVE",
"928.667 1831.67 OFFCURVE",
"920 1821 CURVE",
"716 1551 LINE",
"923 1551 LINE SMOOTH",
"933.667 1551 OFFCURVE",
"943.167 1551.33 OFFCURVE",
"951.5 1552 CURVE SMOOTH",
"959.833 1552.67 OFFCURVE",
"967.833 1554 OFFCURVE",
"975.5 1556 CURVE SMOOTH",
"983.167 1558 OFFCURVE",
"990.5 1561 OFFCURVE",
"997.5 1565 CURVE SMOOTH",
"1004.5 1569 OFFCURVE",
"1012.33 1574.67 OFFCURVE",
"1021 1582 CURVE SMOOTH"
);
}
);
width = 1520;
}
);
leftKerningGroup = C;
rightKerningGroup = O;
unicode = 00D3;
},
{
glyphname = Ocircumflex;
layers = (
{
layerId = "421C8255-749A-4570-9FED-EBF43319311F";
name = "Bold Italic";
paths = (
{
closed = 1;
nodes = (
"65 0 LINE"
);
},
{
closed = 1;
nodes = (
"1483 912.667 OFFCURVE",
"1468.83 997.667 OFFCURVE",
"1440.5 1077 CURVE SMOOTH",
"1412.17 1156.33 OFFCURVE",
"1371.5 1225.33 OFFCURVE",
"1318.5 1284 CURVE SMOOTH",
"1265.5 1342.67 OFFCURVE",
"1200.83 1388.83 OFFCURVE",
"1124.5 1422.5 CURVE SMOOTH",
"1048.17 1456.17 OFFCURVE",
"962.333 1473 OFFCURVE",
"867 1473 CURVE SMOOTH",
"789.667 1473 OFFCURVE",
"716.333 1463.17 OFFCURVE",
"647 1443.5 CURVE SMOOTH",
"577.667 1423.83 OFFCURVE",
"513.333 1396.17 OFFCURVE",
"454 1360.5 CURVE SMOOTH",
"394.667 1324.83 OFFCURVE",
"341 1281.67 OFFCURVE",
"293 1231 CURVE SMOOTH",
"245 1180.33 OFFCURVE",
"204.167 1124 OFFCURVE",
"170.5 1062 CURVE SMOOTH",
"136.833 1000 OFFCURVE",
"110.833 932.833 OFFCURVE",
"92.4999 860.5 CURVE SMOOTH",
"74.1666 788.167 OFFCURVE",
"64.9999 712.667 OFFCURVE",
"64.9999 634 CURVE SMOOTH",
"64.9999 542.667 OFFCURVE",
"79.1666 457.5 OFFCURVE",
"107.5 378.5 CURVE SMOOTH",
"135.833 299.5 OFFCURVE",
"176.667 230.833 OFFCURVE",
"230 172.5 CURVE SMOOTH",
"283.333 114.167 OFFCURVE",
"348.167 68.1668 OFFCURVE",
"424.5 34.5001 CURVE SMOOTH",
"500.833 0.83345 OFFCURVE",
"587 -16 OFFCURVE",
"683 -16 CURVE SMOOTH",
"759.667 -16 OFFCURVE",
"832.667 -6 OFFCURVE",
"902 13.5001 CURVE SMOOTH",
"971.333 33.1668 OFFCURVE",
"1035.67 60.8335 OFFCURVE",
"1095 96.5001 CURVE SMOOTH",
"1154.33 132.167 OFFCURVE",
"1207.83 175.333 OFFCURVE",
"1255.5 226 CURVE SMOOTH",
"1303.17 276.667 OFFCURVE",
"1343.83 333 OFFCURVE",
"1377.5 395 CURVE SMOOTH",
"1411.17 457 OFFCURVE",
"1437.17 524 OFFCURVE",
"1455.5 596 CURVE SMOOTH",
"1473.83 668 OFFCURVE",
"1483 743.333 OFFCURVE",
"1483 822 CURVE SMOOTH"
);
},
{
closed = 1;
nodes = (
"1149 728.667 OFFCURVE",
"1139 651 OFFCURVE",
"1119 581 CURVE SMOOTH",
"1099 511 OFFCURVE",
"1070.5 451 OFFCURVE",
"1033.5 401 CURVE SMOOTH",
"996.5 351 OFFCURVE",
"951.5 312.333 OFFCURVE",
"898.5 285 CURVE SMOOTH",
"845.5 257.667 OFFCURVE",
"785.667 244 OFFCURVE",
"719 244 CURVE SMOOTH",
"667.667 244 OFFCURVE",
"622 253.5 OFFCURVE",
"582 272.5 CURVE SMOOTH",
"542 291.5 OFFCURVE",
"508.5 318.333 OFFCURVE",
"481.5 353 CURVE SMOOTH",
"454.5 387.667 OFFCURVE",
"434 429.333 OFFCURVE",
"420 478 CURVE SMOOTH",
"406 526.667 OFFCURVE",
"399 581 OFFCURVE",
"399 641 CURVE SMOOTH",
"399 726.333 OFFCURVE",
"408.833 804.167 OFFCURVE",
"428.5 874.5 CURVE SMOOTH",
"448.167 944.833 OFFCURVE",
"476.5 1005 OFFCURVE",
"513.5 1055 CURVE SMOOTH",
"550.5 1105 OFFCURVE",
"595.333 1143.83 OFFCURVE",
"648 1171.5 CURVE SMOOTH",
"700.667 1199.17 OFFCURVE",
"760.333 1213 OFFCURVE",
"827 1213 CURVE SMOOTH",
"877.667 1213 OFFCURVE",
"923 1203.5 OFFCURVE",
"963 1184.5 CURVE SMOOTH",
"1003 1165.5 OFFCURVE",
"1036.83 1138.5 OFFCURVE",
"1064.5 1103.5 CURVE SMOOTH",
"1092.17 1068.5 OFFCURVE",
"1113.17 1026.5 OFFCURVE",
"1127.5 977.5 CURVE SMOOTH",
"1141.83 928.5 OFFCURVE",
"1149 874 OFFCURVE",
"1149 814 CURVE SMOOTH"
);
},
{
closed = 1;
nodes = (
"1233 1551 LINE",
"1039 1829 LINE",
"780 1829 LINE",
"524 1551 LINE",
"721 1551 LINE SMOOTH",
"732.333 1551 OFFCURVE",
"746.167 1553.17 OFFCURVE",
"762.5 1557.5 CURVE SMOOTH",
"778.833 1561.83 OFFCURVE",
"797 1575 OFFCURVE",
"817 1597 CURVE",
"871 1675 LINE",
"890 1700 LINE",
"904 1675 LINE",
"942 1597 LINE",
"948.667 1585.67 OFFCURVE",
"955.833 1577 OFFCURVE",
"963.5 1571 CURVE SMOOTH",
"971.167 1565 OFFCURVE",
"978.833 1560.5 OFFCURVE",
"986.5 1557.5 CURVE SMOOTH",
"994.167 1554.5 OFFCURVE",
"1001.33 1552.67 OFFCURVE",
"1008 1552 CURVE SMOOTH",
"1014.67 1551.33 OFFCURVE",
"1021 1551 OFFCURVE",
"1027 1551 CURVE SMOOTH"
);
}
);
width = 1520;
}
);
leftKerningGroup = C;
rightKerningGroup = O;
unicode = 00D4;
},
{
glyphname = Odieresis;
layers = (
{
layerId = "421C8255-749A-4570-9FED-EBF43319311F";
name = "Bold Italic";
paths = (
{
closed = 1;
nodes = (
"65 0 LINE"
);
},
{
closed = 1;
nodes = (
"1483 912.667 OFFCURVE",
"1468.83 997.667 OFFCURVE",
"1440.5 1077 CURVE SMOOTH",
"1412.17 1156.33 OFFCURVE",
"1371.5 1225.33 OFFCURVE",
"1318.5 1284 CURVE SMOOTH",
"1265.5 1342.67 OFFCURVE",
"1200.83 1388.83 OFFCURVE",
"1124.5 1422.5 CURVE SMOOTH",
"1048.17 1456.17 OFFCURVE",
"962.333 1473 OFFCURVE",
"867 1473 CURVE SMOOTH",
"789.667 1473 OFFCURVE",
"716.333 1463.17 OFFCURVE",
"647 1443.5 CURVE SMOOTH",
"577.667 1423.83 OFFCURVE",
"513.333 1396.17 OFFCURVE",
"454 1360.5 CURVE SMOOTH",
"394.667 1324.83 OFFCURVE",
"341 1281.67 OFFCURVE",
"293 1231 CURVE SMOOTH",
"245 1180.33 OFFCURVE",
"204.167 1124 OFFCURVE",
"170.5 1062 CURVE SMOOTH",
"136.833 1000 OFFCURVE",
"110.833 932.833 OFFCURVE",
"92.4999 860.5 CURVE SMOOTH",
"74.1666 788.167 OFFCURVE",
"64.9999 712.667 OFFCURVE",
"64.9999 634 CURVE SMOOTH",
"64.9999 542.667 OFFCURVE",
"79.1666 457.5 OFFCURVE",
"107.5 378.5 CURVE SMOOTH",
"135.833 299.5 OFFCURVE",
"176.667 230.833 OFFCURVE",
"230 172.5 CURVE SMOOTH",
"283.333 114.167 OFFCURVE",
"348.167 68.1668 OFFCURVE",
"424.5 34.5001 CURVE SMOOTH",
"500.833 0.83345 OFFCURVE",
"587 -16 OFFCURVE",
"683 -16 CURVE SMOOTH",
"759.667 -16 OFFCURVE",
"832.667 -6 OFFCURVE",
"902 13.5001 CURVE SMOOTH",
"971.333 33.1668 OFFCURVE",
"1035.67 60.8335 OFFCURVE",
"1095 96.5001 CURVE SMOOTH",
"1154.33 132.167 OFFCURVE",
"1207.83 175.333 OFFCURVE",
"1255.5 226 CURVE SMOOTH",
"1303.17 276.667 OFFCURVE",
"1343.83 333 OFFCURVE",
"1377.5 395 CURVE SMOOTH",
"1411.17 457 OFFCURVE",
"1437.17 524 OFFCURVE",
"1455.5 596 CURVE SMOOTH",
"1473.83 668 OFFCURVE",
"1483 743.333 OFFCURVE",
"1483 822 CURVE SMOOTH"
);
},
{
closed = 1;
nodes = (
"1149 728.667 OFFCURVE",
"1139 651 OFFCURVE",
"1119 581 CURVE SMOOTH",
"1099 511 OFFCURVE",
"1070.5 451 OFFCURVE",
"1033.5 401 CURVE SMOOTH",
"996.5 351 OFFCURVE",
"951.5 312.333 OFFCURVE",
"898.5 285 CURVE SMOOTH",
"845.5 257.667 OFFCURVE",
"785.667 244 OFFCURVE",
"719 244 CURVE SMOOTH",
"667.667 244 OFFCURVE",
"622 253.5 OFFCURVE",
"582 272.5 CURVE SMOOTH",
"542 291.5 OFFCURVE",
"508.5 318.333 OFFCURVE",
"481.5 353 CURVE SMOOTH",
"454.5 387.667 OFFCURVE",
"434 429.333 OFFCURVE",
"420 478 CURVE SMOOTH",
"406 526.667 OFFCURVE",
"399 581 OFFCURVE",
"399 641 CURVE SMOOTH",
"399 726.333 OFFCURVE",
"408.833 804.167 OFFCURVE",
"428.5 874.5 CURVE SMOOTH",
"448.167 944.833 OFFCURVE",
"476.5 1005 OFFCURVE",
"513.5 1055 CURVE SMOOTH",
"550.5 1105 OFFCURVE",
"595.333 1143.83 OFFCURVE",
"648 1171.5 CURVE SMOOTH",
"700.667 1199.17 OFFCURVE",
"760.333 1213 OFFCURVE",
"827 1213 CURVE SMOOTH",
"877.667 1213 OFFCURVE",
"923 1203.5 OFFCURVE",
"963 1184.5 CURVE SMOOTH",
"1003 1165.5 OFFCURVE",
"1036.83 1138.5 OFFCURVE",
"1064.5 1103.5 CURVE SMOOTH",
"1092.17 1068.5 OFFCURVE",
"1113.17 1026.5 OFFCURVE",
"1127.5 977.5 CURVE SMOOTH",
"1141.83 928.5 OFFCURVE",
"1149 874 OFFCURVE",
"1149 814 CURVE SMOOTH"
);
},
{
closed = 1;
nodes = (
"867 1688 OFFCURVE",
"862.667 1708.5 OFFCURVE",
"854 1727.5 CURVE SMOOTH",
"845.333 1746.5 OFFCURVE",
"833.5 1763.33 OFFCURVE",
"818.5 1778 CURVE SMOOTH",
"803.5 1792.67 OFFCURVE",
"786.167 1804.17 OFFCURVE",
"766.5 1812.5 CURVE SMOOTH",
"746.833 1820.83 OFFCURVE",
"725.667 1825 OFFCURVE",
"703 1825 CURVE SMOOTH",
"681.667 1825 OFFCURVE",
"661.5 1820.83 OFFCURVE",
"642.5 1812.5 CURVE SMOOTH",
"623.5 1804.17 OFFCURVE",
"606.833 1792.67 OFFCURVE",
"592.5 1778 CURVE SMOOTH",
"578.167 1763.33 OFFCURVE",
"566.667 1746.5 OFFCURVE",
"558 1727.5 CURVE SMOOTH",
"549.333 1708.5 OFFCURVE",
"545 1688 OFFCURVE",
"545 1666 CURVE SMOOTH",
"545 1644.67 OFFCURVE",
"549.333 1624.67 OFFCURVE",
"558 1606 CURVE SMOOTH",
"566.667 1587.33 OFFCURVE",
"578.167 1571.17 OFFCURVE",
"592.5 1557.5 CURVE SMOOTH",
"606.833 1543.83 OFFCURVE",
"623.5 1533 OFFCURVE",
"642.5 1525 CURVE SMOOTH",
"661.5 1517 OFFCURVE",
"681.667 1513 OFFCURVE",
"703 1513 CURVE SMOOTH",
"725.667 1513 OFFCURVE",
"746.833 1517 OFFCURVE",
"766.5 1525 CURVE SMOOTH",
"786.167 1533 OFFCURVE",
"803.5 1543.83 OFFCURVE",
"818.5 1557.5 CURVE SMOOTH",
"833.5 1571.17 OFFCURVE",
"845.333 1587.33 OFFCURVE",
"854 1606 CURVE SMOOTH",
"862.667 1624.67 OFFCURVE",
"867 1644.67 OFFCURVE",
"867 1666 CURVE SMOOTH"
);
},
{
closed = 1;
nodes = (
"1283 1688 OFFCURVE",
"1278.83 1708.5 OFFCURVE",
"1270.5 1727.5 CURVE SMOOTH",
"1262.17 1746.5 OFFCURVE",
"1250.67 1763.33 OFFCURVE",
"1236 1778 CURVE SMOOTH",
"1221.33 1792.67 OFFCURVE",
"1204.17 1804.17 OFFCURVE",
"1184.5 1812.5 CURVE SMOOTH",
"1164.83 1820.83 OFFCURVE",
"1143.67 1825 OFFCURVE",
"1121 1825 CURVE SMOOTH",
"1099 1825 OFFCURVE",
"1078.33 1820.83 OFFCURVE",
"1059 1812.5 CURVE SMOOTH",
"1039.67 1804.17 OFFCURVE",
"1022.67 1792.67 OFFCURVE",
"1008 1778 CURVE SMOOTH",
"993.333 1763.33 OFFCURVE",
"981.833 1746.5 OFFCURVE",
"973.5 1727.5 CURVE SMOOTH",
"965.167 1708.5 OFFCURVE",
"961 1688 OFFCURVE",
"961 1666 CURVE SMOOTH",
"961 1644.67 OFFCURVE",
"965.167 1624.67 OFFCURVE",
"973.5 1606 CURVE SMOOTH",
"981.833 1587.33 OFFCURVE",
"993.333 1571.17 OFFCURVE",
"1008 1557.5 CURVE SMOOTH",
"1022.67 1543.83 OFFCURVE",
"1039.67 1533 OFFCURVE",
"1059 1525 CURVE SMOOTH",
"1078.33 1517 OFFCURVE",
"1099 1513 OFFCURVE",
"1121 1513 CURVE SMOOTH",
"1143.67 1513 OFFCURVE",
"1164.83 1517 OFFCURVE",
"1184.5 1525 CURVE SMOOTH",
"1204.17 1533 OFFCURVE",
"1221.33 1543.83 OFFCURVE",
"1236 1557.5 CURVE SMOOTH",
"1250.67 1571.17 OFFCURVE",
"1262.17 1587.33 OFFCURVE",
"1270.5 1606 CURVE SMOOTH",
"1278.83 1624.67 OFFCURVE",
"1283 1644.67 OFFCURVE",
"1283 1666 CURVE SMOOTH"
);
}
);
width = 1520;
}
);
leftKerningGroup = C;
rightKerningGroup = O;
unicode = 00D6;
},
{
glyphname = Ograve;
layers = (
{
layerId = "421C8255-749A-4570-9FED-EBF43319311F";
name = "Bold Italic";
paths = (
{
closed = 1;
nodes = (
"65 0 LINE"
);
},
{
closed = 1;
nodes = (
"1483 912.667 OFFCURVE",
"1468.83 997.667 OFFCURVE",
"1440.5 1077 CURVE SMOOTH",
"1412.17 1156.33 OFFCURVE",
"1371.5 1225.33 OFFCURVE",
"1318.5 1284 CURVE SMOOTH",
"1265.5 1342.67 OFFCURVE",
"1200.83 1388.83 OFFCURVE",
"1124.5 1422.5 CURVE SMOOTH",
"1048.17 1456.17 OFFCURVE",
"962.333 1473 OFFCURVE",
"867 1473 CURVE SMOOTH",
"789.667 1473 OFFCURVE",
"716.333 1463.17 OFFCURVE",
"647 1443.5 CURVE SMOOTH",
"577.667 1423.83 OFFCURVE",
"513.333 1396.17 OFFCURVE",
"454 1360.5 CURVE SMOOTH",
"394.667 1324.83 OFFCURVE",
"341 1281.67 OFFCURVE",
"293 1231 CURVE SMOOTH",
"245 1180.33 OFFCURVE",
"204.167 1124 OFFCURVE",
"170.5 1062 CURVE SMOOTH",
"136.833 1000 OFFCURVE",
"110.833 932.833 OFFCURVE",
"92.4999 860.5 CURVE SMOOTH",
"74.1666 788.167 OFFCURVE",
"64.9999 712.667 OFFCURVE",
"64.9999 634 CURVE SMOOTH",
"64.9999 542.667 OFFCURVE",
"79.1666 457.5 OFFCURVE",
"107.5 378.5 CURVE SMOOTH",
"135.833 299.5 OFFCURVE",
"176.667 230.833 OFFCURVE",
"230 172.5 CURVE SMOOTH",
"283.333 114.167 OFFCURVE",
"348.167 68.1668 OFFCURVE",
"424.5 34.5001 CURVE SMOOTH",
"500.833 0.83345 OFFCURVE",
"587 -16 OFFCURVE",
"683 -16 CURVE SMOOTH",
"759.667 -16 OFFCURVE",
"832.667 -6 OFFCURVE",
"902 13.5001 CURVE SMOOTH",
"971.333 33.1668 OFFCURVE",
"1035.67 60.8335 OFFCURVE",
"1095 96.5001 CURVE SMOOTH",
"1154.33 132.167 OFFCURVE",
"1207.83 175.333 OFFCURVE",
"1255.5 226 CURVE SMOOTH",
"1303.17 276.667 OFFCURVE",
"1343.83 333 OFFCURVE",
"1377.5 395 CURVE SMOOTH",
"1411.17 457 OFFCURVE",
"1437.17 524 OFFCURVE",
"1455.5 596 CURVE SMOOTH",
"1473.83 668 OFFCURVE",
"1483 743.333 OFFCURVE",
"1483 822 CURVE SMOOTH"
);
},
{
closed = 1;
nodes = (
"1149 728.667 OFFCURVE",
"1139 651 OFFCURVE",
"1119 581 CURVE SMOOTH",
"1099 511 OFFCURVE",
"1070.5 451 OFFCURVE",
"1033.5 401 CURVE SMOOTH",
"996.5 351 OFFCURVE",
"951.5 312.333 OFFCURVE",
"898.5 285 CURVE SMOOTH",
"845.5 257.667 OFFCURVE",
"785.667 244 OFFCURVE",
"719 244 CURVE SMOOTH",
"667.667 244 OFFCURVE",
"622 253.5 OFFCURVE",
"582 272.5 CURVE SMOOTH",
"542 291.5 OFFCURVE",
"508.5 318.333 OFFCURVE",
"481.5 353 CURVE SMOOTH",
"454.5 387.667 OFFCURVE",
"434 429.333 OFFCURVE",
"420 478 CURVE SMOOTH",
"406 526.667 OFFCURVE",
"399 581 OFFCURVE",
"399 641 CURVE SMOOTH",
"399 726.333 OFFCURVE",
"408.833 804.167 OFFCURVE",
"428.5 874.5 CURVE SMOOTH",
"448.167 944.833 OFFCURVE",
"476.5 1005 OFFCURVE",
"513.5 1055 CURVE SMOOTH",
"550.5 1105 OFFCURVE",
"595.333 1143.83 OFFCURVE",
"648 1171.5 CURVE SMOOTH",
"700.667 1199.17 OFFCURVE",
"760.333 1213 OFFCURVE",
"827 1213 CURVE SMOOTH",
"877.667 1213 OFFCURVE",
"923 1203.5 OFFCURVE",
"963 1184.5 CURVE SMOOTH",
"1003 1165.5 OFFCURVE",
"1036.83 1138.5 OFFCURVE",
"1064.5 1103.5 CURVE SMOOTH",
"1092.17 1068.5 OFFCURVE",
"1113.17 1026.5 OFFCURVE",
"1127.5 977.5 CURVE SMOOTH",
"1141.83 928.5 OFFCURVE",
"1149 874 OFFCURVE",
"1149 814 CURVE SMOOTH"
);
},
{
closed = 1;
nodes = (
"473 1867 LINE",
"740 1580 LINE SMOOTH",
"746.667 1572.67 OFFCURVE",
"752.833 1567.17 OFFCURVE",
"758.5 1563.5 CURVE SMOOTH",
"764.167 1559.83 OFFCURVE",
"770.333 1557 OFFCURVE",
"777 1555 CURVE SMOOTH",
"783.667 1553 OFFCURVE",
"791 1551.83 OFFCURVE",
"799 1551.5 CURVE SMOOTH",
"807 1551.17 OFFCURVE",
"816.667 1551 OFFCURVE",
"828 1551 CURVE SMOOTH",
"1036 1551 LINE",
"874 1821 LINE SMOOTH",
"867.333 1831.67 OFFCURVE",
"860.833 1840 OFFCURVE",
"854.5 1846 CURVE SMOOTH",
"848.167 1852 OFFCURVE",
"841 1856.5 OFFCURVE",
"833 1859.5 CURVE SMOOTH",
"825 1862.5 OFFCURVE",
"815.833 1864.5 OFFCURVE",
"805.5 1865.5 CURVE SMOOTH",
"795.167 1866.5 OFFCURVE",
"783 1867 OFFCURVE",
"769 1867 CURVE SMOOTH"
);
}
);
width = 1520;
}
);
leftKerningGroup = C;
rightKerningGroup = O;
unicode = 00D2;
},
{
glyphname = Oslash;
layers = (
{
layerId = "421C8255-749A-4570-9FED-EBF43319311F";
name = "Bold Italic";
paths = (
{
closed = 1;
nodes = (
"1483 907.333 OFFCURVE",
"1470.67 987.167 OFFCURVE",
"1446 1061.5 CURVE SMOOTH",
"1421.33 1135.83 OFFCURVE",
"1385.33 1202 OFFCURVE",
"1338 1260 CURVE",
"1543 1521 LINE",
"1377 1521 LINE SMOOTH",
"1359.67 1521 OFFCURVE",
"1344.83 1519.67 OFFCURVE",
"1332.5 1517 CURVE SMOOTH",
"1320.17 1514.33 OFFCURVE",
"1308.83 1509.83 OFFCURVE",
"1298.5 1503.5 CURVE SMOOTH",
"1288.17 1497.17 OFFCURVE",
"1278.17 1489.17 OFFCURVE",
"1268.5 1479.5 CURVE SMOOTH",
"1258.83 1469.83 OFFCURVE",
"1247.67 1458 OFFCURVE",
"1235 1444 CURVE",
"1191 1388 LINE",
"1145.67 1415.33 OFFCURVE",
"1096 1436.33 OFFCURVE",
"1042 1451 CURVE SMOOTH",
"988 1465.67 OFFCURVE",
"929.667 1473 OFFCURVE",
"867 1473 CURVE SMOOTH",
"789.667 1473 OFFCURVE",
"716.333 1463.17 OFFCURVE",
"647 1443.5 CURVE SMOOTH",
"577.667 1423.83 OFFCURVE",
"513.333 1396.17 OFFCURVE",
"454 1360.5 CURVE SMOOTH",
"394.667 1324.83 OFFCURVE",
"341 1281.67 OFFCURVE",
"293 1231 CURVE SMOOTH",
"245 1180.33 OFFCURVE",
"204.167 1124 OFFCURVE",
"170.5 1062 CURVE SMOOTH",
"136.833 1000 OFFCURVE",
"110.833 932.834 OFFCURVE",
"92.4999 860.5 CURVE SMOOTH",
"74.1666 788.167 OFFCURVE",
"64.9999 712.667 OFFCURVE",
"64.9999 634 CURVE SMOOTH",
"64.9999 541.334 OFFCURVE",
"79.4999 455.334 OFFCURVE",
"108.5 376 CURVE SMOOTH",
"137.5 296.667 OFFCURVE",
"179.333 227.334 OFFCURVE",
"234 168 CURVE",
"12.9999 -113 LINE",
"141 -113 LINE SMOOTH",
"171 -113 OFFCURVE",
"202.667 -107 OFFCURVE",
"236 -94 CURVE SMOOTH",
"269.333 -81 OFFCURVE",
"299.667 -60 OFFCURVE",
"327 -29 CURVE",
"389 50 LINE",
"431 28.6669 OFFCURVE",
"476.5 12.3336 OFFCURVE",
"525.5 1 CURVE SMOOTH",
"574.5 -10 OFFCURVE",
"627 -16 OFFCURVE",
"683 -16 CURVE SMOOTH",
"759.667 -16 OFFCURVE",
"832.667 -6 OFFCURVE",
"902 13.5003 CURVE SMOOTH",
"971.333 33.1669 OFFCURVE",
"1035.67 60.8336 OFFCURVE",
"1095 96.5003 CURVE SMOOTH",
"1154.33 132.167 OFFCURVE",
"1207.83 175.334 OFFCURVE",
"1255.5 226 CURVE SMOOTH",
"1303.17 276.667 OFFCURVE",
"1343.83 333 OFFCURVE",
"1377.5 395 CURVE SMOOTH",
"1411.17 457 OFFCURVE",
"1437.17 524 OFFCURVE",
"1455.5 596 CURVE SMOOTH",
"1473.83 668 OFFCURVE",
"1483 743.334 OFFCURVE",
"1483 822 CURVE SMOOTH"
);
},
{
closed = 1;
nodes = (
"399 726.334 OFFCURVE",
"408.833 804.167 OFFCURVE",
"428.5 874.5 CURVE SMOOTH",
"448.167 944.833 OFFCURVE",
"476.5 1005 OFFCURVE",
"513.5 1055 CURVE SMOOTH",
"550.5 1105 OFFCURVE",
"595.333 1143.83 OFFCURVE",
"648 1171.5 CURVE SMOOTH",
"700.667 1199.17 OFFCURVE",
"760.333 1213 OFFCURVE",
"827 1213 CURVE SMOOTH",
"863 1213 OFFCURVE",
"896.167 1208.17 OFFCURVE",
"926.5 1198.5 CURVE SMOOTH",
"956.833 1188.83 OFFCURVE",
"984.333 1175 OFFCURVE",
"1009 1157 CURVE",
"438 428 LINE",
"412 488 OFFCURVE",
"399 559 OFFCURVE",
"399 641 CURVE SMOOTH"
);
},
{
closed = 1;
nodes = (
"1149 728.667 OFFCURVE",
"1139 651 OFFCURVE",
"1119 581 CURVE SMOOTH",
"1099 511 OFFCURVE",
"1070.5 451 OFFCURVE",
"1033.5 401 CURVE SMOOTH",
"996.5 351 OFFCURVE",
"951.5 312.334 OFFCURVE",
"898.5 285 CURVE SMOOTH",
"845.5 257.667 OFFCURVE",
"785.667 244 OFFCURVE",
"719 244 CURVE SMOOTH",
"661.667 244 OFFCURVE",
"611.333 255.667 OFFCURVE",
"568 279 CURVE",
"1124 987 LINE",
"1132 961.667 OFFCURVE",
"1138.17 934.5 OFFCURVE",
"1142.5 905.5 CURVE SMOOTH",
"1146.83 876.5 OFFCURVE",
"1149 846 OFFCURVE",
"1149 814 CURVE SMOOTH"
);
}
);
width = 1520;
}
);
leftKerningGroup = C;
rightKerningGroup = O;
unicode = 00D8;
},
{
glyphname = Otilde;
layers = (
{
layerId = "421C8255-749A-4570-9FED-EBF43319311F";
name = "Bold Italic";
paths = (
{
closed = 1;
nodes = (
"65 0 LINE"
);
},
{
closed = 1;
nodes = (
"1483 912.667 OFFCURVE",
"1468.83 997.667 OFFCURVE",
"1440.5 1077 CURVE SMOOTH",
"1412.17 1156.33 OFFCURVE",
"1371.5 1225.33 OFFCURVE",
"1318.5 1284 CURVE SMOOTH",
"1265.5 1342.67 OFFCURVE",
"1200.83 1388.83 OFFCURVE",
"1124.5 1422.5 CURVE SMOOTH",
"1048.17 1456.17 OFFCURVE",
"962.333 1473 OFFCURVE",
"867 1473 CURVE SMOOTH",
"789.667 1473 OFFCURVE",
"716.333 1463.17 OFFCURVE",
"647 1443.5 CURVE SMOOTH",
"577.667 1423.83 OFFCURVE",
"513.333 1396.17 OFFCURVE",
"454 1360.5 CURVE SMOOTH",
"394.667 1324.83 OFFCURVE",
"341 1281.67 OFFCURVE",
"293 1231 CURVE SMOOTH",
"245 1180.33 OFFCURVE",
"204.167 1124 OFFCURVE",
"170.5 1062 CURVE SMOOTH",
"136.833 1000 OFFCURVE",
"110.833 932.833 OFFCURVE",
"92.4999 860.5 CURVE SMOOTH",
"74.1666 788.167 OFFCURVE",
"64.9999 712.667 OFFCURVE",
"64.9999 634 CURVE SMOOTH",
"64.9999 542.667 OFFCURVE",
"79.1666 457.5 OFFCURVE",
"107.5 378.5 CURVE SMOOTH",
"135.833 299.5 OFFCURVE",
"176.667 230.833 OFFCURVE",
"230 172.5 CURVE SMOOTH",
"283.333 114.167 OFFCURVE",
"348.167 68.1668 OFFCURVE",
"424.5 34.5001 CURVE SMOOTH",
"500.833 0.83345 OFFCURVE",
"587 -16 OFFCURVE",
"683 -16 CURVE SMOOTH",
"759.667 -16 OFFCURVE",
"832.667 -6 OFFCURVE",
"902 13.5001 CURVE SMOOTH",
"971.333 33.1668 OFFCURVE",
"1035.67 60.8335 OFFCURVE",
"1095 96.5001 CURVE SMOOTH",
"1154.33 132.167 OFFCURVE",
"1207.83 175.333 OFFCURVE",
"1255.5 226 CURVE SMOOTH",
"1303.17 276.667 OFFCURVE",
"1343.83 333 OFFCURVE",
"1377.5 395 CURVE SMOOTH",
"1411.17 457 OFFCURVE",
"1437.17 524 OFFCURVE",
"1455.5 596 CURVE SMOOTH",
"1473.83 668 OFFCURVE",
"1483 743.333 OFFCURVE",
"1483 822 CURVE SMOOTH"
);
},
{
closed = 1;
nodes = (
"1149 728.667 OFFCURVE",
"1139 651 OFFCURVE",
"1119 581 CURVE SMOOTH",
"1099 511 OFFCURVE",
"1070.5 451 OFFCURVE",
"1033.5 401 CURVE SMOOTH",
"996.5 351 OFFCURVE",
"951.5 312.333 OFFCURVE",
"898.5 285 CURVE SMOOTH",
"845.5 257.667 OFFCURVE",
"785.667 244 OFFCURVE",
"719 244 CURVE SMOOTH",
"667.667 244 OFFCURVE",
"622 253.5 OFFCURVE",
"582 272.5 CURVE SMOOTH",
"542 291.5 OFFCURVE",
"508.5 318.333 OFFCURVE",
"481.5 353 CURVE SMOOTH",
"454.5 387.667 OFFCURVE",
"434 429.333 OFFCURVE",
"420 478 CURVE SMOOTH",
"406 526.667 OFFCURVE",
"399 581 OFFCURVE",
"399 641 CURVE SMOOTH",
"399 726.333 OFFCURVE",
"408.833 804.167 OFFCURVE",
"428.5 874.5 CURVE SMOOTH",
"448.167 944.833 OFFCURVE",
"476.5 1005 OFFCURVE",
"513.5 1055 CURVE SMOOTH",
"550.5 1105 OFFCURVE",
"595.333 1143.83 OFFCURVE",
"648 1171.5 CURVE SMOOTH",
"700.667 1199.17 OFFCURVE",
"760.333 1213 OFFCURVE",
"827 1213 CURVE SMOOTH",
"877.667 1213 OFFCURVE",
"923 1203.5 OFFCURVE",
"963 1184.5 CURVE SMOOTH",
"1003 1165.5 OFFCURVE",
"1036.83 1138.5 OFFCURVE",
"1064.5 1103.5 CURVE SMOOTH",
"1092.17 1068.5 OFFCURVE",
"1113.17 1026.5 OFFCURVE",
"1127.5 977.5 CURVE SMOOTH",
"1141.83 928.5 OFFCURVE",
"1149 874 OFFCURVE",
"1149 814 CURVE SMOOTH"
);
},
{
closed = 1;
nodes = (
"993 1729 OFFCURVE",
"978 1734 OFFCURVE",
"964 1744 CURVE SMOOTH",
"950 1754 OFFCURVE",
"934.333 1765.17 OFFCURVE",
"917 1777.5 CURVE SMOOTH",
"899.667 1789.83 OFFCURVE",
"879.333 1801 OFFCURVE",
"856 1811 CURVE SMOOTH",
"832.667 1821 OFFCURVE",
"803.667 1826 OFFCURVE",
"769 1826 CURVE SMOOTH",
"735 1826 OFFCURVE",
"704 1818 OFFCURVE",
"676 1802 CURVE SMOOTH",
"648 1786 OFFCURVE",
"623.5 1764.67 OFFCURVE",
"602.5 1738 CURVE SMOOTH",
"581.5 1711.33 OFFCURVE",
"564.333 1681 OFFCURVE",
"551 1647 CURVE SMOOTH",
"537.667 1613 OFFCURVE",
"529 1577.67 OFFCURVE",
"525 1541 CURVE",
"700 1541 LINE",
"700.667 1550.33 OFFCURVE",
"702.833 1560.33 OFFCURVE",
"706.5 1571 CURVE SMOOTH",
"710.167 1581.67 OFFCURVE",
"715.333 1591.5 OFFCURVE",
"722 1600.5 CURVE SMOOTH",
"728.667 1609.5 OFFCURVE",
"737 1617 OFFCURVE",
"747 1623 CURVE SMOOTH",
"757 1629 OFFCURVE",
"768.667 1632 OFFCURVE",
"782 1632 CURVE SMOOTH",
"798 1632 OFFCURVE",
"813 1627 OFFCURVE",
"827 1617 CURVE SMOOTH",
"841 1607 OFFCURVE",
"856.833 1595.83 OFFCURVE",
"874.5 1583.5 CURVE SMOOTH",
"892.167 1571.17 OFFCURVE",
"912.5 1560 OFFCURVE",
"935.5 1550 CURVE SMOOTH",
"958.5 1540 OFFCURVE",
"987 1535 OFFCURVE",
"1021 1535 CURVE SMOOTH",
"1055.67 1535 OFFCURVE",
"1087 1542.83 OFFCURVE",
"1115 1558.5 CURVE SMOOTH",
"1143 1574.17 OFFCURVE",
"1167.5 1595.17 OFFCURVE",
"1188.5 1621.5 CURVE SMOOTH",
"1209.5 1647.83 OFFCURVE",
"1226.5 1678 OFFCURVE",
"1239.5 1712 CURVE SMOOTH",
"1252.5 1746 OFFCURVE",
"1261 1781.33 OFFCURVE",
"1265 1818 CURVE",
"1092 1818 LINE",
"1090.67 1808.67 OFFCURVE",
"1088.17 1798.83 OFFCURVE",
"1084.5 1788.5 CURVE SMOOTH",
"1080.83 1778.17 OFFCURVE",
"1075.67 1768.5 OFFCURVE",
"1069 1759.5 CURVE SMOOTH",
"1062.33 1750.5 OFFCURVE",
"1054 1743.17 OFFCURVE",
"1044 1737.5 CURVE SMOOTH",
"1034 1731.83 OFFCURVE",
"1022.33 1729 OFFCURVE",
"1009 1729 CURVE SMOOTH"
);
}
);
width = 1520;
}
);
leftKerningGroup = C;
rightKerningGroup = O;
unicode = 00D5;
},
{
glyphname = OE;
layers = (
{
layerId = "421C8255-749A-4570-9FED-EBF43319311F";
name = "Bold Italic";
paths = (
{
closed = 1;
nodes = (
"1993 1206 LINE",
"2025 1457 LINE",
"1195 1457 LINE",
"1175 1299 LINE",
"1131 1353 OFFCURVE",
"1077.5 1395.5 OFFCURVE",
"1014.5 1426.5 CURVE SMOOTH",
"951.5 1457.5 OFFCURVE",
"879 1473 OFFCURVE",
"797 1473 CURVE SMOOTH",
"691.667 1473 OFFCURVE",
"594.5 1451.17 OFFCURVE",
"505.5 1407.5 CURVE SMOOTH",
"416.5 1363.83 OFFCURVE",
"339.5 1303.83 OFFCURVE",
"274.5 1227.5 CURVE SMOOTH",
"209.5 1151.17 OFFCURVE",
"158.667 1061.33 OFFCURVE",
"122 958 CURVE SMOOTH",
"85.3333 854.667 OFFCURVE",
"67 743.333 OFFCURVE",
"67 624 CURVE SMOOTH",
"67 534 OFFCURVE",
"79.5 450 OFFCURVE",
"104.5 372 CURVE SMOOTH",
"129.5 294 OFFCURVE",
"165.5 226.333 OFFCURVE",
"212.5 169 CURVE SMOOTH",
"259.5 111.667 OFFCURVE",
"317 66.4999 OFFCURVE",
"385 33.4999 CURVE SMOOTH",
"453 0.499939 OFFCURVE",
"529.667 -16 OFFCURVE",
"615 -16 CURVE SMOOTH",
"695.667 -16 OFFCURVE",
"771 -3 OFFCURVE",
"841 23.9999 CURVE SMOOTH",
"911 50.6666 OFFCURVE",
"974.667 87.9999 OFFCURVE",
"1032 136 CURVE",
"1015 -6 LINE",
"1845 -6 LINE",
"1877 251 LINE",
"1335 251 LINE",
"1379 610 LINE",
"1791 610 LINE",
"1821 852 LINE",
"1409 852 LINE",
"1452 1206 LINE"
);
},
{
closed = 1;
nodes = (
"1073 737.333 OFFCURVE",
"1063.83 658 OFFCURVE",
"1045.5 586 CURVE SMOOTH",
"1027.17 514 OFFCURVE",
"1001 452 OFFCURVE",
"967 400 CURVE SMOOTH",
"933 348 OFFCURVE",
"891.667 307.5 OFFCURVE",
"843 278.5 CURVE SMOOTH",
"794.333 249.5 OFFCURVE",
"739.667 235 OFFCURVE",
"679 235 CURVE SMOOTH",
"633 235 OFFCURVE",
"592.667 244.667 OFFCURVE",
"558 264 CURVE SMOOTH",
"523.333 283.333 OFFCURVE",
"494.333 310.5 OFFCURVE",
"471 345.5 CURVE SMOOTH",
"447.667 380.5 OFFCURVE",
"430.167 422.333 OFFCURVE",
"418.5 471 CURVE SMOOTH",
"406.833 519.667 OFFCURVE",
"401 573 OFFCURVE",
"401 631 CURVE SMOOTH",
"401 717.667 OFFCURVE",
"410.167 797.167 OFFCURVE",
"428.5 869.5 CURVE SMOOTH",
"446.833 941.833 OFFCURVE",
"473 1004.17 OFFCURVE",
"507 1056.5 CURVE SMOOTH",
"541 1108.83 OFFCURVE",
"582.667 1149.5 OFFCURVE",
"632 1178.5 CURVE SMOOTH",
"681.333 1207.5 OFFCURVE",
"737 1222 OFFCURVE",
"799 1222 CURVE SMOOTH",
"843.667 1222 OFFCURVE",
"883.167 1212.17 OFFCURVE",
"917.5 1192.5 CURVE SMOOTH",
"951.833 1172.83 OFFCURVE",
"980.5 1145.5 OFFCURVE",
"1003.5 1110.5 CURVE SMOOTH",
"1026.5 1075.5 OFFCURVE",
"1043.83 1033.67 OFFCURVE",
"1055.5 985 CURVE SMOOTH",
"1067.17 936.333 OFFCURVE",
"1073 882.667 OFFCURVE",
"1073 824 CURVE SMOOTH"
);
}
);
width = 1991;
}
);
leftKerningGroup = C;
rightKerningGroup = E;
unicode = 0152;
},
{
glyphname = P;
layers = (
{
layerId = "421C8255-749A-4570-9FED-EBF43319311F";
name = "Bold Italic";
paths = (
{
closed = 1;
nodes = (
"441 491 LINE",
"597 491 LINE SMOOTH",
"701.667 491 OFFCURVE",
"792.333 505 OFFCURVE",
"869 533 CURVE SMOOTH",
"945.667 561 OFFCURVE",
"1009 599.667 OFFCURVE",
"1059 649 CURVE SMOOTH",
"1109 698.333 OFFCURVE",
"1146.17 756.833 OFFCURVE",
"1170.5 824.5 CURVE SMOOTH",
"1194.83 892.167 OFFCURVE",
"1207 965.667 OFFCURVE",
"1207 1045 CURVE SMOOTH",
"1207 1103 OFFCURVE",
"1197.67 1157.17 OFFCURVE",
"1179 1207.5 CURVE SMOOTH",
"1160.33 1257.83 OFFCURVE",
"1131.17 1301.5 OFFCURVE",
"1091.5 1338.5 CURVE SMOOTH",
"1051.83 1375.5 OFFCURVE",
"1001.17 1404.5 OFFCURVE",
"939.5 1425.5 CURVE SMOOTH",
"877.833 1446.5 OFFCURVE",
"803.667 1457 OFFCURVE",
"717 1457 CURVE SMOOTH",
"235 1457 LINE",
"57 0 LINE",
"381 0 LINE"
);
},
{
closed = 1;
nodes = (
"531 1214 LINE",
"685 1214 LINE SMOOTH",
"718.333 1214 OFFCURVE",
"747.167 1209.17 OFFCURVE",
"771.5 1199.5 CURVE SMOOTH",
"795.833 1189.83 OFFCURVE",
"816 1176.33 OFFCURVE",
"832 1159 CURVE SMOOTH",
"848 1141.67 OFFCURVE",
"859.833 1121 OFFCURVE",
"867.5 1097 CURVE SMOOTH",
"875.167 1073 OFFCURVE",
"879 1046.67 OFFCURVE",
"879 1018 CURVE SMOOTH",
"879 976.667 OFFCURVE",
"874.667 938.667 OFFCURVE",
"866 904 CURVE SMOOTH",
"857.333 869.333 OFFCURVE",
"843.167 839.5 OFFCURVE",
"823.5 814.5 CURVE SMOOTH",
"803.833 789.5 OFFCURVE",
"778.167 770.167 OFFCURVE",
"746.5 756.5 CURVE SMOOTH",
"714.833 742.833 OFFCURVE",
"675.667 736 OFFCURVE",
"629 736 CURVE SMOOTH",
"472 736 LINE"
);
}
);
width = 1197;
}
);
leftKerningGroup = B;
rightKerningGroup = P;
unicode = 0050;
},
{
glyphname = Thorn;
layers = (
{
layerId = "421C8255-749A-4570-9FED-EBF43319311F";
name = "Bold Italic";
paths = (
{
closed = 1;
nodes = (
"531 1216 LINE",
"561 1457 LINE",
"235 1457 LINE",
"57 0 LINE",
"381 0 LINE",
"412 254 LINE",
"569 254 LINE SMOOTH",
"673.667 254 OFFCURVE",
"764.333 267.833 OFFCURVE",
"841 295.5 CURVE SMOOTH",
"917.667 323.167 OFFCURVE",
"981 361.667 OFFCURVE",
"1031 411 CURVE SMOOTH",
"1081 460.333 OFFCURVE",
"1118.17 518.833 OFFCURVE",
"1142.5 586.5 CURVE SMOOTH",
"1166.83 654.167 OFFCURVE",
"1179 728 OFFCURVE",
"1179 808 CURVE SMOOTH",
"1179 866 OFFCURVE",
"1169.67 919.833 OFFCURVE",
"1151 969.5 CURVE SMOOTH",
"1132.33 1019.17 OFFCURVE",
"1103 1062.17 OFFCURVE",
"1063 1098.5 CURVE SMOOTH",
"1023 1134.83 OFFCURVE",
"972.167 1163.5 OFFCURVE",
"910.5 1184.5 CURVE SMOOTH",
"848.833 1205.5 OFFCURVE",
"775 1216 OFFCURVE",
"689 1216 CURVE SMOOTH"
);
},
{
closed = 1;
nodes = (
"501 973 LINE",
"657 973 LINE SMOOTH",
"690.333 973 OFFCURVE",
"719.167 968.333 OFFCURVE",
"743.5 959 CURVE SMOOTH",
"767.833 949.667 OFFCURVE",
"788 936.5 OFFCURVE",
"804 919.5 CURVE SMOOTH",
"820 902.5 OFFCURVE",
"831.833 882.333 OFFCURVE",
"839.5 859 CURVE SMOOTH",
"847.167 835.667 OFFCURVE",
"851 809.667 OFFCURVE",
"851 781 CURVE SMOOTH",
"851 739.667 OFFCURVE",
"846.667 701.667 OFFCURVE",
"838 667 CURVE SMOOTH",
"829.333 632.333 OFFCURVE",
"815.167 602.5 OFFCURVE",
"795.5 577.5 CURVE SMOOTH",
"775.833 552.5 OFFCURVE",
"750.167 533.167 OFFCURVE",
"718.5 519.5 CURVE SMOOTH",
"686.833 505.833 OFFCURVE",
"647.667 499 OFFCURVE",
"601 499 CURVE SMOOTH",
"442 499 LINE"
);
}
);
width = 1190;
}
);
leftKerningGroup = B;
rightKerningGroup = Thorn;
unicode = 00DE;
},
{
glyphname = Q;
lastChange = "2014-08-21 04:56:11 -0500";
layers = (
{
layerId = "421C8255-749A-4570-9FED-EBF43319311F";
name = "Bold Italic";
paths = (
{
closed = 1;
nodes = (
"644 497 LINE",
"969 27 LINE",
"991 0 OFFCURVE",
"1017 -18 OFFCURVE",
"1046 -28 CURVE SMOOTH",
"1076 -38 OFFCURVE",
"1109 -43 OFFCURVE",
"1147 -43 CURVE SMOOTH",
"1415 -43 LINE",
"940 622 LINE"
);
},
{
closed = 1;
nodes = (
"1483 912.667 OFFCURVE",
"1468.83 997.667 OFFCURVE",
"1440.5 1077 CURVE SMOOTH",
"1412.17 1156.33 OFFCURVE",
"1371.5 1225.33 OFFCURVE",
"1318.5 1284 CURVE SMOOTH",
"1265.5 1342.67 OFFCURVE",
"1200.83 1388.83 OFFCURVE",
"1124.5 1422.5 CURVE SMOOTH",
"1048.17 1456.17 OFFCURVE",
"962.333 1473 OFFCURVE",
"867 1473 CURVE SMOOTH",
"789.667 1473 OFFCURVE",
"716.333 1463.17 OFFCURVE",
"647 1443.5 CURVE SMOOTH",
"577.667 1423.83 OFFCURVE",
"513.333 1396.17 OFFCURVE",
"454 1360.5 CURVE SMOOTH",
"394.667 1324.83 OFFCURVE",
"341 1281.67 OFFCURVE",
"293 1231 CURVE SMOOTH",
"245 1180.33 OFFCURVE",
"204.167 1124 OFFCURVE",
"170.5 1062 CURVE SMOOTH",
"136.833 1000 OFFCURVE",
"110.833 932.833 OFFCURVE",
"92.5 860.5 CURVE SMOOTH",
"74.167 788.167 OFFCURVE",
"65 712.667 OFFCURVE",
"65 634 CURVE SMOOTH",
"65 542.667 OFFCURVE",
"79.167 457.5 OFFCURVE",
"107.5 378.5 CURVE SMOOTH",
"135.833 299.5 OFFCURVE",
"176.667 230.833 OFFCURVE",
"230 172.5 CURVE SMOOTH",
"283.333 114.167 OFFCURVE",
"348.167 68.167 OFFCURVE",
"424.5 34.5 CURVE SMOOTH",
"500.833 0.833 OFFCURVE",
"587 -16 OFFCURVE",
"683 -16 CURVE SMOOTH",
"759.667 -16 OFFCURVE",
"832.667 -6 OFFCURVE",
"902 13.5 CURVE SMOOTH",
"971.333 33.167 OFFCURVE",
"1035.67 60.834 OFFCURVE",
"1095 96.5 CURVE SMOOTH",
"1154.33 132.167 OFFCURVE",
"1207.83 175.333 OFFCURVE",
"1255.5 226 CURVE SMOOTH",
"1303.17 276.667 OFFCURVE",
"1343.83 333 OFFCURVE",
"1377.5 395 CURVE SMOOTH",
"1411.17 457 OFFCURVE",
"1437.17 524 OFFCURVE",
"1455.5 596 CURVE SMOOTH",
"1473.83 668 OFFCURVE",
"1483 743.333 OFFCURVE",
"1483 822 CURVE SMOOTH"
);
},
{
closed = 1;
nodes = (
"1149 728.667 OFFCURVE",
"1139 651 OFFCURVE",
"1119 581 CURVE SMOOTH",
"1099 511 OFFCURVE",
"1070.5 451 OFFCURVE",
"1033.5 401 CURVE SMOOTH",
"996.5 351 OFFCURVE",
"951.5 312.333 OFFCURVE",
"898.5 285 CURVE SMOOTH",
"845.5 257.667 OFFCURVE",
"785.667 244 OFFCURVE",
"719 244 CURVE SMOOTH",
"667.667 244 OFFCURVE",
"622 253.5 OFFCURVE",
"582 272.5 CURVE SMOOTH",
"542 291.5 OFFCURVE",
"508.5 318.333 OFFCURVE",
"481.5 353 CURVE SMOOTH",
"454.5 387.667 OFFCURVE",
"434 429.333 OFFCURVE",
"420 478 CURVE SMOOTH",
"406 526.667 OFFCURVE",
"399 581 OFFCURVE",
"399 641 CURVE SMOOTH",
"399 726.333 OFFCURVE",
"408.833 804.167 OFFCURVE",
"428.5 874.5 CURVE SMOOTH",
"448.167 944.833 OFFCURVE",
"476.5 1005 OFFCURVE",
"513.5 1055 CURVE SMOOTH",
"550.5 1105 OFFCURVE",
"595.333 1143.83 OFFCURVE",
"648 1171.5 CURVE SMOOTH",
"700.667 1199.17 OFFCURVE",
"760.333 1213 OFFCURVE",
"827 1213 CURVE SMOOTH",
"877.667 1213 OFFCURVE",
"923 1203.5 OFFCURVE",
"963 1184.5 CURVE SMOOTH",
"1003 1165.5 OFFCURVE",
"1036.83 1138.5 OFFCURVE",
"1064.5 1103.5 CURVE SMOOTH",
"1092.17 1068.5 OFFCURVE",
"1113.17 1026.5 OFFCURVE",
"1127.5 977.5 CURVE SMOOTH",
"1141.83 928.5 OFFCURVE",
"1149 874 OFFCURVE",
"1149 814 CURVE SMOOTH"
);
}
);
width = 1520;
}
);
leftKerningGroup = C;
rightKerningGroup = O;
unicode = 0051;
},
{
glyphname = R;
layers = (
{
layerId = "421C8255-749A-4570-9FED-EBF43319311F";
name = "Bold Italic";
paths = (
{
closed = 1;
nodes = (
"448 544 LINE",
"521 544 LINE SMOOTH",
"545 544 OFFCURVE",
"563 540 OFFCURVE",
"575 532 CURVE SMOOTH",
"587 524 OFFCURVE",
"597 511 OFFCURVE",
"605 493 CURVE",
"763 62 LINE",
"771 42.6667 OFFCURVE",
"784.167 27.5 OFFCURVE",
"802.5 16.5 CURVE SMOOTH",
"820.833 5.5 OFFCURVE",
"843.667 0 OFFCURVE",
"871 0 CURVE SMOOTH",
"1165 0 LINE",
"953 513 LINE",
"941 536.333 OFFCURVE",
"926.667 556.167 OFFCURVE",
"910 572.5 CURVE SMOOTH",
"893.333 588.833 OFFCURVE",
"875 602.667 OFFCURVE",
"855 614 CURVE",
"905.667 634 OFFCURVE",
"950.833 659.5 OFFCURVE",
"990.5 690.5 CURVE SMOOTH",
"1030.17 721.5 OFFCURVE",
"1063.67 757.167 OFFCURVE",
"1091 797.5 CURVE SMOOTH",
"1118.33 837.833 OFFCURVE",
"1139.17 882 OFFCURVE",
"1153.5 930 CURVE SMOOTH",
"1167.83 978 OFFCURVE",
"1175 1029 OFFCURVE",
"1175 1083 CURVE SMOOTH",
"1175 1136.33 OFFCURVE",
"1165.83 1185.83 OFFCURVE",
"1147.5 1231.5 CURVE SMOOTH",
"1129.17 1277.17 OFFCURVE",
"1100 1316.67 OFFCURVE",
"1060 1350 CURVE SMOOTH",
"1020 1383.33 OFFCURVE",
"968.5 1409.5 OFFCURVE",
"905.5 1428.5 CURVE SMOOTH",
"842.5 1447.5 OFFCURVE",
"766.334 1457 OFFCURVE",
"677 1457 CURVE SMOOTH",
"235 1457 LINE",
"57 0 LINE",
"381 0 LINE"
);
},
{
closed = 1;
nodes = (
"531 1214 LINE",
"647 1214 LINE SMOOTH",
"681.667 1214 OFFCURVE",
"711.834 1209.67 OFFCURVE",
"737.5 1201 CURVE SMOOTH",
"763.167 1192.33 OFFCURVE",
"784.5 1180.17 OFFCURVE",
"801.5 1164.5 CURVE SMOOTH",
"818.5 1148.83 OFFCURVE",
"831 1129.83 OFFCURVE",
"839 1107.5 CURVE SMOOTH",
"847 1085.17 OFFCURVE",
"851 1060.33 OFFCURVE",
"851 1033 CURVE SMOOTH",
"851 997.667 OFFCURVE",
"846.5 964 OFFCURVE",
"837.5 932 CURVE SMOOTH",
"828.5 900 OFFCURVE",
"813.834 872 OFFCURVE",
"793.5 848 CURVE SMOOTH",
"773.167 824 OFFCURVE",
"746.667 804.833 OFFCURVE",
"714 790.5 CURVE SMOOTH",
"681.334 776.167 OFFCURVE",
"641.667 769 OFFCURVE",
"595 769 CURVE SMOOTH",
"476 769 LINE"
);
}
);
width = 1228;
}
);
leftKerningGroup = B;
rightKerningGroup = R;
unicode = 0052;
},
{
glyphname = S;
layers = (
{
layerId = "421C8255-749A-4570-9FED-EBF43319311F";
name = "Bold Italic";
paths = (
{
closed = 1;
nodes = (
"1052 1299 LINE",
"1032.67 1323.67 OFFCURVE",
"1009 1346.5 OFFCURVE",
"981 1367.5 CURVE SMOOTH",
"953 1388.5 OFFCURVE",
"922 1406.67 OFFCURVE",
"888 1422 CURVE SMOOTH",
"854 1437.33 OFFCURVE",
"817.5 1449.33 OFFCURVE",
"778.5 1458 CURVE SMOOTH",
"739.5 1466.67 OFFCURVE",
"699.333 1471 OFFCURVE",
"658 1471 CURVE SMOOTH",
"577.333 1471 OFFCURVE",
"504.667 1457.33 OFFCURVE",
"440 1430 CURVE SMOOTH",
"375.333 1402.67 OFFCURVE",
"320.333 1366 OFFCURVE",
"275 1320 CURVE SMOOTH",
"229.667 1274 OFFCURVE",
"194.833 1221.17 OFFCURVE",
"170.5 1161.5 CURVE SMOOTH",
"146.167 1101.83 OFFCURVE",
"134 1039.67 OFFCURVE",
"134 975 CURVE SMOOTH",
"134 919 OFFCURVE",
"141.5 871.833 OFFCURVE",
"156.5 833.5 CURVE SMOOTH",
"171.5 795.167 OFFCURVE",
"191.167 762.833 OFFCURVE",
"215.5 736.5 CURVE SMOOTH",
"239.833 710.167 OFFCURVE",
"267.667 688.833 OFFCURVE",
"299 672.5 CURVE SMOOTH",
"330.333 656.167 OFFCURVE",
"362.333 642 OFFCURVE",
"395 630 CURVE SMOOTH",
"427.667 618 OFFCURVE",
"459.667 606.833 OFFCURVE",
"491 596.5 CURVE SMOOTH",
"522.333 586.167 OFFCURVE",
"550.167 574.333 OFFCURVE",
"574.5 561 CURVE SMOOTH",
"598.833 547.667 OFFCURVE",
"618.5 531.333 OFFCURVE",
"633.5 512 CURVE SMOOTH",
"648.5 492.667 OFFCURVE",
"656 468 OFFCURVE",
"656 438 CURVE SMOOTH",
"656 373.333 OFFCURVE",
"639.5 324.5 OFFCURVE",
"606.5 291.5 CURVE SMOOTH",
"573.5 258.5 OFFCURVE",
"526.667 242 OFFCURVE",
"466 242 CURVE SMOOTH",
"424.667 242 OFFCURVE",
"389.833 248.5 OFFCURVE",
"361.5 261.5 CURVE SMOOTH",
"333.167 274.5 OFFCURVE",
"308.333 288.833 OFFCURVE",
"287 304.5 CURVE SMOOTH",
"265.667 320.167 OFFCURVE",
"246.167 334.5 OFFCURVE",
"228.5 347.5 CURVE SMOOTH",
"210.833 360.5 OFFCURVE",
"192.667 367 OFFCURVE",
"174 367 CURVE SMOOTH",
"160 367 OFFCURVE",
"146.167 363.333 OFFCURVE",
"132.5 356 CURVE SMOOTH",
"118.833 348.667 OFFCURVE",
"107.333 339.333 OFFCURVE",
"98 328 CURVE",
"-18 176 LINE",
"5.33328 147.333 OFFCURVE",
"33.6666 121.333 OFFCURVE",
"67 98 CURVE SMOOTH",
"100.333 74.6667 OFFCURVE",
"136.5 54.5001 OFFCURVE",
"175.5 37.5001 CURVE SMOOTH",
"214.5 20.5001 OFFCURVE",
"255.167 7.33339 OFFCURVE",
"297.5 -2 CURVE SMOOTH",
"339.833 -11 OFFCURVE",
"382 -16 OFFCURVE",
"424 -16 CURVE SMOOTH",
"508.667 -16 OFFCURVE",
"584.833 -2 OFFCURVE",
"652.5 26.5001 CURVE SMOOTH",
"720.167 54.8334 OFFCURVE",
"777.667 93.1667 OFFCURVE",
"825 141.5 CURVE SMOOTH",
"872.333 189.833 OFFCURVE",
"908.667 246.333 OFFCURVE",
"934 311 CURVE SMOOTH",
"959.333 375.667 OFFCURVE",
"972 444.667 OFFCURVE",
"972 518 CURVE SMOOTH",
"972 569.333 OFFCURVE",
"964.5 613.333 OFFCURVE",
"949.5 650 CURVE SMOOTH",
"934.5 686.667 OFFCURVE",
"914.5 718 OFFCURVE",
"889.5 744 CURVE SMOOTH",
"864.5 770 OFFCURVE",
"836.167 791.667 OFFCURVE",
"804.5 809 CURVE SMOOTH",
"772.833 826.333 OFFCURVE",
"740.5 841.667 OFFCURVE",
"707.5 855 CURVE SMOOTH",
"674.5 868.333 OFFCURVE",
"642.333 880.667 OFFCURVE",
"611 892 CURVE SMOOTH",
"579.667 903.333 OFFCURVE",
"551.5 915.833 OFFCURVE",
"526.5 929.5 CURVE SMOOTH",
"501.5 943.167 OFFCURVE",
"481.5 959 OFFCURVE",
"466.5 977 CURVE SMOOTH",
"451.5 995 OFFCURVE",
"444 1017.33 OFFCURVE",
"444 1044 CURVE SMOOTH",
"444 1068.67 OFFCURVE",
"447.833 1091.33 OFFCURVE",
"455.5 1112 CURVE SMOOTH",
"463.167 1132.67 OFFCURVE",
"474.667 1150.67 OFFCURVE",
"490 1166 CURVE SMOOTH",
"505.333 1181.33 OFFCURVE",
"524.5 1193.33 OFFCURVE",
"547.5 1202 CURVE SMOOTH",
"570.5 1210.67 OFFCURVE",
"597.333 1215 OFFCURVE",
"628 1215 CURVE SMOOTH",
"661.333 1215 OFFCURVE",
"690.333 1210 OFFCURVE",
"715 1200 CURVE SMOOTH",
"739.667 1190 OFFCURVE",
"761.5 1179 OFFCURVE",
"780.5 1167 CURVE SMOOTH",
"799.5 1155 OFFCURVE",
"816.667 1144 OFFCURVE",
"832 1134 CURVE SMOOTH",
"847.333 1124 OFFCURVE",
"862.667 1119 OFFCURVE",
"878 1119 CURVE SMOOTH",
"894 1119 OFFCURVE",
"907.667 1122.83 OFFCURVE",
"919 1130.5 CURVE SMOOTH",
"930.333 1138.17 OFFCURVE",
"942 1149.67 OFFCURVE",
"954 1165 CURVE SMOOTH"
);
}
);
width = 1046;
}
);
leftKerningGroup = S;
rightKerningGroup = S;
unicode = 0053;
},
{
glyphname = T;
layers = (
{
layerId = "421C8255-749A-4570-9FED-EBF43319311F";
name = "Bold Italic";
paths = (
{
closed = 1;
nodes = (
"1205 1457 LINE",
"135 1457 LINE",
"103 1199 LINE",
"475 1199 LINE",
"329 0 LINE",
"653 0 LINE",
"801 1199 LINE",
"1171 1199 LINE"
);
}
);
width = 1134;
}
);
leftKerningGroup = T;
rightKerningGroup = T;
unicode = 0054;
},
{
glyphname = U;
layers = (
{
layerId = "421C8255-749A-4570-9FED-EBF43319311F";
name = "Bold Italic";
paths = (
{
closed = 1;
nodes = (
"613.333 256 OFFCURVE",
"578.167 263.833 OFFCURVE",
"548.5 279.5 CURVE SMOOTH",
"518.833 295.167 OFFCURVE",
"494.833 317.5 OFFCURVE",
"476.5 346.5 CURVE SMOOTH",
"458.167 375.5 OFFCURVE",
"445.667 410.667 OFFCURVE",
"439 452 CURVE SMOOTH",
"432.333 493.333 OFFCURVE",
"432 539.667 OFFCURVE",
"438 591 CURVE SMOOTH",
"544 1457 LINE",
"218 1457 LINE",
"114 591 LINE SMOOTH",
"102.667 502.333 OFFCURVE",
"105.833 420.833 OFFCURVE",
"123.5 346.5 CURVE SMOOTH",
"141.167 272.167 OFFCURVE",
"171.833 208.167 OFFCURVE",
"215.5 154.5 CURVE SMOOTH",
"259.167 100.833 OFFCURVE",
"315 59 OFFCURVE",
"383 29 CURVE SMOOTH",
"451 -1 OFFCURVE",
"530 -16 OFFCURVE",
"620 -16 CURVE SMOOTH",
"710 -16 OFFCURVE",
"792.667 -1 OFFCURVE",
"868 29 CURVE SMOOTH",
"943.333 59 OFFCURVE",
"1009.5 100.833 OFFCURVE",
"1066.5 154.5 CURVE SMOOTH",
"1123.5 208.167 OFFCURVE",
"1169.83 272.167 OFFCURVE",
"1205.5 346.5 CURVE SMOOTH",
"1241.17 420.833 OFFCURVE",
"1264.67 502.333 OFFCURVE",
"1276 591 CURVE SMOOTH",
"1382 1457 LINE",
"1056 1457 LINE",
"950 591 LINE SMOOTH",
"944 539.667 OFFCURVE",
"932.833 493.333 OFFCURVE",
"916.5 452 CURVE SMOOTH",
"900.167 410.667 OFFCURVE",
"879.333 375.5 OFFCURVE",
"854 346.5 CURVE SMOOTH",
"828.667 317.5 OFFCURVE",
"799.167 295.167 OFFCURVE",
"765.5 279.5 CURVE SMOOTH",
"731.833 263.833 OFFCURVE",
"694.667 256 OFFCURVE",
"654 256 CURVE SMOOTH"
);
}
);
width = 1396;
}
);
leftKerningGroup = U;
rightKerningGroup = U;
unicode = 0055;
},
{
glyphname = Uacute;
layers = (
{
layerId = "421C8255-749A-4570-9FED-EBF43319311F";
name = "Bold Italic";
paths = (
{
closed = 1;
nodes = (
"97 0 LINE"
);
},
{
closed = 1;
nodes = (
"613.333 256 OFFCURVE",
"578.167 263.833 OFFCURVE",
"548.5 279.5 CURVE SMOOTH",
"518.833 295.167 OFFCURVE",
"494.833 317.5 OFFCURVE",
"476.5 346.5 CURVE SMOOTH",
"458.167 375.5 OFFCURVE",
"445.667 410.667 OFFCURVE",
"439 452 CURVE SMOOTH",
"432.333 493.333 OFFCURVE",
"432 539.667 OFFCURVE",
"438 591 CURVE SMOOTH",
"544 1457 LINE",
"218 1457 LINE",
"114 591 LINE SMOOTH",
"102.667 502.333 OFFCURVE",
"105.833 420.833 OFFCURVE",
"123.5 346.5 CURVE SMOOTH",
"141.167 272.167 OFFCURVE",
"171.833 208.167 OFFCURVE",
"215.5 154.5 CURVE SMOOTH",
"259.167 100.833 OFFCURVE",
"315 59 OFFCURVE",
"383 29 CURVE SMOOTH",
"451 -1 OFFCURVE",
"530 -16 OFFCURVE",
"620 -16 CURVE SMOOTH",
"710 -16 OFFCURVE",
"792.667 -1 OFFCURVE",
"868 29 CURVE SMOOTH",
"943.333 59 OFFCURVE",
"1009.5 100.833 OFFCURVE",
"1066.5 154.5 CURVE SMOOTH",
"1123.5 208.167 OFFCURVE",
"1169.83 272.167 OFFCURVE",
"1205.5 346.5 CURVE SMOOTH",
"1241.17 420.833 OFFCURVE",
"1264.67 502.333 OFFCURVE",
"1276 591 CURVE SMOOTH",
"1382 1457 LINE",
"1056 1457 LINE",
"950 591 LINE SMOOTH",
"944 539.667 OFFCURVE",
"932.833 493.333 OFFCURVE",
"916.5 452 CURVE SMOOTH",
"900.167 410.667 OFFCURVE",
"879.333 375.5 OFFCURVE",
"854 346.5 CURVE SMOOTH",
"828.667 317.5 OFFCURVE",
"799.167 295.167 OFFCURVE",
"765.5 279.5 CURVE SMOOTH",
"731.833 263.833 OFFCURVE",
"694.667 256 OFFCURVE",
"654 256 CURVE SMOOTH"
);
},
{
closed = 1;
nodes = (
"1278 1867 LINE",
"964 1867 LINE SMOOTH",
"950 1867 OFFCURVE",
"937.667 1866.67 OFFCURVE",
"927 1866 CURVE SMOOTH",
"916.333 1865.33 OFFCURVE",
"906.667 1863.5 OFFCURVE",
"898 1860.5 CURVE SMOOTH",
"889.333 1857.5 OFFCURVE",
"881 1852.83 OFFCURVE",
"873 1846.5 CURVE SMOOTH",
"865 1840.17 OFFCURVE",
"856.667 1831.67 OFFCURVE",
"848 1821 CURVE",
"644 1551 LINE",
"851 1551 LINE SMOOTH",
"861.667 1551 OFFCURVE",
"871.167 1551.33 OFFCURVE",
"879.5 1552 CURVE SMOOTH",
"887.833 1552.67 OFFCURVE",
"895.833 1554 OFFCURVE",
"903.5 1556 CURVE SMOOTH",
"911.167 1558 OFFCURVE",
"918.5 1561 OFFCURVE",
"925.5 1565 CURVE SMOOTH",
"932.5 1569 OFFCURVE",
"940.333 1574.67 OFFCURVE",
"949 1582 CURVE SMOOTH"
);
}
);
width = 1396;
}
);
leftKerningGroup = U;
rightKerningGroup = U;
unicode = 00DA;
},
{
glyphname = Ucircumflex;
layers = (
{
layerId = "421C8255-749A-4570-9FED-EBF43319311F";
name = "Bold Italic";
paths = (
{
closed = 1;
nodes = (
"97 0 LINE"
);
},
{
closed = 1;
nodes = (
"613.333 256 OFFCURVE",
"578.167 263.833 OFFCURVE",
"548.5 279.5 CURVE SMOOTH",
"518.833 295.167 OFFCURVE",
"494.833 317.5 OFFCURVE",
"476.5 346.5 CURVE SMOOTH",
"458.167 375.5 OFFCURVE",
"445.667 410.667 OFFCURVE",
"439 452 CURVE SMOOTH",
"432.333 493.333 OFFCURVE",
"432 539.667 OFFCURVE",
"438 591 CURVE SMOOTH",
"544 1457 LINE",
"218 1457 LINE",
"114 591 LINE SMOOTH",
"102.667 502.333 OFFCURVE",
"105.833 420.833 OFFCURVE",
"123.5 346.5 CURVE SMOOTH",
"141.167 272.167 OFFCURVE",
"171.833 208.167 OFFCURVE",
"215.5 154.5 CURVE SMOOTH",
"259.167 100.833 OFFCURVE",
"315 59 OFFCURVE",
"383 29 CURVE SMOOTH",
"451 -1 OFFCURVE",
"530 -16 OFFCURVE",
"620 -16 CURVE SMOOTH",
"710 -16 OFFCURVE",
"792.667 -1 OFFCURVE",
"868 29 CURVE SMOOTH",
"943.333 59 OFFCURVE",
"1009.5 100.833 OFFCURVE",
"1066.5 154.5 CURVE SMOOTH",
"1123.5 208.167 OFFCURVE",
"1169.83 272.167 OFFCURVE",
"1205.5 346.5 CURVE SMOOTH",
"1241.17 420.833 OFFCURVE",
"1264.67 502.333 OFFCURVE",
"1276 591 CURVE SMOOTH",
"1382 1457 LINE",
"1056 1457 LINE",
"950 591 LINE SMOOTH",
"944 539.667 OFFCURVE",
"932.833 493.333 OFFCURVE",
"916.5 452 CURVE SMOOTH",
"900.167 410.667 OFFCURVE",
"879.333 375.5 OFFCURVE",
"854 346.5 CURVE SMOOTH",
"828.667 317.5 OFFCURVE",
"799.167 295.167 OFFCURVE",
"765.5 279.5 CURVE SMOOTH",
"731.833 263.833 OFFCURVE",
"694.667 256 OFFCURVE",
"654 256 CURVE SMOOTH"
);
},
{
closed = 1;
nodes = (
"1161 1551 LINE",
"967 1829 LINE",
"708 1829 LINE",
"452 1551 LINE",
"649 1551 LINE SMOOTH",
"660.333 1551 OFFCURVE",
"674.167 1553.17 OFFCURVE",
"690.5 1557.5 CURVE SMOOTH",
"706.833 1561.83 OFFCURVE",
"725 1575 OFFCURVE",
"745 1597 CURVE",
"799 1675 LINE",
"818 1700 LINE",
"832 1675 LINE",
"870 1597 LINE",
"876.667 1585.67 OFFCURVE",
"883.833 1577 OFFCURVE",
"891.5 1571 CURVE SMOOTH",
"899.167 1565 OFFCURVE",
"906.833 1560.5 OFFCURVE",
"914.5 1557.5 CURVE SMOOTH",
"922.167 1554.5 OFFCURVE",
"929.333 1552.67 OFFCURVE",
"936 1552 CURVE SMOOTH",
"942.667 1551.33 OFFCURVE",
"949 1551 OFFCURVE",
"955 1551 CURVE SMOOTH"
);
}
);
width = 1396;
}
);
leftKerningGroup = U;
rightKerningGroup = U;
unicode = 00DB;
},
{
glyphname = Udieresis;
layers = (
{
layerId = "421C8255-749A-4570-9FED-EBF43319311F";
name = "Bold Italic";
paths = (
{
closed = 1;
nodes = (
"97 0 LINE"
);
},
{
closed = 1;
nodes = (
"613.333 256 OFFCURVE",
"578.167 263.833 OFFCURVE",
"548.5 279.5 CURVE SMOOTH",
"518.833 295.167 OFFCURVE",
"494.833 317.5 OFFCURVE",
"476.5 346.5 CURVE SMOOTH",
"458.167 375.5 OFFCURVE",
"445.667 410.667 OFFCURVE",
"439 452 CURVE SMOOTH",
"432.333 493.333 OFFCURVE",
"432 539.667 OFFCURVE",
"438 591 CURVE SMOOTH",
"544 1457 LINE",
"218 1457 LINE",
"114 591 LINE SMOOTH",
"102.667 502.333 OFFCURVE",
"105.833 420.833 OFFCURVE",
"123.5 346.5 CURVE SMOOTH",
"141.167 272.167 OFFCURVE",
"171.833 208.167 OFFCURVE",
"215.5 154.5 CURVE SMOOTH",
"259.167 100.833 OFFCURVE",
"315 59 OFFCURVE",
"383 29 CURVE SMOOTH",
"451 -1 OFFCURVE",
"530 -16 OFFCURVE",
"620 -16 CURVE SMOOTH",
"710 -16 OFFCURVE",
"792.667 -1 OFFCURVE",
"868 29 CURVE SMOOTH",
"943.333 59 OFFCURVE",
"1009.5 100.833 OFFCURVE",
"1066.5 154.5 CURVE SMOOTH",
"1123.5 208.167 OFFCURVE",
"1169.83 272.167 OFFCURVE",
"1205.5 346.5 CURVE SMOOTH",
"1241.17 420.833 OFFCURVE",
"1264.67 502.333 OFFCURVE",
"1276 591 CURVE SMOOTH",
"1382 1457 LINE",
"1056 1457 LINE",
"950 591 LINE SMOOTH",
"944 539.667 OFFCURVE",
"932.833 493.333 OFFCURVE",
"916.5 452 CURVE SMOOTH",
"900.167 410.667 OFFCURVE",
"879.333 375.5 OFFCURVE",
"854 346.5 CURVE SMOOTH",
"828.667 317.5 OFFCURVE",
"799.167 295.167 OFFCURVE",
"765.5 279.5 CURVE SMOOTH",
"731.833 263.833 OFFCURVE",
"694.667 256 OFFCURVE",
"654 256 CURVE SMOOTH"
);
},
{
closed = 1;
nodes = (
"785 1688 OFFCURVE",
"780.667 1708.5 OFFCURVE",
"772 1727.5 CURVE SMOOTH",
"763.333 1746.5 OFFCURVE",
"751.5 1763.33 OFFCURVE",
"736.5 1778 CURVE SMOOTH",
"721.5 1792.67 OFFCURVE",
"704.167 1804.17 OFFCURVE",
"684.5 1812.5 CURVE SMOOTH",
"664.833 1820.83 OFFCURVE",
"643.667 1825 OFFCURVE",
"621 1825 CURVE SMOOTH",
"599.667 1825 OFFCURVE",
"579.5 1820.83 OFFCURVE",
"560.5 1812.5 CURVE SMOOTH",
"541.5 1804.17 OFFCURVE",
"524.833 1792.67 OFFCURVE",
"510.5 1778 CURVE SMOOTH",
"496.167 1763.33 OFFCURVE",
"484.667 1746.5 OFFCURVE",
"476 1727.5 CURVE SMOOTH",
"467.333 1708.5 OFFCURVE",
"463 1688 OFFCURVE",
"463 1666 CURVE SMOOTH",
"463 1644.67 OFFCURVE",
"467.333 1624.67 OFFCURVE",
"476 1606 CURVE SMOOTH",
"484.667 1587.33 OFFCURVE",
"496.167 1571.17 OFFCURVE",
"510.5 1557.5 CURVE SMOOTH",
"524.833 1543.83 OFFCURVE",
"541.5 1533 OFFCURVE",
"560.5 1525 CURVE SMOOTH",
"579.5 1517 OFFCURVE",
"599.667 1513 OFFCURVE",
"621 1513 CURVE SMOOTH",
"643.667 1513 OFFCURVE",
"664.833 1517 OFFCURVE",
"684.5 1525 CURVE SMOOTH",
"704.167 1533 OFFCURVE",
"721.5 1543.83 OFFCURVE",
"736.5 1557.5 CURVE SMOOTH",
"751.5 1571.17 OFFCURVE",
"763.333 1587.33 OFFCURVE",
"772 1606 CURVE SMOOTH",
"780.667 1624.67 OFFCURVE",
"785 1644.67 OFFCURVE",
"785 1666 CURVE SMOOTH"
);
},
{
closed = 1;
nodes = (
"1201 1688 OFFCURVE",
"1196.83 1708.5 OFFCURVE",
"1188.5 1727.5 CURVE SMOOTH",
"1180.17 1746.5 OFFCURVE",
"1168.67 1763.33 OFFCURVE",
"1154 1778 CURVE SMOOTH",
"1139.33 1792.67 OFFCURVE",
"1122.17 1804.17 OFFCURVE",
"1102.5 1812.5 CURVE SMOOTH",
"1082.83 1820.83 OFFCURVE",
"1061.67 1825 OFFCURVE",
"1039 1825 CURVE SMOOTH",
"1017 1825 OFFCURVE",
"996.334 1820.83 OFFCURVE",
"977 1812.5 CURVE SMOOTH",
"957.667 1804.17 OFFCURVE",
"940.667 1792.67 OFFCURVE",
"926 1778 CURVE SMOOTH",
"911.334 1763.33 OFFCURVE",
"899.834 1746.5 OFFCURVE",
"891.5 1727.5 CURVE SMOOTH",
"883.167 1708.5 OFFCURVE",
"879 1688 OFFCURVE",
"879 1666 CURVE SMOOTH",
"879 1644.67 OFFCURVE",
"883.167 1624.67 OFFCURVE",
"891.5 1606 CURVE SMOOTH",
"899.834 1587.33 OFFCURVE",
"911.334 1571.17 OFFCURVE",
"926 1557.5 CURVE SMOOTH",
"940.667 1543.83 OFFCURVE",
"957.667 1533 OFFCURVE",
"977 1525 CURVE SMOOTH",
"996.334 1517 OFFCURVE",
"1017 1513 OFFCURVE",
"1039 1513 CURVE SMOOTH",
"1061.67 1513 OFFCURVE",
"1082.83 1517 OFFCURVE",
"1102.5 1525 CURVE SMOOTH",
"1122.17 1533 OFFCURVE",
"1139.33 1543.83 OFFCURVE",
"1154 1557.5 CURVE SMOOTH",
"1168.67 1571.17 OFFCURVE",
"1180.17 1587.33 OFFCURVE",
"1188.5 1606 CURVE SMOOTH",
"1196.83 1624.67 OFFCURVE",
"1201 1644.67 OFFCURVE",
"1201 1666 CURVE SMOOTH"
);
}
);
width = 1396;
}
);
leftKerningGroup = U;
rightKerningGroup = U;
unicode = 00DC;
},
{
glyphname = Ugrave;
layers = (
{
layerId = "421C8255-749A-4570-9FED-EBF43319311F";
name = "Bold Italic";
paths = (
{
closed = 1;
nodes = (
"97 0 LINE"
);
},
{
closed = 1;
nodes = (
"613.333 256 OFFCURVE",
"578.167 263.833 OFFCURVE",
"548.5 279.5 CURVE SMOOTH",
"518.833 295.167 OFFCURVE",
"494.833 317.5 OFFCURVE",
"476.5 346.5 CURVE SMOOTH",
"458.167 375.5 OFFCURVE",
"445.667 410.667 OFFCURVE",
"439 452 CURVE SMOOTH",
"432.333 493.333 OFFCURVE",
"432 539.667 OFFCURVE",
"438 591 CURVE SMOOTH",
"544 1457 LINE",
"218 1457 LINE",
"114 591 LINE SMOOTH",
"102.667 502.333 OFFCURVE",
"105.833 420.833 OFFCURVE",
"123.5 346.5 CURVE SMOOTH",
"141.167 272.167 OFFCURVE",
"171.833 208.167 OFFCURVE",
"215.5 154.5 CURVE SMOOTH",
"259.167 100.833 OFFCURVE",
"315 59 OFFCURVE",
"383 29 CURVE SMOOTH",
"451 -1 OFFCURVE",
"530 -16 OFFCURVE",
"620 -16 CURVE SMOOTH",
"710 -16 OFFCURVE",
"792.667 -1 OFFCURVE",
"868 29 CURVE SMOOTH",
"943.333 59 OFFCURVE",
"1009.5 100.833 OFFCURVE",
"1066.5 154.5 CURVE SMOOTH",
"1123.5 208.167 OFFCURVE",
"1169.83 272.167 OFFCURVE",
"1205.5 346.5 CURVE SMOOTH",
"1241.17 420.833 OFFCURVE",
"1264.67 502.333 OFFCURVE",
"1276 591 CURVE SMOOTH",
"1382 1457 LINE",
"1056 1457 LINE",
"950 591 LINE SMOOTH",
"944 539.667 OFFCURVE",
"932.833 493.333 OFFCURVE",
"916.5 452 CURVE SMOOTH",
"900.167 410.667 OFFCURVE",
"879.333 375.5 OFFCURVE",
"854 346.5 CURVE SMOOTH",
"828.667 317.5 OFFCURVE",
"799.167 295.167 OFFCURVE",
"765.5 279.5 CURVE SMOOTH",
"731.833 263.833 OFFCURVE",
"694.667 256 OFFCURVE",
"654 256 CURVE SMOOTH"
);
},
{
closed = 1;
nodes = (
"411 1867 LINE",
"678 1580 LINE SMOOTH",
"684.667 1572.67 OFFCURVE",
"690.833 1567.17 OFFCURVE",
"696.5 1563.5 CURVE SMOOTH",
"702.167 1559.83 OFFCURVE",
"708.333 1557 OFFCURVE",
"715 1555 CURVE SMOOTH",
"721.667 1553 OFFCURVE",
"729 1551.83 OFFCURVE",
"737 1551.5 CURVE SMOOTH",
"745 1551.17 OFFCURVE",
"754.667 1551 OFFCURVE",
"766 1551 CURVE SMOOTH",
"974 1551 LINE",
"812 1821 LINE SMOOTH",
"805.333 1831.67 OFFCURVE",
"798.833 1840 OFFCURVE",
"792.5 1846 CURVE SMOOTH",
"786.167 1852 OFFCURVE",
"779 1856.5 OFFCURVE",
"771 1859.5 CURVE SMOOTH",
"763 1862.5 OFFCURVE",
"753.833 1864.5 OFFCURVE",
"743.5 1865.5 CURVE SMOOTH",
"733.167 1866.5 OFFCURVE",
"721 1867 OFFCURVE",
"707 1867 CURVE SMOOTH"
);
}
);
width = 1396;
}
);
leftKerningGroup = U;
rightKerningGroup = U;
unicode = 00D9;
},
{
glyphname = V;
layers = (
{
layerId = "421C8255-749A-4570-9FED-EBF43319311F";
name = "Bold Italic";
paths = (
{
closed = 1;
nodes = (
"85 1457 LINE",
"443 0 LINE",
"739 0 LINE",
"1455 1457 LINE",
"1191 1457 LINE SMOOTH",
"1177.67 1457 OFFCURVE",
"1164.83 1455 OFFCURVE",
"1152.5 1451 CURVE SMOOTH",
"1140.17 1447 OFFCURVE",
"1129 1441.67 OFFCURVE",
"1119 1435 CURVE SMOOTH",
"1109 1428.33 OFFCURVE",
"1100.17 1420.67 OFFCURVE",
"1092.5 1412 CURVE SMOOTH",
"1084.83 1403.33 OFFCURVE",
"1079 1394.67 OFFCURVE",
"1075 1386 CURVE SMOOTH",
"735 583 LINE",
"717.667 551 OFFCURVE",
"701 515.5 OFFCURVE",
"685 476.5 CURVE SMOOTH",
"669 437.5 OFFCURVE",
"654 397 OFFCURVE",
"640 355 CURVE",
"634.667 397 OFFCURVE",
"628.333 437.5 OFFCURVE",
"621 476.5 CURVE SMOOTH",
"613.667 515.5 OFFCURVE",
"605.667 551 OFFCURVE",
"597 583 CURVE",
"445 1386 LINE SMOOTH",
"441 1406.67 OFFCURVE",
"430.667 1423.67 OFFCURVE",
"414 1437 CURVE SMOOTH",
"397.333 1450.33 OFFCURVE",
"375 1457 OFFCURVE",
"347 1457 CURVE SMOOTH"
);
}
);
width = 1334;
}
);
leftKerningGroup = V;
rightKerningGroup = V;
unicode = 0056;
},
{
glyphname = W;
layers = (
{
layerId = "421C8255-749A-4570-9FED-EBF43319311F";
name = "Bold Italic";
paths = (
{
closed = 1;
nodes = (
"99 1457 LINE",
"335 0 LINE",
"629 0 LINE",
"985 920 LINE SMOOTH",
"991 934.667 OFFCURVE",
"997.333 950.833 OFFCURVE",
"1004 968.5 CURVE SMOOTH",
"1010.67 986.167 OFFCURVE",
"1017.67 1004.67 OFFCURVE",
"1025 1024 CURVE",
"1027 1004.67 OFFCURVE",
"1029.17 986.167 OFFCURVE",
"1031.5 968.5 CURVE SMOOTH",
"1033.83 950.833 OFFCURVE",
"1036.33 934.667 OFFCURVE",
"1039 920 CURVE SMOOTH",
"1173 6.10352 LINE",
"1469 6.10352 LINE",
"2063 1457 LINE",
"1805 1457 LINE SMOOTH",
"1791.67 1457 OFFCURVE",
"1778.67 1455 OFFCURVE",
"1766 1451 CURVE SMOOTH",
"1753.33 1447 OFFCURVE",
"1741.83 1441.83 OFFCURVE",
"1731.5 1435.5 CURVE SMOOTH",
"1721.17 1429.17 OFFCURVE",
"1712.17 1421.67 OFFCURVE",
"1704.5 1413 CURVE SMOOTH",
"1696.83 1404.33 OFFCURVE",
"1691.67 1395.33 OFFCURVE",
"1689 1386 CURVE",
"1401 601 LINE SMOOTH",
"1392.33 577 OFFCURVE",
"1383.83 551.333 OFFCURVE",
"1375.5 524 CURVE SMOOTH",
"1367.17 496.667 OFFCURVE",
"1358.33 468 OFFCURVE",
"1349 438 CURVE",
"1346.33 468 OFFCURVE",
"1343.33 496.833 OFFCURVE",
"1340 524.5 CURVE SMOOTH",
"1336.67 552.167 OFFCURVE",
"1333 577.667 OFFCURVE",
"1329 601 CURVE SMOOTH",
"1217 1386 LINE",
"1211 1406.67 OFFCURVE",
"1199.83 1423.67 OFFCURVE",
"1183.5 1437 CURVE SMOOTH",
"1167.17 1450.33 OFFCURVE",
"1145 1457 OFFCURVE",
"1117 1457 CURVE SMOOTH",
"1041 1457 LINE SMOOTH",
"1027.67 1457 OFFCURVE",
"1015 1455 OFFCURVE",
"1003 1451 CURVE SMOOTH",
"991 1447 OFFCURVE",
"980 1441.67 OFFCURVE",
"970 1435 CURVE SMOOTH",
"960 1428.33 OFFCURVE",
"951.333 1420.67 OFFCURVE",
"944 1412 CURVE SMOOTH",
"936.667 1403.33 OFFCURVE",
"931 1394.67 OFFCURVE",
"927 1386 CURVE",
"629 601 LINE",
"618.333 577 OFFCURVE",
"607.833 551 OFFCURVE",
"597.5 523 CURVE SMOOTH",
"587.167 495 OFFCURVE",
"577 465.334 OFFCURVE",
"567 434 CURVE",
"555 601 LINE",
"453 1386 LINE SMOOTH",
"449.667 1407.33 OFFCURVE",
"439.5 1424.5 OFFCURVE",
"422.5 1437.5 CURVE SMOOTH",
"405.5 1450.5 OFFCURVE",
"383 1457 OFFCURVE",
"355 1457 CURVE SMOOTH"
);
}
);
width = 1962;
}
);
leftKerningGroup = W;
rightKerningGroup = W;
unicode = 0057;
},
{
glyphname = X;
layers = (
{
layerId = "421C8255-749A-4570-9FED-EBF43319311F";
name = "Bold Italic";
paths = (
{
closed = 1;
nodes = (
"449 777 LINE",
"-99 0 LINE",
"227 0 LINE SMOOTH",
"246.333 0 OFFCURVE",
"264.167 3.83333 OFFCURVE",
"280.5 11.5 CURVE SMOOTH",
"296.833 19.1667 OFFCURVE",
"311.667 32.6667 OFFCURVE",
"325 52 CURVE",
"647 562 LINE",
"650.333 566 OFFCURVE",
"653.333 570 OFFCURVE",
"656 574 CURVE SMOOTH",
"658.667 578 OFFCURVE",
"661.333 582.333 OFFCURVE",
"664 587 CURVE",
"879 52 LINE",
"885 38.6667 OFFCURVE",
"893.833 26.6667 OFFCURVE",
"905.5 16 CURVE SMOOTH",
"917.167 5.33333 OFFCURVE",
"933.667 0 OFFCURVE",
"955 0 CURVE SMOOTH",
"1247 0 LINE",
"896 793 LINE",
"1381 1457 LINE",
"1039 1457 LINE SMOOTH",
"1023.67 1457 OFFCURVE",
"1010.67 1453.67 OFFCURVE",
"1000 1447 CURVE SMOOTH",
"989.333 1440.33 OFFCURVE",
"979 1429.67 OFFCURVE",
"969 1415 CURVE",
"713 999 LINE SMOOTH",
"708.333 991.667 OFFCURVE",
"704 985 OFFCURVE",
"700 979 CURVE SMOOTH",
"696 973 OFFCURVE",
"692.333 966.667 OFFCURVE",
"689 960 CURVE",
"497 1420 LINE SMOOTH",
"491 1433.33 OFFCURVE",
"483.5 1442.83 OFFCURVE",
"474.5 1448.5 CURVE SMOOTH",
"465.5 1454.17 OFFCURVE",
"450.333 1457 OFFCURVE",
"429 1457 CURVE SMOOTH",
"133 1457 LINE"
);
}
);
width = 1300;
}
);
leftKerningGroup = X;
rightKerningGroup = X;
unicode = 0058;
},
{
glyphname = Y;
layers = (
{
layerId = "421C8255-749A-4570-9FED-EBF43319311F";
name = "Bold Italic";
paths = (
{
closed = 1;
nodes = (
"786 558 LINE",
"1383 1457 LINE",
"1113 1457 LINE SMOOTH",
"1085.67 1457 OFFCURVE",
"1062.67 1449.5 OFFCURVE",
"1044 1434.5 CURVE SMOOTH",
"1025.33 1419.5 OFFCURVE",
"1010.33 1403.33 OFFCURVE",
"999 1386 CURVE",
"751 945 LINE SMOOTH",
"733 915 OFFCURVE",
"716.5 886.833 OFFCURVE",
"701.5 860.5 CURVE SMOOTH",
"686.5 834.167 OFFCURVE",
"672.667 808.333 OFFCURVE",
"660 783 CURVE",
"650 833.667 OFFCURVE",
"635 887.667 OFFCURVE",
"615 945 CURVE SMOOTH",
"475 1386 LINE SMOOTH",
"467.667 1407.33 OFFCURVE",
"456.167 1424.5 OFFCURVE",
"440.5 1437.5 CURVE SMOOTH",
"424.833 1450.5 OFFCURVE",
"403 1457 OFFCURVE",
"375 1457 CURVE SMOOTH",
"85 1457 LINE",
"460 555 LINE",
"391 0 LINE",
"717 0 LINE"
);
}
);
width = 1261;
}
);
leftKerningGroup = Y;
rightKerningGroup = Y;
unicode = 0059;
},
{
glyphname = Yacute;
layers = (
{
layerId = "421C8255-749A-4570-9FED-EBF43319311F";
name = "Bold Italic";
paths = (
{
closed = 1;
nodes = (
"85 0 LINE"
);
},
{
closed = 1;
nodes = (
"786 558 LINE",
"1383 1457 LINE",
"1113 1457 LINE SMOOTH",
"1085.67 1457 OFFCURVE",
"1062.67 1449.5 OFFCURVE",
"1044 1434.5 CURVE SMOOTH",
"1025.33 1419.5 OFFCURVE",
"1010.33 1403.33 OFFCURVE",
"999 1386 CURVE",
"751 945 LINE SMOOTH",
"733 915 OFFCURVE",
"716.5 886.833 OFFCURVE",
"701.5 860.5 CURVE SMOOTH",
"686.5 834.167 OFFCURVE",
"672.667 808.333 OFFCURVE",
"660 783 CURVE",
"650 833.667 OFFCURVE",
"635 887.667 OFFCURVE",
"615 945 CURVE SMOOTH",
"475 1386 LINE SMOOTH",
"467.667 1407.33 OFFCURVE",
"456.167 1424.5 OFFCURVE",
"440.5 1437.5 CURVE SMOOTH",
"424.833 1450.5 OFFCURVE",
"403 1457 OFFCURVE",
"375 1457 CURVE SMOOTH",
"85 1457 LINE",
"460 555 LINE",
"391 0 LINE",
"717 0 LINE"
);
},
{
closed = 1;
nodes = (
"1198 1867 LINE",
"884 1867 LINE SMOOTH",
"870 1867 OFFCURVE",
"857.667 1866.67 OFFCURVE",
"847 1866 CURVE SMOOTH",
"836.333 1865.33 OFFCURVE",
"826.667 1863.5 OFFCURVE",
"818 1860.5 CURVE SMOOTH",
"809.333 1857.5 OFFCURVE",
"801 1852.83 OFFCURVE",
"793 1846.5 CURVE SMOOTH",
"785 1840.17 OFFCURVE",
"776.667 1831.67 OFFCURVE",
"768 1821 CURVE",
"564 1551 LINE",
"771 1551 LINE SMOOTH",
"781.667 1551 OFFCURVE",
"791.167 1551.33 OFFCURVE",
"799.5 1552 CURVE SMOOTH",
"807.833 1552.67 OFFCURVE",
"815.833 1554 OFFCURVE",
"823.5 1556 CURVE SMOOTH",
"831.167 1558 OFFCURVE",
"838.5 1561 OFFCURVE",
"845.5 1565 CURVE SMOOTH",
"852.5 1569 OFFCURVE",
"860.333 1574.67 OFFCURVE",
"869 1582 CURVE SMOOTH"
);
}
);
width = 1261;
}
);
leftKerningGroup = Y;
rightKerningGroup = Y;
unicode = 00DD;
},
{
glyphname = Ycircumflex;
layers = (
{
layerId = "421C8255-749A-4570-9FED-EBF43319311F";
name = "Bold Italic";
paths = (
{
closed = 1;
nodes = (
"85 0 LINE"
);
},
{
closed = 1;
nodes = (
"786 558 LINE",
"1383 1457 LINE",
"1113 1457 LINE SMOOTH",
"1085.67 1457 OFFCURVE",
"1062.67 1449.5 OFFCURVE",
"1044 1434.5 CURVE SMOOTH",
"1025.33 1419.5 OFFCURVE",
"1010.33 1403.33 OFFCURVE",
"999 1386 CURVE",
"751 945 LINE SMOOTH",
"733 915 OFFCURVE",
"716.5 886.833 OFFCURVE",
"701.5 860.5 CURVE SMOOTH",
"686.5 834.167 OFFCURVE",
"672.667 808.333 OFFCURVE",
"660 783 CURVE",
"650 833.667 OFFCURVE",
"635 887.667 OFFCURVE",
"615 945 CURVE SMOOTH",
"475 1386 LINE SMOOTH",
"467.667 1407.33 OFFCURVE",
"456.167 1424.5 OFFCURVE",
"440.5 1437.5 CURVE SMOOTH",
"424.833 1450.5 OFFCURVE",
"403 1457 OFFCURVE",
"375 1457 CURVE SMOOTH",
"85 1457 LINE",
"460 555 LINE",
"391 0 LINE",
"717 0 LINE"
);
},
{
closed = 1;
nodes = (
"1100 1551 LINE",
"906 1829 LINE",
"647 1829 LINE",
"391 1551 LINE",
"588 1551 LINE SMOOTH",
"599.333 1551 OFFCURVE",
"613.167 1553.17 OFFCURVE",
"629.5 1557.5 CURVE SMOOTH",
"645.833 1561.83 OFFCURVE",
"664 1575 OFFCURVE",
"684 1597 CURVE",
"738 1675 LINE",
"757 1700 LINE",
"771 1675 LINE",
"809 1597 LINE",
"815.667 1585.67 OFFCURVE",
"822.833 1577 OFFCURVE",
"830.5 1571 CURVE SMOOTH",
"838.167 1565 OFFCURVE",
"845.833 1560.5 OFFCURVE",
"853.5 1557.5 CURVE SMOOTH",
"861.167 1554.5 OFFCURVE",
"868.333 1552.67 OFFCURVE",
"875 1552 CURVE SMOOTH",
"881.667 1551.33 OFFCURVE",
"888 1551 OFFCURVE",
"894 1551 CURVE SMOOTH"
);
}
);
width = 1261;
}
);
leftKerningGroup = Y;
rightKerningGroup = Y;
unicode = 0176;
},
{
glyphname = Z;
layers = (
{
layerId = "421C8255-749A-4570-9FED-EBF43319311F";
name = "Bold Italic";
paths = (
{
closed = 1;
nodes = (
"1193 1457 LINE",
"185 1457 LINE",
"153 1206 LINE",
"736 1206 LINE",
"-1 169 LINE SMOOTH",
"-9 157.667 OFFCURVE",
"-16 146 OFFCURVE",
"-23 134 CURVE SMOOTH",
"-29 122 OFFCURVE",
"-33 109.333 OFFCURVE",
"-35 96 CURVE SMOOTH",
"-47 0 LINE",
"993 0 LINE",
"1025 251 LINE",
"409 251 LINE",
"1145 1286 LINE SMOOTH",
"1153 1297.33 OFFCURVE",
"1160.17 1309 OFFCURVE",
"1166.5 1321 CURVE SMOOTH",
"1172.83 1333 OFFCURVE",
"1177 1345.67 OFFCURVE",
"1179 1359 CURVE SMOOTH"
);
}
);
width = 1132;
}
);
leftKerningGroup = Z;
rightKerningGroup = Z;
unicode = 005A;
},
{
glyphname = a;
layers = (
{
layerId = "421C8255-749A-4570-9FED-EBF43319311F";
name = "Bold Italic";
paths = (
{
closed = 1;
nodes = (
"889 0 LINE",
"1015 1007 LINE",
"965.667 1024.33 OFFCURVE",
"915.667 1036.33 OFFCURVE",
"865 1043 CURVE SMOOTH",
"814.333 1049.67 OFFCURVE",
"764.333 1053 OFFCURVE",
"715 1053 CURVE SMOOTH",
"613.667 1053 OFFCURVE",
"520.667 1034.33 OFFCURVE",
"436 997 CURVE SMOOTH",
"351.333 959.667 OFFCURVE",
"278.167 909.333 OFFCURVE",
"216.5 846 CURVE SMOOTH",
"154.833 782.667 OFFCURVE",
"106.833 708.833 OFFCURVE",
"72.5 624.5 CURVE SMOOTH",
"38.1667 540.167 OFFCURVE",
"21 451 OFFCURVE",
"21 357 CURVE SMOOTH",
"21 293 OFFCURVE",
"29 237.5 OFFCURVE",
"45 190.5 CURVE SMOOTH",
"61 143.5 OFFCURVE",
"82.3333 104.833 OFFCURVE",
"109 74.5001 CURVE SMOOTH",
"135.667 44.1667 OFFCURVE",
"166.333 21.5001 OFFCURVE",
"201 6.50006 CURVE SMOOTH",
"235.667 -8 OFFCURVE",
"271.667 -16 OFFCURVE",
"309 -16 CURVE SMOOTH",
"371.667 -16 OFFCURVE",
"429 0.666733 OFFCURVE",
"481 34 CURVE SMOOTH",
"533 67.3334 OFFCURVE",
"580.333 113.333 OFFCURVE",
"623 172 CURVE",
"623 98 LINE SMOOTH",
"623 84 OFFCURVE",
"624.5 71 OFFCURVE",
"627.5 59 CURVE SMOOTH",
"630.5 47 OFFCURVE",
"635.833 36.6667 OFFCURVE",
"643.5 28 CURVE SMOOTH",
"651.167 19.3334 OFFCURVE",
"661.5 12.5001 OFFCURVE",
"674.5 7.50006 CURVE SMOOTH",
"687.5 2.50006 OFFCURVE",
"703.667 6.10352 OFFCURVE",
"0 0 CURVE"
);
},
{
closed = 1;
nodes = (
"418.333 229 OFFCURVE",
"404.833 232.333 OFFCURVE",
"392.5 239 CURVE SMOOTH",
"380.167 245.667 OFFCURVE",
"369.5 256.167 OFFCURVE",
"360.5 270.5 CURVE SMOOTH",
"351.5 284.833 OFFCURVE",
"344.333 303.667 OFFCURVE",
"339 327 CURVE SMOOTH",
"333.667 350.333 OFFCURVE",
"331 378.667 OFFCURVE",
"331 412 CURVE SMOOTH",
"331 470.667 OFFCURVE",
"339.167 525.833 OFFCURVE",
"355.5 577.5 CURVE SMOOTH",
"371.833 629.167 OFFCURVE",
"395 674.5 OFFCURVE",
"425 713.5 CURVE SMOOTH",
"455 752.5 OFFCURVE",
"490.833 783.333 OFFCURVE",
"532.5 806 CURVE SMOOTH",
"574.167 828.667 OFFCURVE",
"620.333 840 OFFCURVE",
"671 840 CURVE SMOOTH",
"689 840 LINE",
"653 553 LINE",
"641.667 508.333 OFFCURVE",
"628 466.333 OFFCURVE",
"612 427 CURVE SMOOTH",
"596 387.667 OFFCURVE",
"578.5 353.333 OFFCURVE",
"559.5 324 CURVE SMOOTH",
"540.5 294.667 OFFCURVE",
"520.333 271.5 OFFCURVE",
"499 254.5 CURVE SMOOTH",
"477.667 237.5 OFFCURVE",
"455.667 229 OFFCURVE",
"433 229 CURVE SMOOTH"
);
}
);
width = 1061;
}
);
leftKerningGroup = a;
rightKerningGroup = a;
unicode = 0061;
},
{
glyphname = aacute;
layers = (
{
layerId = "421C8255-749A-4570-9FED-EBF43319311F";
name = "Bold Italic";
paths = (
{
closed = 1;
nodes = (
"21 0 LINE"
);
},
{
closed = 1;
nodes = (
"889 0 LINE",
"1015 1007 LINE",
"965.667 1024.33 OFFCURVE",
"915.667 1036.33 OFFCURVE",
"865 1043 CURVE SMOOTH",
"814.333 1049.67 OFFCURVE",
"764.333 1053 OFFCURVE",
"715 1053 CURVE SMOOTH",
"613.667 1053 OFFCURVE",
"520.667 1034.33 OFFCURVE",
"436 997 CURVE SMOOTH",
"351.333 959.667 OFFCURVE",
"278.167 909.333 OFFCURVE",
"216.5 846 CURVE SMOOTH",
"154.833 782.667 OFFCURVE",
"106.833 708.833 OFFCURVE",
"72.5 624.5 CURVE SMOOTH",
"38.1667 540.167 OFFCURVE",
"21 451 OFFCURVE",
"21 357 CURVE SMOOTH",
"21 293 OFFCURVE",
"29 237.5 OFFCURVE",
"45 190.5 CURVE SMOOTH",
"61 143.5 OFFCURVE",
"82.3333 104.833 OFFCURVE",
"109 74.5001 CURVE SMOOTH",
"135.667 44.1667 OFFCURVE",
"166.333 21.5001 OFFCURVE",
"201 6.50006 CURVE SMOOTH",
"235.667 -8 OFFCURVE",
"271.667 -16 OFFCURVE",
"309 -16 CURVE SMOOTH",
"371.667 -16 OFFCURVE",
"429 0.666733 OFFCURVE",
"481 34 CURVE SMOOTH",
"533 67.3334 OFFCURVE",
"580.333 113.333 OFFCURVE",
"623 172 CURVE",
"623 98 LINE SMOOTH",
"623 84 OFFCURVE",
"624.5 71 OFFCURVE",
"627.5 59 CURVE SMOOTH",
"630.5 47 OFFCURVE",
"635.833 36.6667 OFFCURVE",
"643.5 28 CURVE SMOOTH",
"651.167 19.3334 OFFCURVE",
"661.5 12.5001 OFFCURVE",
"674.5 7.50006 CURVE SMOOTH",
"687.5 2.50006 OFFCURVE",
"703.667 6.10352 OFFCURVE",
"0 0 CURVE"
);
},
{
closed = 1;
nodes = (
"418.333 229 OFFCURVE",
"404.833 232.333 OFFCURVE",
"392.5 239 CURVE SMOOTH",
"380.167 245.667 OFFCURVE",
"369.5 256.167 OFFCURVE",
"360.5 270.5 CURVE SMOOTH",
"351.5 284.833 OFFCURVE",
"344.333 303.667 OFFCURVE",
"339 327 CURVE SMOOTH",
"333.667 350.333 OFFCURVE",
"331 378.667 OFFCURVE",
"331 412 CURVE SMOOTH",
"331 470.667 OFFCURVE",
"339.167 525.833 OFFCURVE",
"355.5 577.5 CURVE SMOOTH",
"371.833 629.167 OFFCURVE",
"395 674.5 OFFCURVE",
"425 713.5 CURVE SMOOTH",
"455 752.5 OFFCURVE",
"490.833 783.333 OFFCURVE",
"532.5 806 CURVE SMOOTH",
"574.167 828.667 OFFCURVE",
"620.333 840 OFFCURVE",
"671 840 CURVE SMOOTH",
"689 840 LINE",
"653 553 LINE",
"641.667 508.333 OFFCURVE",
"628 466.333 OFFCURVE",
"612 427 CURVE SMOOTH",
"596 387.667 OFFCURVE",
"578.5 353.333 OFFCURVE",
"559.5 324 CURVE SMOOTH",
"540.5 294.667 OFFCURVE",
"520.333 271.5 OFFCURVE",
"499 254.5 CURVE SMOOTH",
"477.667 237.5 OFFCURVE",
"455.667 229 OFFCURVE",
"433 229 CURVE SMOOTH"
);
},
{
closed = 1;
nodes = (
"1122 1473 LINE",
"846 1473 LINE SMOOTH",
"817.333 1473 OFFCURVE",
"795.167 1467.83 OFFCURVE",
"779.5 1457.5 CURVE SMOOTH",
"763.833 1447.17 OFFCURVE",
"749.667 1432.33 OFFCURVE",
"737 1413 CURVE SMOOTH",
"585 1168 LINE",
"756 1168 LINE SMOOTH",
"777.333 1168 OFFCURVE",
"794.833 1171.17 OFFCURVE",
"808.5 1177.5 CURVE SMOOTH",
"822.167 1183.83 OFFCURVE",
"836.667 1194.67 OFFCURVE",
"852 1210 CURVE SMOOTH"
);
}
);
width = 1061;
}
);
leftKerningGroup = a;
rightKerningGroup = a;
unicode = 00E1;
},
{
glyphname = acircumflex;
layers = (
{
layerId = "421C8255-749A-4570-9FED-EBF43319311F";
name = "Bold Italic";
paths = (
{
closed = 1;
nodes = (
"21 0 LINE"
);
},
{
closed = 1;
nodes = (
"889 0 LINE",
"1015 1007 LINE",
"965.667 1024.33 OFFCURVE",
"915.667 1036.33 OFFCURVE",
"865 1043 CURVE SMOOTH",
"814.333 1049.67 OFFCURVE",
"764.333 1053 OFFCURVE",
"715 1053 CURVE SMOOTH",
"613.667 1053 OFFCURVE",
"520.667 1034.33 OFFCURVE",
"436 997 CURVE SMOOTH",
"351.333 959.667 OFFCURVE",
"278.167 909.333 OFFCURVE",
"216.5 846 CURVE SMOOTH",
"154.833 782.667 OFFCURVE",
"106.833 708.833 OFFCURVE",
"72.5 624.5 CURVE SMOOTH",
"38.1667 540.167 OFFCURVE",
"21 451 OFFCURVE",
"21 357 CURVE SMOOTH",
"21 293 OFFCURVE",
"29 237.5 OFFCURVE",
"45 190.5 CURVE SMOOTH",
"61 143.5 OFFCURVE",
"82.3333 104.833 OFFCURVE",
"109 74.5001 CURVE SMOOTH",
"135.667 44.1667 OFFCURVE",
"166.333 21.5001 OFFCURVE",
"201 6.50006 CURVE SMOOTH",
"235.667 -8 OFFCURVE",
"271.667 -16 OFFCURVE",
"309 -16 CURVE SMOOTH",
"371.667 -16 OFFCURVE",
"429 0.666733 OFFCURVE",
"481 34 CURVE SMOOTH",
"533 67.3334 OFFCURVE",
"580.333 113.333 OFFCURVE",
"623 172 CURVE",
"623 98 LINE SMOOTH",
"623 84 OFFCURVE",
"624.5 71 OFFCURVE",
"627.5 59 CURVE SMOOTH",
"630.5 47 OFFCURVE",
"635.833 36.6667 OFFCURVE",
"643.5 28 CURVE SMOOTH",
"651.167 19.3334 OFFCURVE",
"661.5 12.5001 OFFCURVE",
"674.5 7.50006 CURVE SMOOTH",
"687.5 2.50006 OFFCURVE",
"703.667 6.10352 OFFCURVE",
"0 0 CURVE"
);
},
{
closed = 1;
nodes = (
"418.333 229 OFFCURVE",
"404.833 232.333 OFFCURVE",
"392.5 239 CURVE SMOOTH",
"380.167 245.667 OFFCURVE",
"369.5 256.167 OFFCURVE",
"360.5 270.5 CURVE SMOOTH",
"351.5 284.833 OFFCURVE",
"344.333 303.667 OFFCURVE",
"339 327 CURVE SMOOTH",
"333.667 350.333 OFFCURVE",
"331 378.667 OFFCURVE",
"331 412 CURVE SMOOTH",
"331 470.667 OFFCURVE",
"339.167 525.833 OFFCURVE",
"355.5 577.5 CURVE SMOOTH",
"371.833 629.167 OFFCURVE",
"395 674.5 OFFCURVE",
"425 713.5 CURVE SMOOTH",
"455 752.5 OFFCURVE",
"490.833 783.333 OFFCURVE",
"532.5 806 CURVE SMOOTH",
"574.167 828.667 OFFCURVE",
"620.333 840 OFFCURVE",
"671 840 CURVE SMOOTH",
"689 840 LINE",
"653 553 LINE",
"641.667 508.333 OFFCURVE",
"628 466.333 OFFCURVE",
"612 427 CURVE SMOOTH",
"596 387.667 OFFCURVE",
"578.5 353.333 OFFCURVE",
"559.5 324 CURVE SMOOTH",
"540.5 294.667 OFFCURVE",
"520.333 271.5 OFFCURVE",
"499 254.5 CURVE SMOOTH",
"477.667 237.5 OFFCURVE",
"455.667 229 OFFCURVE",
"433 229 CURVE SMOOTH"
);
},
{
closed = 1;
nodes = (
"1040 1168 LINE",
"858 1457 LINE",
"589 1457 LINE",
"341 1168 LINE",
"538 1168 LINE SMOOTH",
"549.333 1168 OFFCURVE",
"560.667 1170.33 OFFCURVE",
"572 1175 CURVE SMOOTH",
"583.333 1179.67 OFFCURVE",
"594 1186.67 OFFCURVE",
"604 1196 CURVE",
"684 1279 LINE",
"691.333 1285.67 OFFCURVE",
"700 1295 OFFCURVE",
"710 1307 CURVE",
"713.333 1301.67 OFFCURVE",
"716.667 1296.67 OFFCURVE",
"720 1292 CURVE SMOOTH",
"723.333 1287.33 OFFCURVE",
"726.667 1283 OFFCURVE",
"730 1279 CURVE",
"790 1196 LINE",
"799.333 1184.67 OFFCURVE",
"809 1177.17 OFFCURVE",
"819 1173.5 CURVE SMOOTH",
"829 1169.83 OFFCURVE",
"839.667 1168 OFFCURVE",
"851 1168 CURVE SMOOTH"
);
}
);
width = 1061;
}
);
leftKerningGroup = a;
rightKerningGroup = a;
unicode = 00E2;
},
{
glyphname = adieresis;
layers = (
{
layerId = "421C8255-749A-4570-9FED-EBF43319311F";
name = "Bold Italic";
paths = (
{
closed = 1;
nodes = (
"21 0 LINE"
);
},
{
closed = 1;
nodes = (
"889 0 LINE",
"1015 1007 LINE",
"965.667 1024.33 OFFCURVE",
"915.667 1036.33 OFFCURVE",
"865 1043 CURVE SMOOTH",
"814.333 1049.67 OFFCURVE",
"764.333 1053 OFFCURVE",
"715 1053 CURVE SMOOTH",
"613.667 1053 OFFCURVE",
"520.667 1034.33 OFFCURVE",
"436 997 CURVE SMOOTH",
"351.333 959.667 OFFCURVE",
"278.167 909.333 OFFCURVE",
"216.5 846 CURVE SMOOTH",
"154.833 782.667 OFFCURVE",
"106.833 708.833 OFFCURVE",
"72.5 624.5 CURVE SMOOTH",
"38.1667 540.167 OFFCURVE",
"21 451 OFFCURVE",
"21 357 CURVE SMOOTH",
"21 293 OFFCURVE",
"29 237.5 OFFCURVE",
"45 190.5 CURVE SMOOTH",
"61 143.5 OFFCURVE",
"82.3333 104.833 OFFCURVE",
"109 74.5001 CURVE SMOOTH",
"135.667 44.1667 OFFCURVE",
"166.333 21.5001 OFFCURVE",
"201 6.50006 CURVE SMOOTH",
"235.667 -8 OFFCURVE",
"271.667 -16 OFFCURVE",
"309 -16 CURVE SMOOTH",
"371.667 -16 OFFCURVE",
"429 0.666733 OFFCURVE",
"481 34 CURVE SMOOTH",
"533 67.3334 OFFCURVE",
"580.333 113.333 OFFCURVE",
"623 172 CURVE",
"623 98 LINE SMOOTH",
"623 84 OFFCURVE",
"624.5 71 OFFCURVE",
"627.5 59 CURVE SMOOTH",
"630.5 47 OFFCURVE",
"635.833 36.6667 OFFCURVE",
"643.5 28 CURVE SMOOTH",
"651.167 19.3334 OFFCURVE",
"661.5 12.5001 OFFCURVE",
"674.5 7.50006 CURVE SMOOTH",
"687.5 2.50006 OFFCURVE",
"703.667 6.10352 OFFCURVE",
"0 0 CURVE"
);
},
{
closed = 1;
nodes = (
"418.333 229 OFFCURVE",
"404.833 232.333 OFFCURVE",
"392.5 239 CURVE SMOOTH",
"380.167 245.667 OFFCURVE",
"369.5 256.167 OFFCURVE",
"360.5 270.5 CURVE SMOOTH",
"351.5 284.833 OFFCURVE",
"344.333 303.667 OFFCURVE",
"339 327 CURVE SMOOTH",
"333.667 350.333 OFFCURVE",
"331 378.667 OFFCURVE",
"331 412 CURVE SMOOTH",
"331 470.667 OFFCURVE",
"339.167 525.833 OFFCURVE",
"355.5 577.5 CURVE SMOOTH",
"371.833 629.167 OFFCURVE",
"395 674.5 OFFCURVE",
"425 713.5 CURVE SMOOTH",
"455 752.5 OFFCURVE",
"490.833 783.333 OFFCURVE",
"532.5 806 CURVE SMOOTH",
"574.167 828.667 OFFCURVE",
"620.333 840 OFFCURVE",
"671 840 CURVE SMOOTH",
"689 840 LINE",
"653 553 LINE",
"641.667 508.333 OFFCURVE",
"628 466.333 OFFCURVE",
"612 427 CURVE SMOOTH",
"596 387.667 OFFCURVE",
"578.5 353.333 OFFCURVE",
"559.5 324 CURVE SMOOTH",
"540.5 294.667 OFFCURVE",
"520.333 271.5 OFFCURVE",
"499 254.5 CURVE SMOOTH",
"477.667 237.5 OFFCURVE",
"455.667 229 OFFCURVE",
"433 229 CURVE SMOOTH"
);
},
{
closed = 1;
nodes = (
"682 1317 OFFCURVE",
"677.667 1337.67 OFFCURVE",
"669 1357 CURVE SMOOTH",
"660.333 1376.33 OFFCURVE",
"648.5 1393.17 OFFCURVE",
"633.5 1407.5 CURVE SMOOTH",
"618.5 1421.83 OFFCURVE",
"601.167 1433.17 OFFCURVE",
"581.5 1441.5 CURVE SMOOTH",
"561.833 1449.83 OFFCURVE",
"540.667 1454 OFFCURVE",
"518 1454 CURVE SMOOTH",
"496.667 1454 OFFCURVE",
"476.5 1449.83 OFFCURVE",
"457.5 1441.5 CURVE SMOOTH",
"438.5 1433.17 OFFCURVE",
"421.833 1421.83 OFFCURVE",
"407.5 1407.5 CURVE SMOOTH",
"393.167 1393.17 OFFCURVE",
"381.667 1376.33 OFFCURVE",
"373 1357 CURVE SMOOTH",
"364.333 1337.67 OFFCURVE",
"360 1317 OFFCURVE",
"360 1295 CURVE SMOOTH",
"360 1273.67 OFFCURVE",
"364.333 1253.67 OFFCURVE",
"373 1235 CURVE SMOOTH",
"381.667 1216.33 OFFCURVE",
"393.167 1200.17 OFFCURVE",
"407.5 1186.5 CURVE SMOOTH",
"421.833 1172.83 OFFCURVE",
"438.5 1162 OFFCURVE",
"457.5 1154 CURVE SMOOTH",
"476.5 1146 OFFCURVE",
"496.667 1142 OFFCURVE",
"518 1142 CURVE SMOOTH",
"540.667 1142 OFFCURVE",
"561.833 1146 OFFCURVE",
"581.5 1154 CURVE SMOOTH",
"601.167 1162 OFFCURVE",
"618.5 1172.83 OFFCURVE",
"633.5 1186.5 CURVE SMOOTH",
"648.5 1200.17 OFFCURVE",
"660.333 1216.33 OFFCURVE",
"669 1235 CURVE SMOOTH",
"677.667 1253.67 OFFCURVE",
"682 1273.67 OFFCURVE",
"682 1295 CURVE SMOOTH"
);
},
{
closed = 1;
nodes = (
"1088 1317 OFFCURVE",
"1083.83 1337.67 OFFCURVE",
"1075.5 1357 CURVE SMOOTH",
"1067.17 1376.33 OFFCURVE",
"1055.67 1393.17 OFFCURVE",
"1041 1407.5 CURVE SMOOTH",
"1026.33 1421.83 OFFCURVE",
"1009.17 1433.17 OFFCURVE",
"989.5 1441.5 CURVE SMOOTH",
"969.833 1449.83 OFFCURVE",
"948.667 1454 OFFCURVE",
"926 1454 CURVE SMOOTH",
"904 1454 OFFCURVE",
"883.333 1449.83 OFFCURVE",
"864 1441.5 CURVE SMOOTH",
"844.667 1433.17 OFFCURVE",
"827.667 1421.83 OFFCURVE",
"813 1407.5 CURVE SMOOTH",
"798.333 1393.17 OFFCURVE",
"786.833 1376.33 OFFCURVE",
"778.5 1357 CURVE SMOOTH",
"770.167 1337.67 OFFCURVE",
"766 1317 OFFCURVE",
"766 1295 CURVE SMOOTH",
"766 1273.67 OFFCURVE",
"770.167 1253.67 OFFCURVE",
"778.5 1235 CURVE SMOOTH",
"786.833 1216.33 OFFCURVE",
"798.333 1200.17 OFFCURVE",
"813 1186.5 CURVE SMOOTH",
"827.667 1172.83 OFFCURVE",
"844.667 1162 OFFCURVE",
"864 1154 CURVE SMOOTH",
"883.333 1146 OFFCURVE",
"904 1142 OFFCURVE",
"926 1142 CURVE SMOOTH",
"948.667 1142 OFFCURVE",
"969.833 1146 OFFCURVE",
"989.5 1154 CURVE SMOOTH",
"1009.17 1162 OFFCURVE",
"1026.33 1172.83 OFFCURVE",
"1041 1186.5 CURVE SMOOTH",
"1055.67 1200.17 OFFCURVE",
"1067.17 1216.33 OFFCURVE",
"1075.5 1235 CURVE SMOOTH",
"1083.83 1253.67 OFFCURVE",
"1088 1273.67 OFFCURVE",
"1088 1295 CURVE SMOOTH"
);
}
);
width = 1061;
}
);
leftKerningGroup = a;
rightKerningGroup = a;
unicode = 00E4;
},
{
glyphname = agrave;
layers = (
{
layerId = "421C8255-749A-4570-9FED-EBF43319311F";
name = "Bold Italic";
paths = (
{
closed = 1;
nodes = (
"21 0 LINE"
);
},
{
closed = 1;
nodes = (
"889 0 LINE",
"1015 1007 LINE",
"965.667 1024.33 OFFCURVE",
"915.667 1036.33 OFFCURVE",
"865 1043 CURVE SMOOTH",
"814.333 1049.67 OFFCURVE",
"764.333 1053 OFFCURVE",
"715 1053 CURVE SMOOTH",
"613.667 1053 OFFCURVE",
"520.667 1034.33 OFFCURVE",
"436 997 CURVE SMOOTH",
"351.333 959.667 OFFCURVE",
"278.167 909.333 OFFCURVE",
"216.5 846 CURVE SMOOTH",
"154.833 782.667 OFFCURVE",
"106.833 708.833 OFFCURVE",
"72.5 624.5 CURVE SMOOTH",
"38.1667 540.167 OFFCURVE",
"21 451 OFFCURVE",
"21 357 CURVE SMOOTH",
"21 293 OFFCURVE",
"29 237.5 OFFCURVE",
"45 190.5 CURVE SMOOTH",
"61 143.5 OFFCURVE",
"82.3333 104.833 OFFCURVE",
"109 74.5001 CURVE SMOOTH",
"135.667 44.1667 OFFCURVE",
"166.333 21.5001 OFFCURVE",
"201 6.50006 CURVE SMOOTH",
"235.667 -8 OFFCURVE",
"271.667 -16 OFFCURVE",
"309 -16 CURVE SMOOTH",
"371.667 -16 OFFCURVE",
"429 0.666733 OFFCURVE",
"481 34 CURVE SMOOTH",
"533 67.3334 OFFCURVE",
"580.333 113.333 OFFCURVE",
"623 172 CURVE",
"623 98 LINE SMOOTH",
"623 84 OFFCURVE",
"624.5 71 OFFCURVE",
"627.5 59 CURVE SMOOTH",
"630.5 47 OFFCURVE",
"635.833 36.6667 OFFCURVE",
"643.5 28 CURVE SMOOTH",
"651.167 19.3334 OFFCURVE",
"661.5 12.5001 OFFCURVE",
"674.5 7.50006 CURVE SMOOTH",
"687.5 2.50006 OFFCURVE",
"703.667 6.10352 OFFCURVE",
"0 0 CURVE"
);
},
{
closed = 1;
nodes = (
"418.333 229 OFFCURVE",
"404.833 232.333 OFFCURVE",
"392.5 239 CURVE SMOOTH",
"380.167 245.667 OFFCURVE",
"369.5 256.167 OFFCURVE",
"360.5 270.5 CURVE SMOOTH",
"351.5 284.833 OFFCURVE",
"344.333 303.667 OFFCURVE",
"339 327 CURVE SMOOTH",
"333.667 350.333 OFFCURVE",
"331 378.667 OFFCURVE",
"331 412 CURVE SMOOTH",
"331 470.667 OFFCURVE",
"339.167 525.833 OFFCURVE",
"355.5 577.5 CURVE SMOOTH",
"371.833 629.167 OFFCURVE",
"395 674.5 OFFCURVE",
"425 713.5 CURVE SMOOTH",
"455 752.5 OFFCURVE",
"490.833 783.333 OFFCURVE",
"532.5 806 CURVE SMOOTH",
"574.167 828.667 OFFCURVE",
"620.333 840 OFFCURVE",
"671 840 CURVE SMOOTH",
"689 840 LINE",
"653 553 LINE",
"641.667 508.333 OFFCURVE",
"628 466.333 OFFCURVE",
"612 427 CURVE SMOOTH",
"596 387.667 OFFCURVE",
"578.5 353.333 OFFCURVE",
"559.5 324 CURVE SMOOTH",
"540.5 294.667 OFFCURVE",
"520.333 271.5 OFFCURVE",
"499 254.5 CURVE SMOOTH",
"477.667 237.5 OFFCURVE",
"455.667 229 OFFCURVE",
"433 229 CURVE SMOOTH"
);
},
{
closed = 1;
nodes = (
"397 1473 LINE",
"606 1210 LINE SMOOTH",
"618 1194.67 OFFCURVE",
"630.167 1183.83 OFFCURVE",
"642.5 1177.5 CURVE SMOOTH",
"654.833 1171.17 OFFCURVE",
"671.667 1168 OFFCURVE",
"693 1168 CURVE SMOOTH",
"855 1168 LINE",
"758 1413 LINE SMOOTH",
"750 1432.33 OFFCURVE",
"739.5 1447.17 OFFCURVE",
"726.5 1457.5 CURVE SMOOTH",
"713.5 1467.83 OFFCURVE",
"692.667 1473 OFFCURVE",
"664 1473 CURVE SMOOTH"
);
}
);
width = 1061;
}
);
leftKerningGroup = a;
rightKerningGroup = a;
unicode = 00E0;
},
{
glyphname = aring;
layers = (
{
layerId = "421C8255-749A-4570-9FED-EBF43319311F";
name = "Bold Italic";
paths = (
{
closed = 1;
nodes = (
"21 0 LINE"
);
},
{
closed = 1;
nodes = (
"889 0 LINE",
"1015 1007 LINE",
"965.667 1024.33 OFFCURVE",
"915.667 1036.33 OFFCURVE",
"865 1043 CURVE SMOOTH",
"814.333 1049.67 OFFCURVE",
"764.333 1053 OFFCURVE",
"715 1053 CURVE SMOOTH",
"613.667 1053 OFFCURVE",
"520.667 1034.33 OFFCURVE",
"436 997 CURVE SMOOTH",
"351.333 959.667 OFFCURVE",
"278.167 909.333 OFFCURVE",
"216.5 846 CURVE SMOOTH",
"154.833 782.667 OFFCURVE",
"106.833 708.833 OFFCURVE",
"72.5 624.5 CURVE SMOOTH",
"38.1667 540.167 OFFCURVE",
"21 451 OFFCURVE",
"21 357 CURVE SMOOTH",
"21 293 OFFCURVE",
"29 237.5 OFFCURVE",
"45 190.5 CURVE SMOOTH",
"61 143.5 OFFCURVE",
"82.3333 104.833 OFFCURVE",
"109 74.5001 CURVE SMOOTH",
"135.667 44.1667 OFFCURVE",
"166.333 21.5001 OFFCURVE",
"201 6.50006 CURVE SMOOTH",
"235.667 -8 OFFCURVE",
"271.667 -16 OFFCURVE",
"309 -16 CURVE SMOOTH",
"371.667 -16 OFFCURVE",
"429 0.666733 OFFCURVE",
"481 34 CURVE SMOOTH",
"533 67.3334 OFFCURVE",
"580.333 113.333 OFFCURVE",
"623 172 CURVE",
"623 98 LINE SMOOTH",
"623 84 OFFCURVE",
"624.5 71 OFFCURVE",
"627.5 59 CURVE SMOOTH",
"630.5 47 OFFCURVE",
"635.833 36.6667 OFFCURVE",
"643.5 28 CURVE SMOOTH",
"651.167 19.3334 OFFCURVE",
"661.5 12.5001 OFFCURVE",
"674.5 7.50006 CURVE SMOOTH",
"687.5 2.50006 OFFCURVE",
"703.667 6.10352 OFFCURVE",
"0 0 CURVE"
);
},
{
closed = 1;
nodes = (
"418.333 229 OFFCURVE",
"404.833 232.333 OFFCURVE",
"392.5 239 CURVE SMOOTH",
"380.167 245.667 OFFCURVE",
"369.5 256.167 OFFCURVE",
"360.5 270.5 CURVE SMOOTH",
"351.5 284.833 OFFCURVE",
"344.333 303.667 OFFCURVE",
"339 327 CURVE SMOOTH",
"333.667 350.333 OFFCURVE",
"331 378.667 OFFCURVE",
"331 412 CURVE SMOOTH",
"331 470.667 OFFCURVE",
"339.167 525.833 OFFCURVE",
"355.5 577.5 CURVE SMOOTH",
"371.833 629.167 OFFCURVE",
"395 674.5 OFFCURVE",
"425 713.5 CURVE SMOOTH",
"455 752.5 OFFCURVE",
"490.833 783.333 OFFCURVE",
"532.5 806 CURVE SMOOTH",
"574.167 828.667 OFFCURVE",
"620.333 840 OFFCURVE",
"671 840 CURVE SMOOTH",
"689 840 LINE",
"653 553 LINE",
"641.667 508.333 OFFCURVE",
"628 466.333 OFFCURVE",
"612 427 CURVE SMOOTH",
"596 387.667 OFFCURVE",
"578.5 353.333 OFFCURVE",
"559.5 324 CURVE SMOOTH",
"540.5 294.667 OFFCURVE",
"520.333 271.5 OFFCURVE",
"499 254.5 CURVE SMOOTH",
"477.667 237.5 OFFCURVE",
"455.667 229 OFFCURVE",
"433 229 CURVE SMOOTH"
);
},
{
closed = 1;
nodes = (
"515 1301.33 OFFCURVE",
"517.667 1271.83 OFFCURVE",
"527 1245.5 CURVE SMOOTH",
"536.333 1219.17 OFFCURVE",
"550.167 1196.67 OFFCURVE",
"568.5 1178 CURVE SMOOTH",
"586.833 1159.33 OFFCURVE",
"608.833 1144.83 OFFCURVE",
"634.5 1134.5 CURVE SMOOTH",
"660.167 1124.17 OFFCURVE",
"687.667 1119 OFFCURVE",
"717 1119 CURVE SMOOTH",
"747.667 1119 OFFCURVE",
"777.333 1124.17 OFFCURVE",
"806 1134.5 CURVE SMOOTH",
"834.667 1144.83 OFFCURVE",
"860.5 1159.33 OFFCURVE",
"883.5 1178 CURVE SMOOTH",
"906.5 1196.67 OFFCURVE",
"925.667 1219.17 OFFCURVE",
"941 1245.5 CURVE SMOOTH",
"956.333 1271.83 OFFCURVE",
"966 1301.33 OFFCURVE",
"970 1334 CURVE SMOOTH",
"974 1367.33 OFFCURVE",
"971.333 1397.5 OFFCURVE",
"962 1424.5 CURVE SMOOTH",
"952.667 1451.5 OFFCURVE",
"938.5 1474.67 OFFCURVE",
"919.5 1494 CURVE SMOOTH",
"900.5 1513.33 OFFCURVE",
"877.833 1528.17 OFFCURVE",
"851.5 1538.5 CURVE SMOOTH",
"825.167 1548.83 OFFCURVE",
"797 1554 OFFCURVE",
"767 1554 CURVE SMOOTH",
"737.667 1554 OFFCURVE",
"708.833 1548.83 OFFCURVE",
"680.5 1538.5 CURVE SMOOTH",
"652.167 1528.17 OFFCURVE",
"626.667 1513.33 OFFCURVE",
"604 1494 CURVE SMOOTH",
"581.333 1474.67 OFFCURVE",
"562.5 1451.5 OFFCURVE",
"547.5 1424.5 CURVE SMOOTH",
"532.5 1397.5 OFFCURVE",
"523 1367.33 OFFCURVE",
"519 1334 CURVE SMOOTH"
);
},
{
closed = 1;
nodes = (
"675.333 1359.33 OFFCURVE",
"683.5 1379.33 OFFCURVE",
"696.5 1394 CURVE SMOOTH",
"709.5 1408.67 OFFCURVE",
"728.667 1416 OFFCURVE",
"754 1416 CURVE SMOOTH",
"776 1416 OFFCURVE",
"792.833 1408.67 OFFCURVE",
"804.5 1394 CURVE SMOOTH",
"816.167 1379.33 OFFCURVE",
"820.333 1359.33 OFFCURVE",
"817 1334 CURVE SMOOTH",
"814.333 1310.67 OFFCURVE",
"805.833 1291.5 OFFCURVE",
"791.5 1276.5 CURVE SMOOTH",
"777.167 1261.5 OFFCURVE",
"759 1254 OFFCURVE",
"737 1254 CURVE SMOOTH",
"711.667 1254 OFFCURVE",
"693.833 1261.5 OFFCURVE",
"683.5 1276.5 CURVE SMOOTH",
"673.167 1291.5 OFFCURVE",
"669.333 1310.67 OFFCURVE",
"672 1334 CURVE SMOOTH"
);
}
);
width = 1061;
}
);
leftKerningGroup = a;
rightKerningGroup = a;
unicode = 00E5;
},
{
glyphname = atilde;
layers = (
{
layerId = "421C8255-749A-4570-9FED-EBF43319311F";
name = "Bold Italic";
paths = (
{
closed = 1;
nodes = (
"21 0 LINE"
);
},
{
closed = 1;
nodes = (
"889 0 LINE",
"1015 1007 LINE",
"965.667 1024.33 OFFCURVE",
"915.667 1036.33 OFFCURVE",
"865 1043 CURVE SMOOTH",
"814.333 1049.67 OFFCURVE",
"764.333 1053 OFFCURVE",
"715 1053 CURVE SMOOTH",
"613.667 1053 OFFCURVE",
"520.667 1034.33 OFFCURVE",
"436 997 CURVE SMOOTH",
"351.333 959.667 OFFCURVE",
"278.167 909.333 OFFCURVE",
"216.5 846 CURVE SMOOTH",
"154.833 782.667 OFFCURVE",
"106.833 708.833 OFFCURVE",
"72.5 624.5 CURVE SMOOTH",
"38.1667 540.167 OFFCURVE",
"21 451 OFFCURVE",
"21 357 CURVE SMOOTH",
"21 293 OFFCURVE",
"29 237.5 OFFCURVE",
"45 190.5 CURVE SMOOTH",
"61 143.5 OFFCURVE",
"82.3333 104.833 OFFCURVE",
"109 74.5001 CURVE SMOOTH",
"135.667 44.1667 OFFCURVE",
"166.333 21.5001 OFFCURVE",
"201 6.50006 CURVE SMOOTH",
"235.667 -8 OFFCURVE",
"271.667 -16 OFFCURVE",
"309 -16 CURVE SMOOTH",
"371.667 -16 OFFCURVE",
"429 0.666733 OFFCURVE",
"481 34 CURVE SMOOTH",
"533 67.3334 OFFCURVE",
"580.333 113.333 OFFCURVE",
"623 172 CURVE",
"623 98 LINE SMOOTH",
"623 84 OFFCURVE",
"624.5 71 OFFCURVE",
"627.5 59 CURVE SMOOTH",
"630.5 47 OFFCURVE",
"635.833 36.6667 OFFCURVE",
"643.5 28 CURVE SMOOTH",
"651.167 19.3334 OFFCURVE",
"661.5 12.5001 OFFCURVE",
"674.5 7.50006 CURVE SMOOTH",
"687.5 2.50006 OFFCURVE",
"703.667 6.10352 OFFCURVE",
"0 0 CURVE"
);
},
{
closed = 1;
nodes = (
"418.333 229 OFFCURVE",
"404.833 232.333 OFFCURVE",
"392.5 239 CURVE SMOOTH",
"380.167 245.667 OFFCURVE",
"369.5 256.167 OFFCURVE",
"360.5 270.5 CURVE SMOOTH",
"351.5 284.833 OFFCURVE",
"344.333 303.667 OFFCURVE",
"339 327 CURVE SMOOTH",
"333.667 350.333 OFFCURVE",
"331 378.667 OFFCURVE",
"331 412 CURVE SMOOTH",
"331 470.667 OFFCURVE",
"339.167 525.833 OFFCURVE",
"355.5 577.5 CURVE SMOOTH",
"371.833 629.167 OFFCURVE",
"395 674.5 OFFCURVE",
"425 713.5 CURVE SMOOTH",
"455 752.5 OFFCURVE",
"490.833 783.333 OFFCURVE",
"532.5 806 CURVE SMOOTH",
"574.167 828.667 OFFCURVE",
"620.333 840 OFFCURVE",
"671 840 CURVE SMOOTH",
"689 840 LINE",
"653 553 LINE",
"641.667 508.333 OFFCURVE",
"628 466.333 OFFCURVE",
"612 427 CURVE SMOOTH",
"596 387.667 OFFCURVE",
"578.5 353.333 OFFCURVE",
"559.5 324 CURVE SMOOTH",
"540.5 294.667 OFFCURVE",
"520.333 271.5 OFFCURVE",
"499 254.5 CURVE SMOOTH",
"477.667 237.5 OFFCURVE",
"455.667 229 OFFCURVE",
"433 229 CURVE SMOOTH"
);
},
{
closed = 1;
nodes = (
"812.333 1387 OFFCURVE",
"800.667 1390.83 OFFCURVE",
"788 1398.5 CURVE SMOOTH",
"775.333 1406.17 OFFCURVE",
"761.167 1414.67 OFFCURVE",
"745.5 1424 CURVE SMOOTH",
"729.833 1433.33 OFFCURVE",
"712.5 1441.83 OFFCURVE",
"693.5 1449.5 CURVE SMOOTH",
"674.5 1457.17 OFFCURVE",
"653.667 1461 OFFCURVE",
"631 1461 CURVE SMOOTH",
"601.667 1461 OFFCURVE",
"573.333 1454.5 OFFCURVE",
"546 1441.5 CURVE SMOOTH",
"518.667 1428.5 OFFCURVE",
"494 1410 OFFCURVE",
"472 1386 CURVE SMOOTH",
"450 1362 OFFCURVE",
"431.5 1333.17 OFFCURVE",
"416.5 1299.5 CURVE SMOOTH",
"401.5 1265.83 OFFCURVE",
"391.667 1228 OFFCURVE",
"387 1186 CURVE",
"562 1186 LINE",
"565.333 1213.33 OFFCURVE",
"571.5 1231.5 OFFCURVE",
"580.5 1240.5 CURVE SMOOTH",
"589.5 1249.5 OFFCURVE",
"601.667 1254 OFFCURVE",
"617 1254 CURVE SMOOTH",
"627.667 1254 OFFCURVE",
"639.333 1250.17 OFFCURVE",
"652 1242.5 CURVE SMOOTH",
"664.667 1234.83 OFFCURVE",
"679 1226.33 OFFCURVE",
"695 1217 CURVE SMOOTH",
"711 1207.67 OFFCURVE",
"728.333 1199.17 OFFCURVE",
"747 1191.5 CURVE SMOOTH",
"765.667 1183.83 OFFCURVE",
"786.333 1180 OFFCURVE",
"809 1180 CURVE SMOOTH",
"839 1180 OFFCURVE",
"867.667 1186.33 OFFCURVE",
"895 1199 CURVE SMOOTH",
"922.333 1211.67 OFFCURVE",
"946.833 1229.83 OFFCURVE",
"968.5 1253.5 CURVE SMOOTH",
"990.167 1277.17 OFFCURVE",
"1008.33 1305.83 OFFCURVE",
"1023 1339.5 CURVE SMOOTH",
"1037.67 1373.17 OFFCURVE",
"1047.67 1411 OFFCURVE",
"1053 1453 CURVE",
"880 1453 LINE",
"876.667 1425.67 OFFCURVE",
"870 1407.83 OFFCURVE",
"860 1399.5 CURVE SMOOTH",
"850 1391.17 OFFCURVE",
"837.667 1387 OFFCURVE",
"823 1387 CURVE SMOOTH"
);
}
);
width = 1061;
}
);
leftKerningGroup = a;
rightKerningGroup = a;
unicode = 00E3;
},
{
glyphname = ae;
layers = (
{
layerId = "421C8255-749A-4570-9FED-EBF43319311F";
name = "Bold Italic";
paths = (
{
closed = 1;
nodes = (
"1044.67 1051 OFFCURVE",
"983.833 1039.33 OFFCURVE",
"929.5 1016 CURVE SMOOTH",
"875.167 992.667 OFFCURVE",
"827 960 OFFCURVE",
"785 918 CURVE",
"763.667 960.667 OFFCURVE",
"731.667 994.167 OFFCURVE",
"689 1018.5 CURVE SMOOTH",
"646.333 1042.83 OFFCURVE",
"590.667 1055 OFFCURVE",
"522 1055 CURVE SMOOTH",
"446.667 1055 OFFCURVE",
"375.667 1041.5 OFFCURVE",
"309 1014.5 CURVE SMOOTH",
"242.333 987.5 OFFCURVE",
"176.667 946.667 OFFCURVE",
"112 892 CURVE",
"154 798 LINE",
"161.333 783.333 OFFCURVE",
"171.5 771 OFFCURVE",
"184.5 761 CURVE SMOOTH",
"197.5 751 OFFCURVE",
"214 746 OFFCURVE",
"234 746 CURVE SMOOTH",
"256.667 746 OFFCURVE",
"276.5 750.167 OFFCURVE",
"293.5 758.5 CURVE SMOOTH",
"310.5 766.833 OFFCURVE",
"328 775.833 OFFCURVE",
"346 785.5 CURVE SMOOTH",
"364 795.167 OFFCURVE",
"383.833 804.167 OFFCURVE",
"405.5 812.5 CURVE SMOOTH",
"427.167 820.833 OFFCURVE",
"454.667 825 OFFCURVE",
"488 825 CURVE SMOOTH",
"528 825 OFFCURVE",
"557.333 811 OFFCURVE",
"576 783 CURVE SMOOTH",
"594.667 755 OFFCURVE",
"600.667 710 OFFCURVE",
"594 648 CURVE",
"590 622 LINE",
"510.667 620 OFFCURVE",
"440.833 613 OFFCURVE",
"380.5 601 CURVE SMOOTH",
"320.167 589 OFFCURVE",
"267.833 573.5 OFFCURVE",
"223.5 554.5 CURVE SMOOTH",
"179.167 535.5 OFFCURVE",
"142 513.5 OFFCURVE",
"112 488.5 CURVE SMOOTH",
"82 463.5 OFFCURVE",
"58 437.167 OFFCURVE",
"40 409.5 CURVE SMOOTH",
"22 381.833 OFFCURVE",
"9.16663 353.167 OFFCURVE",
"1.49995 323.5 CURVE SMOOTH",
"-6 293.833 OFFCURVE",
"-10 265 OFFCURVE",
"-10 237 CURVE SMOOTH",
"-10 157.667 OFFCURVE",
"15.6666 95.6667 OFFCURVE",
"67 51 CURVE SMOOTH",
"118.333 6.33333 OFFCURVE",
"198 -16 OFFCURVE",
"306 -16 CURVE SMOOTH",
"338.667 -16 OFFCURVE",
"371.833 -13 OFFCURVE",
"405.5 -6 CURVE SMOOTH",
"439.167 1.5 OFFCURVE",
"471.833 12.3333 OFFCURVE",
"503.5 27 CURVE SMOOTH",
"535.167 41.6667 OFFCURVE",
"565.167 60.3333 OFFCURVE",
"593.5 83 CURVE SMOOTH",
"621.833 105.667 OFFCURVE",
"647.667 132.667 OFFCURVE",
"671 164 CURVE",
"705 102 OFFCURVE",
"748.667 56.5 OFFCURVE",
"802 27.5 CURVE SMOOTH",
"855.333 -2 OFFCURVE",
"912.667 -16 OFFCURVE",
"974 -16 CURVE SMOOTH",
"1023.33 -16 OFFCURVE",
"1068.83 -12 OFFCURVE",
"1110.5 -4 CURVE SMOOTH",
"1152.17 4 OFFCURVE",
"1191.5 16.5 OFFCURVE",
"1228.5 33.5 CURVE SMOOTH",
"1265.5 50.5 OFFCURVE",
"1301.5 72.1667 OFFCURVE",
"1336.5 98.5 CURVE SMOOTH",
"1371.5 124.833 OFFCURVE",
"1407.33 156 OFFCURVE",
"1444 192 CURVE",
"1364 285 LINE SMOOTH",
"1356.67 293 OFFCURVE",
"1348.33 299.5 OFFCURVE",
"1339 304.5 CURVE SMOOTH",
"1329.67 309.5 OFFCURVE",
"1320 312 OFFCURVE",
"1310 312 CURVE SMOOTH",
"1294.67 312 OFFCURVE",
"1281 309.667 OFFCURVE",
"1269 305 CURVE SMOOTH",
"1257 300.333 OFFCURVE",
"1245.5 294.333 OFFCURVE",
"1234.5 287 CURVE SMOOTH",
"1200 264 LINE SMOOTH",
"1188 256 OFFCURVE",
"1174.5 248.333 OFFCURVE",
"1159.5 241 CURVE SMOOTH",
"1144.5 233.667 OFFCURVE",
"1127 227.667 OFFCURVE",
"1107 223 CURVE SMOOTH",
"1087 218.333 OFFCURVE",
"1063.33 216 OFFCURVE",
"1036 216 CURVE SMOOTH",
"979.333 216 OFFCURVE",
"935.333 233.667 OFFCURVE",
"904 269 CURVE SMOOTH",
"872.666 304.333 OFFCURVE",
"856 361.667 OFFCURVE",
"854 441 CURVE",
"934.666 443.667 OFFCURVE",
"1005 450.5 OFFCURVE",
"1065 461.5 CURVE SMOOTH",
"1125 472.5 OFFCURVE",
"1176.5 486.333 OFFCURVE",
"1219.5 503 CURVE SMOOTH",
"1262.5 519.667 OFFCURVE",
"1297.67 538.5 OFFCURVE",
"1325 559.5 CURVE SMOOTH",
"1352.33 580.5 OFFCURVE",
"1374 602.833 OFFCURVE",
"1390 626.5 CURVE SMOOTH",
"1406 650.167 OFFCURVE",
"1417 674.5 OFFCURVE",
"1423 699.5 CURVE SMOOTH",
"1429 724.5 OFFCURVE",
"1432 749 OFFCURVE",
"1432 773 CURVE SMOOTH",
"1432 811 OFFCURVE",
"1423.83 846.833 OFFCURVE",
"1407.5 880.5 CURVE SMOOTH",
"1391.17 914.167 OFFCURVE",
"1368.5 943.667 OFFCURVE",
"1339.5 969 CURVE SMOOTH",
"1310.5 994.333 OFFCURVE",
"1276.5 1014.33 OFFCURVE",
"1237.5 1029 CURVE SMOOTH",
"1198.5 1043.67 OFFCURVE",
"1156.67 1051 OFFCURVE",
"1112 1051 CURVE SMOOTH"
);
},
{
closed = 1;
nodes = (
"566 425 LINE SMOOTH",
"560.666 380.333 OFFCURVE",
"551.833 342.5 OFFCURVE",
"539.5 311.5 CURVE SMOOTH",
"527.167 280.5 OFFCURVE",
"512.167 255.333 OFFCURVE",
"494.5 236 CURVE SMOOTH",
"476.833 216.667 OFFCURVE",
"456.833 202.667 OFFCURVE",
"434.5 194 CURVE SMOOTH",
"412.167 185.333 OFFCURVE",
"388.667 181 OFFCURVE",
"364 181 CURVE SMOOTH",
"306.667 181 OFFCURVE",
"278 211.667 OFFCURVE",
"278 273 CURVE SMOOTH",
"278 294.333 OFFCURVE",
"281.833 314.833 OFFCURVE",
"289.5 334.5 CURVE SMOOTH",
"297.167 354.167 OFFCURVE",
"311.5 371.667 OFFCURVE",
"332.5 387 CURVE SMOOTH",
"353.5 402.333 OFFCURVE",
"382.833 415.167 OFFCURVE",
"420.5 425.5 CURVE SMOOTH",
"458.167 435.833 OFFCURVE",
"507.333 442.667 OFFCURVE",
"568 446 CURVE"
);
},
{
closed = 1;
nodes = (
"1105.33 844 OFFCURVE",
"1128.67 835.5 OFFCURVE",
"1142 818.5 CURVE SMOOTH",
"1155.33 801.5 OFFCURVE",
"1162 781.333 OFFCURVE",
"1162 758 CURVE SMOOTH",
"1162 742 OFFCURVE",
"1158.5 726.5 OFFCURVE",
"1151.5 711.5 CURVE SMOOTH",
"1144.5 696.5 OFFCURVE",
"1130.5 682.667 OFFCURVE",
"1109.5 670 CURVE SMOOTH",
"1088.5 657.333 OFFCURVE",
"1058.5 645.833 OFFCURVE",
"1019.5 635.5 CURVE SMOOTH",
"980.5 625.167 OFFCURVE",
"929 617 OFFCURVE",
"865 611 CURVE",
"871 646.333 OFFCURVE",
"879.667 678.333 OFFCURVE",
"891 707 CURVE SMOOTH",
"902.333 735.667 OFFCURVE",
"916.5 760.167 OFFCURVE",
"933.5 780.5 CURVE SMOOTH",
"950.5 800.833 OFFCURVE",
"970.5 816.5 OFFCURVE",
"993.5 827.5 CURVE SMOOTH",
"1016.5 838.5 OFFCURVE",
"1042.67 844 OFFCURVE",
"1072 844 CURVE SMOOTH"
);
}
);
width = 1502;
}
);
leftKerningGroup = a;
rightKerningGroup = e;
unicode = 00E6;
},
{
glyphname = b;
layers = (
{
layerId = "421C8255-749A-4570-9FED-EBF43319311F";
name = "Bold Italic";
paths = (
{
closed = 1;
nodes = (
"23 0 LINE",
"193 0 LINE SMOOTH",
"226.333 0 OFFCURVE",
"250.333 6.5 OFFCURVE",
"265 19.5 CURVE SMOOTH",
"279.667 32.5 OFFCURVE",
"291.667 53 OFFCURVE",
"301 81 CURVE SMOOTH",
"304 91 LINE",
"331.333 59 OFFCURVE",
"364.5 33.1667 OFFCURVE",
"403.5 13.5 CURVE SMOOTH",
"442.5 -6 OFFCURVE",
"487.667 -16 OFFCURVE",
"539 -16 CURVE SMOOTH",
"605.667 -16 OFFCURVE",
"669.5 2.16667 OFFCURVE",
"730.5 38.5 CURVE SMOOTH",
"791.5 74.8333 OFFCURVE",
"845.333 124 OFFCURVE",
"892 186 CURVE SMOOTH",
"938.667 248 OFFCURVE",
"975.833 319.833 OFFCURVE",
"1003.5 401.5 CURVE SMOOTH",
"1031.17 483.167 OFFCURVE",
"1045 569.333 OFFCURVE",
"1045 660 CURVE SMOOTH",
"1045 728.667 OFFCURVE",
"1037.83 787.833 OFFCURVE",
"1023.5 837.5 CURVE SMOOTH",
"1009.17 887.167 OFFCURVE",
"989.167 928 OFFCURVE",
"963.5 960 CURVE SMOOTH",
"937.833 992 OFFCURVE",
"907.333 1015.5 OFFCURVE",
"872 1030.5 CURVE SMOOTH",
"836.667 1045.5 OFFCURVE",
"797.667 1053 OFFCURVE",
"755 1053 CURVE SMOOTH",
"694.333 1053 OFFCURVE",
"636.833 1037.17 OFFCURVE",
"582.5 1005.5 CURVE SMOOTH",
"528.167 973.833 OFFCURVE",
"478 930 OFFCURVE",
"432 874 CURVE",
"509 1497 LINE",
"205 1497 LINE"
);
},
{
closed = 1;
nodes = (
"663 818 OFFCURVE",
"688.667 803 OFFCURVE",
"708 773 CURVE SMOOTH",
"727.333 743 OFFCURVE",
"737 695 OFFCURVE",
"737 629 CURVE SMOOTH",
"737 577 OFFCURVE",
"730.833 526 OFFCURVE",
"718.5 476 CURVE SMOOTH",
"706.167 426 OFFCURVE",
"689 381.5 OFFCURVE",
"667 342.5 CURVE SMOOTH",
"645 303.5 OFFCURVE",
"618.833 272 OFFCURVE",
"588.5 248 CURVE SMOOTH",
"558.167 224 OFFCURVE",
"525 212 OFFCURVE",
"489 212 CURVE SMOOTH",
"467 212 OFFCURVE",
"444 215.333 OFFCURVE",
"420 222 CURVE SMOOTH",
"396 228.667 OFFCURVE",
"374.333 240 OFFCURVE",
"355 256 CURVE",
"385 496 LINE",
"385 498 LINE",
"397.667 542 OFFCURVE",
"413.5 583.5 OFFCURVE",
"432.5 622.5 CURVE SMOOTH",
"451.5 661.5 OFFCURVE",
"472 695.5 OFFCURVE",
"494 724.5 CURVE SMOOTH",
"516 753.5 OFFCURVE",
"538.833 776.333 OFFCURVE",
"562.5 793 CURVE SMOOTH",
"586.167 809.667 OFFCURVE",
"609 818 OFFCURVE",
"631 818 CURVE SMOOTH"
);
}
);
width = 1097;
}
);
leftKerningGroup = b;
rightKerningGroup = b;
unicode = 0062;
},
{
glyphname = c;
layers = (
{
layerId = "421C8255-749A-4570-9FED-EBF43319311F";
name = "Bold Italic";
paths = (
{
closed = 1;
nodes = (
"844 182 LINE",
"764 276 LINE",
"756.667 283.333 OFFCURVE",
"748.333 289.5 OFFCURVE",
"739 294.5 CURVE SMOOTH",
"729.667 299.5 OFFCURVE",
"720 302 OFFCURVE",
"710 302 CURVE SMOOTH",
"692 302 OFFCURVE",
"676.667 297.5 OFFCURVE",
"664 288.5 CURVE SMOOTH",
"651.333 279.5 OFFCURVE",
"637.667 269.667 OFFCURVE",
"623 259 CURVE SMOOTH",
"608.333 248.333 OFFCURVE",
"591.167 238.5 OFFCURVE",
"571.5 229.5 CURVE SMOOTH",
"551.833 220.5 OFFCURVE",
"526 216 OFFCURVE",
"494 216 CURVE SMOOTH",
"472.667 216 OFFCURVE",
"452.667 220.333 OFFCURVE",
"434 229 CURVE SMOOTH",
"415.333 237.667 OFFCURVE",
"399 250.5 OFFCURVE",
"385 267.5 CURVE SMOOTH",
"371 284.5 OFFCURVE",
"360 305.833 OFFCURVE",
"352 331.5 CURVE SMOOTH",
"344 357.167 OFFCURVE",
"340 387.333 OFFCURVE",
"340 422 CURVE SMOOTH",
"340 484 OFFCURVE",
"346.833 539.333 OFFCURVE",
"360.5 588 CURVE SMOOTH",
"374.167 636.667 OFFCURVE",
"392.333 677.667 OFFCURVE",
"415 711 CURVE SMOOTH",
"437.667 744.333 OFFCURVE",
"463.5 769.833 OFFCURVE",
"492.5 787.5 CURVE SMOOTH",
"521.5 805.167 OFFCURVE",
"551.333 814 OFFCURVE",
"582 814 CURVE SMOOTH",
"606.667 814 OFFCURVE",
"626.667 811.167 OFFCURVE",
"642 805.5 CURVE SMOOTH",
"657.333 799.833 OFFCURVE",
"670.333 793.833 OFFCURVE",
"681 787.5 CURVE SMOOTH",
"691.667 781.167 OFFCURVE",
"701.5 775.167 OFFCURVE",
"710.5 769.5 CURVE SMOOTH",
"719.5 763.833 OFFCURVE",
"730.667 761 OFFCURVE",
"744 761 CURVE SMOOTH",
"755.333 761 OFFCURVE",
"765.667 763.833 OFFCURVE",
"775 769.5 CURVE SMOOTH",
"784.333 775.167 OFFCURVE",
"792.667 781.667 OFFCURVE",
"800 789 CURVE",
"900 904 LINE",
"860.667 954.667 OFFCURVE",
"816.167 991.833 OFFCURVE",
"766.5 1015.5 CURVE SMOOTH",
"716.833 1039.17 OFFCURVE",
"657.333 1051 OFFCURVE",
"588 1051 CURVE SMOOTH",
"506.667 1051 OFFCURVE",
"432 1034.17 OFFCURVE",
"364 1000.5 CURVE SMOOTH",
"296 966.833 OFFCURVE",
"237.167 921.333 OFFCURVE",
"187.5 864 CURVE SMOOTH",
"137.833 806.667 OFFCURVE",
"99.1667 740 OFFCURVE",
"71.5001 664 CURVE SMOOTH",
"43.8334 588 OFFCURVE",
"30 507.667 OFFCURVE",
"30 423 CURVE SMOOTH",
"30 355.667 OFFCURVE",
"39.3334 295 OFFCURVE",
"58 241 CURVE SMOOTH",
"76.6667 187 OFFCURVE",
"103.167 141 OFFCURVE",
"137.5 103 CURVE SMOOTH",
"171.833 65 OFFCURVE",
"213.333 35.6667 OFFCURVE",
"262 15 CURVE SMOOTH",
"310.667 -6 OFFCURVE",
"365.333 -16 OFFCURVE",
"426 -16 CURVE SMOOTH",
"470.667 -16 OFFCURVE",
"511.5 -12 OFFCURVE",
"548.5 -5 CURVE SMOOTH",
"585.5 1.50006 OFFCURVE",
"620.333 12.6667 OFFCURVE",
"653 28 CURVE SMOOTH",
"685.667 43.3334 OFFCURVE",
"717.333 63.6667 OFFCURVE",
"748 89 CURVE SMOOTH",
"778.667 114.333 OFFCURVE",
"810.667 145.333 OFFCURVE",
"844 182 CURVE"
);
}
);
width = 905;
}
);
leftKerningGroup = c;
rightKerningGroup = c;
unicode = 0063;
},
{
glyphname = ccedilla;
layers = (
{
layerId = "421C8255-749A-4570-9FED-EBF43319311F";
name = "Bold Italic";
paths = (
{
closed = 1;
nodes = (
"259.333 -220 OFFCURVE",
"247 -229 OFFCURVE",
"241 -247 CURVE",
"201 -340 LINE",
"224.333 -345 OFFCURVE",
"246.333 -349 OFFCURVE",
"267 -352 CURVE SMOOTH",
"287.667 -355 OFFCURVE",
"310.667 -356 OFFCURVE",
"336 -356 CURVE SMOOTH",
"376.667 -356 OFFCURVE",
"413.833 -352 OFFCURVE",
"447.5 -345 CURVE SMOOTH",
"481.167 -337 OFFCURVE",
"510.167 -326 OFFCURVE",
"534.5 -311 CURVE SMOOTH",
"558.833 -296 OFFCURVE",
"577.833 -279 OFFCURVE",
"591.5 -258 CURVE SMOOTH",
"605.167 -237 OFFCURVE",
"612 -213 OFFCURVE",
"612 -186 CURVE SMOOTH",
"612 -172 OFFCURVE",
"609.833 -159 OFFCURVE",
"605.5 -146 CURVE SMOOTH",
"601.167 -133 OFFCURVE",
"593.833 -120 OFFCURVE",
"583.5 -109 CURVE SMOOTH",
"573.167 -97 OFFCURVE",
"559.5 -86 OFFCURVE",
"542.5 -76 CURVE SMOOTH",
"525.5 -66 OFFCURVE",
"504.333 -57 OFFCURVE",
"479 -50 CURVE",
"493 -13 LINE",
"528.333 -10 OFFCURVE",
"561 -4 OFFCURVE",
"591 5 CURVE SMOOTH",
"621 13.6667 OFFCURVE",
"650 25.8333 OFFCURVE",
"678 41.5 CURVE SMOOTH",
"706 57.1667 OFFCURVE",
"733.5 76.5 OFFCURVE",
"760.5 99.5 CURVE SMOOTH",
"787.5 122.5 OFFCURVE",
"815.333 150 OFFCURVE",
"844 182 CURVE",
"764 276 LINE",
"756.667 283.333 OFFCURVE",
"748.333 289.5 OFFCURVE",
"739 294.5 CURVE SMOOTH",
"729.667 299.5 OFFCURVE",
"720 302 OFFCURVE",
"710 302 CURVE SMOOTH",
"692 302 OFFCURVE",
"676.667 297.5 OFFCURVE",
"664 288.5 CURVE SMOOTH",
"651.333 279.5 OFFCURVE",
"637.667 269.667 OFFCURVE",
"623 259 CURVE SMOOTH",
"608.333 248.333 OFFCURVE",
"591.167 238.5 OFFCURVE",
"571.5 229.5 CURVE SMOOTH",
"551.833 220.5 OFFCURVE",
"526 216 OFFCURVE",
"494 216 CURVE SMOOTH",
"472.667 216 OFFCURVE",
"452.667 220.333 OFFCURVE",
"434 229 CURVE SMOOTH",
"415.333 237.667 OFFCURVE",
"399 250.5 OFFCURVE",
"385 267.5 CURVE SMOOTH",
"371 284.5 OFFCURVE",
"360 305.833 OFFCURVE",
"352 331.5 CURVE SMOOTH",
"344 357.167 OFFCURVE",
"340 387.333 OFFCURVE",
"340 422 CURVE SMOOTH",
"340 484 OFFCURVE",
"346.833 539.333 OFFCURVE",
"360.5 588 CURVE SMOOTH",
"374.167 636.667 OFFCURVE",
"392.333 677.667 OFFCURVE",
"415 711 CURVE SMOOTH",
"437.667 744.333 OFFCURVE",
"463.5 769.833 OFFCURVE",
"492.5 787.5 CURVE SMOOTH",
"521.5 805.167 OFFCURVE",
"551.333 814 OFFCURVE",
"582 814 CURVE SMOOTH",
"606.667 814 OFFCURVE",
"626.667 811.167 OFFCURVE",
"642 805.5 CURVE SMOOTH",
"657.333 799.833 OFFCURVE",
"670.333 793.833 OFFCURVE",
"681 787.5 CURVE SMOOTH",
"691.667 781.167 OFFCURVE",
"701.5 775.167 OFFCURVE",
"710.5 769.5 CURVE SMOOTH",
"719.5 763.833 OFFCURVE",
"730.667 761 OFFCURVE",
"744 761 CURVE SMOOTH",
"755.333 761 OFFCURVE",
"765.667 763.833 OFFCURVE",
"775 769.5 CURVE SMOOTH",
"784.333 775.167 OFFCURVE",
"792.667 781.667 OFFCURVE",
"800 789 CURVE",
"900 904 LINE",
"860.667 954.667 OFFCURVE",
"816.167 991.833 OFFCURVE",
"766.5 1015.5 CURVE SMOOTH",
"716.833 1039.17 OFFCURVE",
"657.333 1051 OFFCURVE",
"588 1051 CURVE SMOOTH",
"506.667 1051 OFFCURVE",
"432 1034.17 OFFCURVE",
"364 1000.5 CURVE SMOOTH",
"296 966.833 OFFCURVE",
"237.167 921.333 OFFCURVE",
"187.5 864 CURVE SMOOTH",
"137.833 806.667 OFFCURVE",
"99.1667 740 OFFCURVE",
"71.5001 664 CURVE SMOOTH",
"43.8334 588 OFFCURVE",
"30 507.667 OFFCURVE",
"30 423 CURVE SMOOTH",
"30 365.667 OFFCURVE",
"36.6667 313.167 OFFCURVE",
"50 265.5 CURVE SMOOTH",
"63.3334 217.833 OFFCURVE",
"82.5001 175.833 OFFCURVE",
"107.5 139.5 CURVE SMOOTH",
"132.5 103.167 OFFCURVE",
"163 72.8334 OFFCURVE",
"199 48.5001 CURVE SMOOTH",
"235 24.1667 OFFCURVE",
"275.667 6.66673 OFFCURVE",
"321 -4 CURVE",
"258 -145 LINE",
"299.333 -152 OFFCURVE",
"328.333 -158 OFFCURVE",
"345 -165 CURVE SMOOTH",
"361.667 -172 OFFCURVE",
"370 -182 OFFCURVE",
"370 -195 CURVE SMOOTH",
"370 -202 OFFCURVE",
"367 -210 OFFCURVE",
"361 -217 CURVE SMOOTH",
"355 -224 OFFCURVE",
"344.333 -227 OFFCURVE",
"329 -227 CURVE SMOOTH",
"319 -227 OFFCURVE",
"310.333 -226 OFFCURVE",
"303 -224 CURVE SMOOTH",
"295.667 -221 OFFCURVE",
"287.333 -220 OFFCURVE",
"278 -220 CURVE SMOOTH"
);
}
);
width = 905;
}
);
leftKerningGroup = c;
rightKerningGroup = c;
unicode = 00E7;
},
{
glyphname = d;
layers = (
{
layerId = "421C8255-749A-4570-9FED-EBF43319311F";
name = "Bold Italic";
paths = (
{
closed = 1;
nodes = (
"758 0 LINE",
"924 0 LINE",
"1110 1497 LINE",
"806 1497 LINE",
"740 975 LINE",
"714 998.333 OFFCURVE",
"683.833 1017.17 OFFCURVE",
"649.5 1031.5 CURVE SMOOTH",
"615.167 1045.83 OFFCURVE",
"576.667 1053 OFFCURVE",
"534 1053 CURVE SMOOTH",
"489.333 1053 OFFCURVE",
"446 1044.67 OFFCURVE",
"404 1028 CURVE SMOOTH",
"362 1011.33 OFFCURVE",
"322.167 988.167 OFFCURVE",
"284.5 958.5 CURVE SMOOTH",
"246.833 928.833 OFFCURVE",
"212.333 893.167 OFFCURVE",
"181 851.5 CURVE SMOOTH",
"149.667 809.833 OFFCURVE",
"122.667 764 OFFCURVE",
"100 714 CURVE SMOOTH",
"77.3333 664 OFFCURVE",
"59.6667 610.5 OFFCURVE",
"47 553.5 CURVE SMOOTH",
"34.3333 496.5 OFFCURVE",
"28 438 OFFCURVE",
"28 378 CURVE SMOOTH",
"28 308.667 OFFCURVE",
"35.1667 249.167 OFFCURVE",
"49.5 199.5 CURVE SMOOTH",
"63.8333 149.833 OFFCURVE",
"83.8333 109 OFFCURVE",
"109.5 77 CURVE SMOOTH",
"135.167 45 OFFCURVE",
"165.667 21.5 OFFCURVE",
"201 6.49995 CURVE SMOOTH",
"236.333 -9 OFFCURVE",
"275.333 -16 OFFCURVE",
"318 -16 CURVE SMOOTH",
"382.667 -16 OFFCURVE",
"443.667 1.83328 OFFCURVE",
"501 37.5 CURVE SMOOTH",
"558.333 73.1666 OFFCURVE",
"610.667 122.333 OFFCURVE",
"658 185 CURVE",
"658 98 LINE SMOOTH",
"658 84 OFFCURVE",
"659.5 71 OFFCURVE",
"662.5 59 CURVE SMOOTH",
"665.5 47 OFFCURVE",
"670.833 36.6666 OFFCURVE",
"678.5 28 CURVE SMOOTH",
"686.167 19.3333 OFFCURVE",
"696.5 12.5 OFFCURVE",
"709.5 7.49995 CURVE SMOOTH",
"722.5 2.49995 OFFCURVE",
"738.667 -5 OFFCURVE",
"0 0 CURVE"
);
},
{
closed = 1;
nodes = (
"410 220 OFFCURVE",
"384.333 234.833 OFFCURVE",
"365 264.5 CURVE SMOOTH",
"345.667 294.167 OFFCURVE",
"336 342 OFFCURVE",
"336 408 CURVE SMOOTH",
"336 460 OFFCURVE",
"342.167 511 OFFCURVE",
"354.5 561 CURVE SMOOTH",
"366.833 611 OFFCURVE",
"384 655.5 OFFCURVE",
"406 694.5 CURVE SMOOTH",
"428 733.5 OFFCURVE",
"454.167 765 OFFCURVE",
"484.5 789 CURVE SMOOTH",
"514.833 813 OFFCURVE",
"548 825 OFFCURVE",
"584 825 CURVE SMOOTH",
"605.333 825 OFFCURVE",
"627.833 821.667 OFFCURVE",
"651.5 815 CURVE SMOOTH",
"675.167 808.333 OFFCURVE",
"696.667 797.333 OFFCURVE",
"716 782 CURVE",
"684 530 LINE",
"670.667 486.667 OFFCURVE",
"654.667 446.167 OFFCURVE",
"636 408.5 CURVE SMOOTH",
"617.333 370.833 OFFCURVE",
"597.167 338 OFFCURVE",
"575.5 310 CURVE SMOOTH",
"553.833 282 OFFCURVE",
"531.5 260 OFFCURVE",
"508.5 244 CURVE SMOOTH",
"485.5 228 OFFCURVE",
"463.333 220 OFFCURVE",
"442 220 CURVE SMOOTH"
);
}
);
width = 1099;
}
);
leftKerningGroup = d;
rightKerningGroup = d;
unicode = 0064;
},
{
glyphname = eth;
layers = (
{
layerId = "421C8255-749A-4570-9FED-EBF43319311F";
name = "Bold Italic";
paths = (
{
closed = 1;
nodes = (
"444 960 LINE",
"666 1089 LINE",
"704.667 1052.33 OFFCURVE",
"733.167 1011 OFFCURVE",
"751.5 965 CURVE SMOOTH",
"769.833 919 OFFCURVE",
"780.667 866.667 OFFCURVE",
"784 808 CURVE",
"753.333 849.333 OFFCURVE",
"715.833 880.833 OFFCURVE",
"671.5 902.5 CURVE SMOOTH",
"627.167 924.167 OFFCURVE",
"574.667 935 OFFCURVE",
"514 935 CURVE SMOOTH",
"444.667 935 OFFCURVE",
"380.167 921 OFFCURVE",
"320.5 893 CURVE SMOOTH",
"260.833 865 OFFCURVE",
"209 827.167 OFFCURVE",
"165 779.5 CURVE SMOOTH",
"121 731.833 OFFCURVE",
"86.4999 676.167 OFFCURVE",
"61.4999 612.5 CURVE SMOOTH",
"36.4999 548.833 OFFCURVE",
"23.9999 481.667 OFFCURVE",
"23.9999 411 CURVE SMOOTH",
"23.9999 345 OFFCURVE",
"34.1666 285.5 OFFCURVE",
"54.4999 232.5 CURVE SMOOTH",
"74.8333 179.5 OFFCURVE",
"103.333 134.667 OFFCURVE",
"140 98 CURVE SMOOTH",
"176.667 61.3334 OFFCURVE",
"220.5 33.1667 OFFCURVE",
"271.5 13.5001 CURVE SMOOTH",
"322.5 -6 OFFCURVE",
"378.667 -16 OFFCURVE",
"440 -16 CURVE SMOOTH",
"530.667 -16 OFFCURVE",
"612 1 OFFCURVE",
"684 35 CURVE SMOOTH",
"756 69 OFFCURVE",
"817 118 OFFCURVE",
"867 182 CURVE SMOOTH",
"917 246 OFFCURVE",
"955.333 324 OFFCURVE",
"982 416 CURVE SMOOTH",
"1008.67 508 OFFCURVE",
"1022 612 OFFCURVE",
"1022 728 CURVE SMOOTH",
"1022 823.333 OFFCURVE",
"1009.33 908.667 OFFCURVE",
"984 984 CURVE SMOOTH",
"958.667 1059.33 OFFCURVE",
"923 1125.67 OFFCURVE",
"877 1183 CURVE",
"968 1236 LINE",
"986.667 1246 OFFCURVE",
"997 1258.33 OFFCURVE",
"999 1273 CURVE SMOOTH",
"1001 1287.67 OFFCURVE",
"998.333 1301.67 OFFCURVE",
"991 1315 CURVE SMOOTH",
"941 1410 LINE",
"750 1303 LINE",
"700 1339 OFFCURVE",
"645.5 1368.5 OFFCURVE",
"586.5 1391.5 CURVE SMOOTH",
"527.5 1414.5 OFFCURVE",
"464.667 1431.67 OFFCURVE",
"398 1443 CURVE",
"352 1351 LINE SMOOTH",
"338 1323 OFFCURVE",
"333.667 1299 OFFCURVE",
"339 1279 CURVE SMOOTH",
"344.333 1259 OFFCURVE",
"363.667 1243.67 OFFCURVE",
"397 1233 CURVE SMOOTH",
"417.667 1225.67 OFFCURVE",
"437.333 1218.5 OFFCURVE",
"456 1211.5 CURVE SMOOTH",
"474.667 1204.5 OFFCURVE",
"492.667 1197 OFFCURVE",
"510 1189 CURVE",
"406 1129 LINE",
"394.667 1121.67 OFFCURVE",
"386.667 1111.5 OFFCURVE",
"382 1098.5 CURVE SMOOTH",
"377.333 1085.5 OFFCURVE",
"379.333 1071.67 OFFCURVE",
"388 1057 CURVE SMOOTH"
);
},
{
closed = 1;
nodes = (
"430 205 OFFCURVE",
"392.5 223.833 OFFCURVE",
"363.5 261.5 CURVE SMOOTH",
"334.5 299.167 OFFCURVE",
"320 353.333 OFFCURVE",
"320 424 CURVE SMOOTH",
"320 465.333 OFFCURVE",
"325.333 503.667 OFFCURVE",
"336 539 CURVE SMOOTH",
"346.667 574.333 OFFCURVE",
"361.833 605 OFFCURVE",
"381.5 631 CURVE SMOOTH",
"401.167 657 OFFCURVE",
"425 677.5 OFFCURVE",
"453 692.5 CURVE SMOOTH",
"481 707.5 OFFCURVE",
"512.667 715 OFFCURVE",
"548 715 CURVE SMOOTH",
"573.333 715 OFFCURVE",
"595.667 711.167 OFFCURVE",
"615 703.5 CURVE SMOOTH",
"634.333 695.833 OFFCURVE",
"651.333 685.167 OFFCURVE",
"666 671.5 CURVE SMOOTH",
"680.667 657.833 OFFCURVE",
"692.833 641.833 OFFCURVE",
"702.5 623.5 CURVE SMOOTH",
"712.167 605.167 OFFCURVE",
"720.333 585.333 OFFCURVE",
"727 564 CURVE",
"717 494 OFFCURVE",
"703.167 436 OFFCURVE",
"685.5 390 CURVE SMOOTH",
"667.833 344 OFFCURVE",
"647.833 307.333 OFFCURVE",
"625.5 280 CURVE SMOOTH",
"603.167 252.667 OFFCURVE",
"579.167 233.333 OFFCURVE",
"553.5 222 CURVE SMOOTH",
"527.833 210.667 OFFCURVE",
"502 205 OFFCURVE",
"476 205 CURVE SMOOTH"
);
}
);
width = 1074;
}
);
leftKerningGroup = eth;
rightKerningGroup = eth;
unicode = 00F0;
},
{
glyphname = e;
layers = (
{
layerId = "421C8255-749A-4570-9FED-EBF43319311F";
name = "Bold Italic";
paths = (
{
closed = 1;
nodes = (
"939 814 OFFCURVE",
"931.333 846 OFFCURVE",
"916 878 CURVE SMOOTH",
"900.667 910 OFFCURVE",
"878.333 938.833 OFFCURVE",
"849 964.5 CURVE SMOOTH",
"819.667 990.167 OFFCURVE",
"783.5 1011 OFFCURVE",
"740.5 1027 CURVE SMOOTH",
"697.5 1043 OFFCURVE",
"648.333 1051 OFFCURVE",
"593 1051 CURVE SMOOTH",
"537 1051 OFFCURVE",
"484.167 1043.17 OFFCURVE",
"434.5 1027.5 CURVE SMOOTH",
"384.833 1011.83 OFFCURVE",
"339.167 990 OFFCURVE",
"297.5 962 CURVE SMOOTH",
"255.833 934 OFFCURVE",
"218.333 900.5 OFFCURVE",
"185 861.5 CURVE SMOOTH",
"151.667 822.5 OFFCURVE",
"123.5 779.833 OFFCURVE",
"100.5 733.5 CURVE SMOOTH",
"77.5001 687.167 OFFCURVE",
"59.8334 637.667 OFFCURVE",
"47.5001 585 CURVE SMOOTH",
"35.1667 532.333 OFFCURVE",
"29 478.333 OFFCURVE",
"29 423 CURVE SMOOTH",
"29 357 OFFCURVE",
"39.1667 297 OFFCURVE",
"59.5001 243 CURVE SMOOTH",
"79.8334 189 OFFCURVE",
"108.5 142.833 OFFCURVE",
"145.5 104.5 CURVE SMOOTH",
"182.5 66.1667 OFFCURVE",
"226.667 36.5 OFFCURVE",
"278 15.5 CURVE SMOOTH",
"329.333 -6 OFFCURVE",
"385.667 -16 OFFCURVE",
"447 -16 CURVE SMOOTH",
"496.333 -16 OFFCURVE",
"541.833 -12 OFFCURVE",
"583.5 -4 CURVE SMOOTH",
"625.167 4 OFFCURVE",
"664.5 16.5 OFFCURVE",
"701.5 33.5 CURVE SMOOTH",
"738.5 50.5 OFFCURVE",
"774.5 72.1667 OFFCURVE",
"809.5 98.5 CURVE SMOOTH",
"844.5 124.833 OFFCURVE",
"880.333 156 OFFCURVE",
"917 192 CURVE",
"837 285 LINE SMOOTH",
"829.667 293 OFFCURVE",
"821.333 299.5 OFFCURVE",
"812 304.5 CURVE SMOOTH",
"802.667 309.5 OFFCURVE",
"793 312 OFFCURVE",
"783 312 CURVE SMOOTH",
"767.667 312 OFFCURVE",
"754 309.667 OFFCURVE",
"742 305 CURVE SMOOTH",
"730 300.333 OFFCURVE",
"718.5 294.333 OFFCURVE",
"707.5 287 CURVE SMOOTH",
"673 264 LINE SMOOTH",
"661 256 OFFCURVE",
"647.5 248.333 OFFCURVE",
"632.5 241 CURVE SMOOTH",
"617.5 233.667 OFFCURVE",
"600 227.667 OFFCURVE",
"580 223 CURVE SMOOTH",
"560 218.333 OFFCURVE",
"536.333 216 OFFCURVE",
"509 216 CURVE SMOOTH",
"451 216 OFFCURVE",
"407.167 232.333 OFFCURVE",
"377.5 265 CURVE SMOOTH",
"347.833 297.667 OFFCURVE",
"332.333 349.333 OFFCURVE",
"331 420 CURVE",
"449.667 432 OFFCURVE",
"548.167 448.667 OFFCURVE",
"626.5 470 CURVE SMOOTH",
"704.833 491.333 OFFCURVE",
"767.167 517.167 OFFCURVE",
"813.5 547.5 CURVE SMOOTH",
"859.833 577.833 OFFCURVE",
"892.333 612.667 OFFCURVE",
"911 652 CURVE SMOOTH",
"929.667 691.333 OFFCURVE",
"939 734.667 OFFCURVE",
"939 782 CURVE SMOOTH"
);
},
{
closed = 1;
nodes = (
"604.333 842 OFFCURVE",
"625.667 834.333 OFFCURVE",
"639 819 CURVE SMOOTH",
"652.333 803.667 OFFCURVE",
"659 787.333 OFFCURVE",
"659 770 CURVE SMOOTH",
"659 752.667 OFFCURVE",
"655.167 736.5 OFFCURVE",
"647.5 721.5 CURVE SMOOTH",
"639.833 706.5 OFFCURVE",
"625 692.5 OFFCURVE",
"603 679.5 CURVE SMOOTH",
"581 666.5 OFFCURVE",
"550 654.5 OFFCURVE",
"510 643.5 CURVE SMOOTH",
"470 632.5 OFFCURVE",
"417.667 622 OFFCURVE",
"353 612 CURVE",
"372.333 683.333 OFFCURVE",
"401.333 739.5 OFFCURVE",
"440 780.5 CURVE SMOOTH",
"478.667 821.5 OFFCURVE",
"523.667 842 OFFCURVE",
"575 842 CURVE SMOOTH"
);
}
);
width = 989;
}
);
leftKerningGroup = c;
rightKerningGroup = e;
unicode = 0065;
},
{
glyphname = eacute;
layers = (
{
layerId = "421C8255-749A-4570-9FED-EBF43319311F";
name = "Bold Italic";
paths = (
{
closed = 1;
nodes = (
"29 0 LINE"
);
},
{
closed = 1;
nodes = (
"939 814 OFFCURVE",
"931.333 846 OFFCURVE",
"916 878 CURVE SMOOTH",
"900.667 910 OFFCURVE",
"878.333 938.833 OFFCURVE",
"849 964.5 CURVE SMOOTH",
"819.667 990.167 OFFCURVE",
"783.5 1011 OFFCURVE",
"740.5 1027 CURVE SMOOTH",
"697.5 1043 OFFCURVE",
"648.333 1051 OFFCURVE",
"593 1051 CURVE SMOOTH",
"537 1051 OFFCURVE",
"484.167 1043.17 OFFCURVE",
"434.5 1027.5 CURVE SMOOTH",
"384.833 1011.83 OFFCURVE",
"339.167 990 OFFCURVE",
"297.5 962 CURVE SMOOTH",
"255.833 934 OFFCURVE",
"218.333 900.5 OFFCURVE",
"185 861.5 CURVE SMOOTH",
"151.667 822.5 OFFCURVE",
"123.5 779.833 OFFCURVE",
"100.5 733.5 CURVE SMOOTH",
"77.5001 687.167 OFFCURVE",
"59.8334 637.667 OFFCURVE",
"47.5001 585 CURVE SMOOTH",
"35.1667 532.333 OFFCURVE",
"29 478.333 OFFCURVE",
"29 423 CURVE SMOOTH",
"29 357 OFFCURVE",
"39.1667 297 OFFCURVE",
"59.5001 243 CURVE SMOOTH",
"79.8334 189 OFFCURVE",
"108.5 142.833 OFFCURVE",
"145.5 104.5 CURVE SMOOTH",
"182.5 66.1667 OFFCURVE",
"226.667 36.5 OFFCURVE",
"278 15.5 CURVE SMOOTH",
"329.333 -6 OFFCURVE",
"385.667 -16 OFFCURVE",
"447 -16 CURVE SMOOTH",
"496.333 -16 OFFCURVE",
"541.833 -12 OFFCURVE",
"583.5 -4 CURVE SMOOTH",
"625.167 4 OFFCURVE",
"664.5 16.5 OFFCURVE",
"701.5 33.5 CURVE SMOOTH",
"738.5 50.5 OFFCURVE",
"774.5 72.1667 OFFCURVE",
"809.5 98.5 CURVE SMOOTH",
"844.5 124.833 OFFCURVE",
"880.333 156 OFFCURVE",
"917 192 CURVE",
"837 285 LINE SMOOTH",
"829.667 293 OFFCURVE",
"821.333 299.5 OFFCURVE",
"812 304.5 CURVE SMOOTH",
"802.667 309.5 OFFCURVE",
"793 312 OFFCURVE",
"783 312 CURVE SMOOTH",
"767.667 312 OFFCURVE",
"754 309.667 OFFCURVE",
"742 305 CURVE SMOOTH",
"730 300.333 OFFCURVE",
"718.5 294.333 OFFCURVE",
"707.5 287 CURVE SMOOTH",
"673 264 LINE SMOOTH",
"661 256 OFFCURVE",
"647.5 248.333 OFFCURVE",
"632.5 241 CURVE SMOOTH",
"617.5 233.667 OFFCURVE",
"600 227.667 OFFCURVE",
"580 223 CURVE SMOOTH",
"560 218.333 OFFCURVE",
"536.333 216 OFFCURVE",
"509 216 CURVE SMOOTH",
"451 216 OFFCURVE",
"407.167 232.333 OFFCURVE",
"377.5 265 CURVE SMOOTH",
"347.833 297.667 OFFCURVE",
"332.333 349.333 OFFCURVE",
"331 420 CURVE",
"449.667 432 OFFCURVE",
"548.167 448.667 OFFCURVE",
"626.5 470 CURVE SMOOTH",
"704.833 491.333 OFFCURVE",
"767.167 517.167 OFFCURVE",
"813.5 547.5 CURVE SMOOTH",
"859.833 577.833 OFFCURVE",
"892.333 612.667 OFFCURVE",
"911 652 CURVE SMOOTH",
"929.667 691.333 OFFCURVE",
"939 734.667 OFFCURVE",
"939 782 CURVE SMOOTH"
);
},
{
closed = 1;
nodes = (
"604.333 842 OFFCURVE",
"625.667 834.333 OFFCURVE",
"639 819 CURVE SMOOTH",
"652.333 803.667 OFFCURVE",
"659 787.333 OFFCURVE",
"659 770 CURVE SMOOTH",
"659 752.667 OFFCURVE",
"655.167 736.5 OFFCURVE",
"647.5 721.5 CURVE SMOOTH",
"639.833 706.5 OFFCURVE",
"625 692.5 OFFCURVE",
"603 679.5 CURVE SMOOTH",
"581 666.5 OFFCURVE",
"550 654.5 OFFCURVE",
"510 643.5 CURVE SMOOTH",
"470 632.5 OFFCURVE",
"417.667 622 OFFCURVE",
"353 612 CURVE",
"372.333 683.333 OFFCURVE",
"401.333 739.5 OFFCURVE",
"440 780.5 CURVE SMOOTH",
"478.667 821.5 OFFCURVE",
"523.667 842 OFFCURVE",
"575 842 CURVE SMOOTH"
);
},
{
closed = 1;
nodes = (
"994 1473 LINE",
"718 1473 LINE SMOOTH",
"689.333 1473 OFFCURVE",
"667.167 1467.83 OFFCURVE",
"651.5 1457.5 CURVE SMOOTH",
"635.833 1447.17 OFFCURVE",
"621.667 1432.33 OFFCURVE",
"609 1413 CURVE SMOOTH",
"457 1168 LINE",
"628 1168 LINE SMOOTH",
"649.333 1168 OFFCURVE",
"666.833 1171.17 OFFCURVE",
"680.5 1177.5 CURVE SMOOTH",
"694.167 1183.83 OFFCURVE",
"708.667 1194.67 OFFCURVE",
"724 1210 CURVE SMOOTH"
);
}
);
width = 989;
}
);
leftKerningGroup = c;
rightKerningGroup = e;
unicode = 00E9;
},
{
glyphname = ecircumflex;
layers = (
{
layerId = "421C8255-749A-4570-9FED-EBF43319311F";
name = "Bold Italic";
paths = (
{
closed = 1;
nodes = (
"29 0 LINE"
);
},
{
closed = 1;
nodes = (
"939 814 OFFCURVE",
"931.333 846 OFFCURVE",
"916 878 CURVE SMOOTH",
"900.667 910 OFFCURVE",
"878.333 938.833 OFFCURVE",
"849 964.5 CURVE SMOOTH",
"819.667 990.167 OFFCURVE",
"783.5 1011 OFFCURVE",
"740.5 1027 CURVE SMOOTH",
"697.5 1043 OFFCURVE",
"648.333 1051 OFFCURVE",
"593 1051 CURVE SMOOTH",
"537 1051 OFFCURVE",
"484.167 1043.17 OFFCURVE",
"434.5 1027.5 CURVE SMOOTH",
"384.833 1011.83 OFFCURVE",
"339.167 990 OFFCURVE",
"297.5 962 CURVE SMOOTH",
"255.833 934 OFFCURVE",
"218.333 900.5 OFFCURVE",
"185 861.5 CURVE SMOOTH",
"151.667 822.5 OFFCURVE",
"123.5 779.833 OFFCURVE",
"100.5 733.5 CURVE SMOOTH",
"77.5001 687.167 OFFCURVE",
"59.8334 637.667 OFFCURVE",
"47.5001 585 CURVE SMOOTH",
"35.1667 532.333 OFFCURVE",
"29 478.333 OFFCURVE",
"29 423 CURVE SMOOTH",
"29 357 OFFCURVE",
"39.1667 297 OFFCURVE",
"59.5001 243 CURVE SMOOTH",
"79.8334 189 OFFCURVE",
"108.5 142.833 OFFCURVE",
"145.5 104.5 CURVE SMOOTH",
"182.5 66.1667 OFFCURVE",
"226.667 36.5 OFFCURVE",
"278 15.5 CURVE SMOOTH",
"329.333 -6 OFFCURVE",
"385.667 -16 OFFCURVE",
"447 -16 CURVE SMOOTH",
"496.333 -16 OFFCURVE",
"541.833 -12 OFFCURVE",
"583.5 -4 CURVE SMOOTH",
"625.167 4 OFFCURVE",
"664.5 16.5 OFFCURVE",
"701.5 33.5 CURVE SMOOTH",
"738.5 50.5 OFFCURVE",
"774.5 72.1667 OFFCURVE",
"809.5 98.5 CURVE SMOOTH",
"844.5 124.833 OFFCURVE",
"880.333 156 OFFCURVE",
"917 192 CURVE",
"837 285 LINE SMOOTH",
"829.667 293 OFFCURVE",
"821.333 299.5 OFFCURVE",
"812 304.5 CURVE SMOOTH",
"802.667 309.5 OFFCURVE",
"793 312 OFFCURVE",
"783 312 CURVE SMOOTH",
"767.667 312 OFFCURVE",
"754 309.667 OFFCURVE",
"742 305 CURVE SMOOTH",
"730 300.333 OFFCURVE",
"718.5 294.333 OFFCURVE",
"707.5 287 CURVE SMOOTH",
"673 264 LINE SMOOTH",
"661 256 OFFCURVE",
"647.5 248.333 OFFCURVE",
"632.5 241 CURVE SMOOTH",
"617.5 233.667 OFFCURVE",
"600 227.667 OFFCURVE",
"580 223 CURVE SMOOTH",
"560 218.333 OFFCURVE",
"536.333 216 OFFCURVE",
"509 216 CURVE SMOOTH",
"451 216 OFFCURVE",
"407.167 232.333 OFFCURVE",
"377.5 265 CURVE SMOOTH",
"347.833 297.667 OFFCURVE",
"332.333 349.333 OFFCURVE",
"331 420 CURVE",
"449.667 432 OFFCURVE",
"548.167 448.667 OFFCURVE",
"626.5 470 CURVE SMOOTH",
"704.833 491.333 OFFCURVE",
"767.167 517.167 OFFCURVE",
"813.5 547.5 CURVE SMOOTH",
"859.833 577.833 OFFCURVE",
"892.333 612.667 OFFCURVE",
"911 652 CURVE SMOOTH",
"929.667 691.333 OFFCURVE",
"939 734.667 OFFCURVE",
"939 782 CURVE SMOOTH"
);
},
{
closed = 1;
nodes = (
"604.333 842 OFFCURVE",
"625.667 834.333 OFFCURVE",
"639 819 CURVE SMOOTH",
"652.333 803.667 OFFCURVE",
"659 787.333 OFFCURVE",
"659 770 CURVE SMOOTH",
"659 752.667 OFFCURVE",
"655.167 736.5 OFFCURVE",
"647.5 721.5 CURVE SMOOTH",
"639.833 706.5 OFFCURVE",
"625 692.5 OFFCURVE",
"603 679.5 CURVE SMOOTH",
"581 666.5 OFFCURVE",
"550 654.5 OFFCURVE",
"510 643.5 CURVE SMOOTH",
"470 632.5 OFFCURVE",
"417.667 622 OFFCURVE",
"353 612 CURVE",
"372.333 683.333 OFFCURVE",
"401.333 739.5 OFFCURVE",
"440 780.5 CURVE SMOOTH",
"478.667 821.5 OFFCURVE",
"523.667 842 OFFCURVE",
"575 842 CURVE SMOOTH"
);
},
{
closed = 1;
nodes = (
"940 1168 LINE",
"758 1457 LINE",
"489 1457 LINE",
"241 1168 LINE",
"438 1168 LINE SMOOTH",
"449.333 1168 OFFCURVE",
"460.667 1170.33 OFFCURVE",
"472 1175 CURVE SMOOTH",
"483.333 1179.67 OFFCURVE",
"494 1186.67 OFFCURVE",
"504 1196 CURVE",
"584 1279 LINE",
"591.333 1285.67 OFFCURVE",
"600 1295 OFFCURVE",
"610 1307 CURVE",
"613.333 1301.67 OFFCURVE",
"616.667 1296.67 OFFCURVE",
"620 1292 CURVE SMOOTH",
"623.333 1287.33 OFFCURVE",
"626.667 1283 OFFCURVE",
"630 1279 CURVE",
"690 1196 LINE",
"699.333 1184.67 OFFCURVE",
"709 1177.17 OFFCURVE",
"719 1173.5 CURVE SMOOTH",
"729 1169.83 OFFCURVE",
"739.667 1168 OFFCURVE",
"751 1168 CURVE SMOOTH"
);
}
);
width = 989;
}
);
leftKerningGroup = c;
rightKerningGroup = e;
unicode = 00EA;
},
{
glyphname = edieresis;
layers = (
{
layerId = "421C8255-749A-4570-9FED-EBF43319311F";
name = "Bold Italic";
paths = (
{
closed = 1;
nodes = (
"29 0 LINE"
);
},
{
closed = 1;
nodes = (
"939 814 OFFCURVE",
"931.333 846 OFFCURVE",
"916 878 CURVE SMOOTH",
"900.667 910 OFFCURVE",
"878.333 938.833 OFFCURVE",
"849 964.5 CURVE SMOOTH",
"819.667 990.167 OFFCURVE",
"783.5 1011 OFFCURVE",
"740.5 1027 CURVE SMOOTH",
"697.5 1043 OFFCURVE",
"648.333 1051 OFFCURVE",
"593 1051 CURVE SMOOTH",
"537 1051 OFFCURVE",
"484.167 1043.17 OFFCURVE",
"434.5 1027.5 CURVE SMOOTH",
"384.833 1011.83 OFFCURVE",
"339.167 990 OFFCURVE",
"297.5 962 CURVE SMOOTH",
"255.833 934 OFFCURVE",
"218.333 900.5 OFFCURVE",
"185 861.5 CURVE SMOOTH",
"151.667 822.5 OFFCURVE",
"123.5 779.833 OFFCURVE",
"100.5 733.5 CURVE SMOOTH",
"77.5001 687.167 OFFCURVE",
"59.8334 637.667 OFFCURVE",
"47.5001 585 CURVE SMOOTH",
"35.1667 532.333 OFFCURVE",
"29 478.333 OFFCURVE",
"29 423 CURVE SMOOTH",
"29 357 OFFCURVE",
"39.1667 297 OFFCURVE",
"59.5001 243 CURVE SMOOTH",
"79.8334 189 OFFCURVE",
"108.5 142.833 OFFCURVE",
"145.5 104.5 CURVE SMOOTH",
"182.5 66.1667 OFFCURVE",
"226.667 36.5 OFFCURVE",
"278 15.5 CURVE SMOOTH",
"329.333 -6 OFFCURVE",
"385.667 -16 OFFCURVE",
"447 -16 CURVE SMOOTH",
"496.333 -16 OFFCURVE",
"541.833 -12 OFFCURVE",
"583.5 -4 CURVE SMOOTH",
"625.167 4 OFFCURVE",
"664.5 16.5 OFFCURVE",
"701.5 33.5 CURVE SMOOTH",
"738.5 50.5 OFFCURVE",
"774.5 72.1667 OFFCURVE",
"809.5 98.5 CURVE SMOOTH",
"844.5 124.833 OFFCURVE",
"880.333 156 OFFCURVE",
"917 192 CURVE",
"837 285 LINE SMOOTH",
"829.667 293 OFFCURVE",
"821.333 299.5 OFFCURVE",
"812 304.5 CURVE SMOOTH",
"802.667 309.5 OFFCURVE",
"793 312 OFFCURVE",
"783 312 CURVE SMOOTH",
"767.667 312 OFFCURVE",
"754 309.667 OFFCURVE",
"742 305 CURVE SMOOTH",
"730 300.333 OFFCURVE",
"718.5 294.333 OFFCURVE",
"707.5 287 CURVE SMOOTH",
"673 264 LINE SMOOTH",
"661 256 OFFCURVE",
"647.5 248.333 OFFCURVE",
"632.5 241 CURVE SMOOTH",
"617.5 233.667 OFFCURVE",
"600 227.667 OFFCURVE",
"580 223 CURVE SMOOTH",
"560 218.333 OFFCURVE",
"536.333 216 OFFCURVE",
"509 216 CURVE SMOOTH",
"451 216 OFFCURVE",
"407.167 232.333 OFFCURVE",
"377.5 265 CURVE SMOOTH",
"347.833 297.667 OFFCURVE",
"332.333 349.333 OFFCURVE",
"331 420 CURVE",
"449.667 432 OFFCURVE",
"548.167 448.667 OFFCURVE",
"626.5 470 CURVE SMOOTH",
"704.833 491.333 OFFCURVE",
"767.167 517.167 OFFCURVE",
"813.5 547.5 CURVE SMOOTH",
"859.833 577.833 OFFCURVE",
"892.333 612.667 OFFCURVE",
"911 652 CURVE SMOOTH",
"929.667 691.333 OFFCURVE",
"939 734.667 OFFCURVE",
"939 782 CURVE SMOOTH"
);
},
{
closed = 1;
nodes = (
"604.333 842 OFFCURVE",
"625.667 834.333 OFFCURVE",
"639 819 CURVE SMOOTH",
"652.333 803.667 OFFCURVE",
"659 787.333 OFFCURVE",
"659 770 CURVE SMOOTH",
"659 752.667 OFFCURVE",
"655.167 736.5 OFFCURVE",
"647.5 721.5 CURVE SMOOTH",
"639.833 706.5 OFFCURVE",
"625 692.5 OFFCURVE",
"603 679.5 CURVE SMOOTH",
"581 666.5 OFFCURVE",
"550 654.5 OFFCURVE",
"510 643.5 CURVE SMOOTH",
"470 632.5 OFFCURVE",
"417.667 622 OFFCURVE",
"353 612 CURVE",
"372.333 683.333 OFFCURVE",
"401.333 739.5 OFFCURVE",
"440 780.5 CURVE SMOOTH",
"478.667 821.5 OFFCURVE",
"523.667 842 OFFCURVE",
"575 842 CURVE SMOOTH"
);
},
{
closed = 1;
nodes = (
"571 1317 OFFCURVE",
"566.667 1337.67 OFFCURVE",
"558 1357 CURVE SMOOTH",
"549.333 1376.33 OFFCURVE",
"537.5 1393.17 OFFCURVE",
"522.5 1407.5 CURVE SMOOTH",
"507.5 1421.83 OFFCURVE",
"490.167 1433.17 OFFCURVE",
"470.5 1441.5 CURVE SMOOTH",
"450.833 1449.83 OFFCURVE",
"429.667 1454 OFFCURVE",
"407 1454 CURVE SMOOTH",
"385.667 1454 OFFCURVE",
"365.5 1449.83 OFFCURVE",
"346.5 1441.5 CURVE SMOOTH",
"327.5 1433.17 OFFCURVE",
"310.833 1421.83 OFFCURVE",
"296.5 1407.5 CURVE SMOOTH",
"282.167 1393.17 OFFCURVE",
"270.667 1376.33 OFFCURVE",
"262 1357 CURVE SMOOTH",
"253.333 1337.67 OFFCURVE",
"249 1317 OFFCURVE",
"249 1295 CURVE SMOOTH",
"249 1273.67 OFFCURVE",
"253.333 1253.67 OFFCURVE",
"262 1235 CURVE SMOOTH",
"270.667 1216.33 OFFCURVE",
"282.167 1200.17 OFFCURVE",
"296.5 1186.5 CURVE SMOOTH",
"310.833 1172.83 OFFCURVE",
"327.5 1162 OFFCURVE",
"346.5 1154 CURVE SMOOTH",
"365.5 1146 OFFCURVE",
"385.667 1142 OFFCURVE",
"407 1142 CURVE SMOOTH",
"429.667 1142 OFFCURVE",
"450.833 1146 OFFCURVE",
"470.5 1154 CURVE SMOOTH",
"490.167 1162 OFFCURVE",
"507.5 1172.83 OFFCURVE",
"522.5 1186.5 CURVE SMOOTH",
"537.5 1200.17 OFFCURVE",
"549.333 1216.33 OFFCURVE",
"558 1235 CURVE SMOOTH",
"566.667 1253.67 OFFCURVE",
"571 1273.67 OFFCURVE",
"571 1295 CURVE SMOOTH"
);
},
{
closed = 1;
nodes = (
"977 1317 OFFCURVE",
"972.833 1337.67 OFFCURVE",
"964.5 1357 CURVE SMOOTH",
"956.167 1376.33 OFFCURVE",
"944.667 1393.17 OFFCURVE",
"930 1407.5 CURVE SMOOTH",
"915.333 1421.83 OFFCURVE",
"898.167 1433.17 OFFCURVE",
"878.5 1441.5 CURVE SMOOTH",
"858.833 1449.83 OFFCURVE",
"837.667 1454 OFFCURVE",
"815 1454 CURVE SMOOTH",
"793 1454 OFFCURVE",
"772.333 1449.83 OFFCURVE",
"753 1441.5 CURVE SMOOTH",
"733.667 1433.17 OFFCURVE",
"716.667 1421.83 OFFCURVE",
"702 1407.5 CURVE SMOOTH",
"687.333 1393.17 OFFCURVE",
"675.833 1376.33 OFFCURVE",
"667.5 1357 CURVE SMOOTH",
"659.167 1337.67 OFFCURVE",
"655 1317 OFFCURVE",
"655 1295 CURVE SMOOTH",
"655 1273.67 OFFCURVE",
"659.167 1253.67 OFFCURVE",
"667.5 1235 CURVE SMOOTH",
"675.833 1216.33 OFFCURVE",
"687.333 1200.17 OFFCURVE",
"702 1186.5 CURVE SMOOTH",
"716.667 1172.83 OFFCURVE",
"733.667 1162 OFFCURVE",
"753 1154 CURVE SMOOTH",
"772.333 1146 OFFCURVE",
"793 1142 OFFCURVE",
"815 1142 CURVE SMOOTH",
"837.667 1142 OFFCURVE",
"858.833 1146 OFFCURVE",
"878.5 1154 CURVE SMOOTH",
"898.167 1162 OFFCURVE",
"915.333 1172.83 OFFCURVE",
"930 1186.5 CURVE SMOOTH",
"944.667 1200.17 OFFCURVE",
"956.167 1216.33 OFFCURVE",
"964.5 1235 CURVE SMOOTH",
"972.833 1253.67 OFFCURVE",
"977 1273.67 OFFCURVE",
"977 1295 CURVE SMOOTH"
);
}
);
width = 989;
}
);
leftKerningGroup = c;
rightKerningGroup = e;
unicode = 00EB;
},
{
glyphname = egrave;
layers = (
{
layerId = "421C8255-749A-4570-9FED-EBF43319311F";
name = "Bold Italic";
paths = (
{
closed = 1;
nodes = (
"29 0 LINE"
);
},
{
closed = 1;
nodes = (
"939 814 OFFCURVE",
"931.333 846 OFFCURVE",
"916 878 CURVE SMOOTH",
"900.667 910 OFFCURVE",
"878.333 938.833 OFFCURVE",
"849 964.5 CURVE SMOOTH",
"819.667 990.167 OFFCURVE",
"783.5 1011 OFFCURVE",
"740.5 1027 CURVE SMOOTH",
"697.5 1043 OFFCURVE",
"648.333 1051 OFFCURVE",
"593 1051 CURVE SMOOTH",
"537 1051 OFFCURVE",
"484.167 1043.17 OFFCURVE",
"434.5 1027.5 CURVE SMOOTH",
"384.833 1011.83 OFFCURVE",
"339.167 990 OFFCURVE",
"297.5 962 CURVE SMOOTH",
"255.833 934 OFFCURVE",
"218.333 900.5 OFFCURVE",
"185 861.5 CURVE SMOOTH",
"151.667 822.5 OFFCURVE",
"123.5 779.833 OFFCURVE",
"100.5 733.5 CURVE SMOOTH",
"77.5001 687.167 OFFCURVE",
"59.8334 637.667 OFFCURVE",
"47.5001 585 CURVE SMOOTH",
"35.1667 532.333 OFFCURVE",
"29 478.333 OFFCURVE",
"29 423 CURVE SMOOTH",
"29 357 OFFCURVE",
"39.1667 297 OFFCURVE",
"59.5001 243 CURVE SMOOTH",
"79.8334 189 OFFCURVE",
"108.5 142.833 OFFCURVE",
"145.5 104.5 CURVE SMOOTH",
"182.5 66.1667 OFFCURVE",
"226.667 36.5 OFFCURVE",
"278 15.5 CURVE SMOOTH",
"329.333 -6 OFFCURVE",
"385.667 -16 OFFCURVE",
"447 -16 CURVE SMOOTH",
"496.333 -16 OFFCURVE",
"541.833 -12 OFFCURVE",
"583.5 -4 CURVE SMOOTH",
"625.167 4 OFFCURVE",
"664.5 16.5 OFFCURVE",
"701.5 33.5 CURVE SMOOTH",
"738.5 50.5 OFFCURVE",
"774.5 72.1667 OFFCURVE",
"809.5 98.5 CURVE SMOOTH",
"844.5 124.833 OFFCURVE",
"880.333 156 OFFCURVE",
"917 192 CURVE",
"837 285 LINE SMOOTH",
"829.667 293 OFFCURVE",
"821.333 299.5 OFFCURVE",
"812 304.5 CURVE SMOOTH",
"802.667 309.5 OFFCURVE",
"793 312 OFFCURVE",
"783 312 CURVE SMOOTH",
"767.667 312 OFFCURVE",
"754 309.667 OFFCURVE",
"742 305 CURVE SMOOTH",
"730 300.333 OFFCURVE",
"718.5 294.333 OFFCURVE",
"707.5 287 CURVE SMOOTH",
"673 264 LINE SMOOTH",
"661 256 OFFCURVE",
"647.5 248.333 OFFCURVE",
"632.5 241 CURVE SMOOTH",
"617.5 233.667 OFFCURVE",
"600 227.667 OFFCURVE",
"580 223 CURVE SMOOTH",
"560 218.333 OFFCURVE",
"536.333 216 OFFCURVE",
"509 216 CURVE SMOOTH",
"451 216 OFFCURVE",
"407.167 232.333 OFFCURVE",
"377.5 265 CURVE SMOOTH",
"347.833 297.667 OFFCURVE",
"332.333 349.333 OFFCURVE",
"331 420 CURVE",
"449.667 432 OFFCURVE",
"548.167 448.667 OFFCURVE",
"626.5 470 CURVE SMOOTH",
"704.833 491.333 OFFCURVE",
"767.167 517.167 OFFCURVE",
"813.5 547.5 CURVE SMOOTH",
"859.833 577.833 OFFCURVE",
"892.333 612.667 OFFCURVE",
"911 652 CURVE SMOOTH",
"929.667 691.333 OFFCURVE",
"939 734.667 OFFCURVE",
"939 782 CURVE SMOOTH"
);
},
{
closed = 1;
nodes = (
"604.333 842 OFFCURVE",
"625.667 834.333 OFFCURVE",
"639 819 CURVE SMOOTH",
"652.333 803.667 OFFCURVE",
"659 787.333 OFFCURVE",
"659 770 CURVE SMOOTH",
"659 752.667 OFFCURVE",
"655.167 736.5 OFFCURVE",
"647.5 721.5 CURVE SMOOTH",
"639.833 706.5 OFFCURVE",
"625 692.5 OFFCURVE",
"603 679.5 CURVE SMOOTH",
"581 666.5 OFFCURVE",
"550 654.5 OFFCURVE",
"510 643.5 CURVE SMOOTH",
"470 632.5 OFFCURVE",
"417.667 622 OFFCURVE",
"353 612 CURVE",
"372.333 683.333 OFFCURVE",
"401.333 739.5 OFFCURVE",
"440 780.5 CURVE SMOOTH",
"478.667 821.5 OFFCURVE",
"523.667 842 OFFCURVE",
"575 842 CURVE SMOOTH"
);
},
{
closed = 1;
nodes = (
"264 1473 LINE",
"473 1210 LINE SMOOTH",
"485 1194.67 OFFCURVE",
"497.167 1183.83 OFFCURVE",
"509.5 1177.5 CURVE SMOOTH",
"521.833 1171.17 OFFCURVE",
"538.667 1168 OFFCURVE",
"560 1168 CURVE SMOOTH",
"722 1168 LINE",
"625 1413 LINE SMOOTH",
"617 1432.33 OFFCURVE",
"606.5 1447.17 OFFCURVE",
"593.5 1457.5 CURVE SMOOTH",
"580.5 1467.83 OFFCURVE",
"559.667 1473 OFFCURVE",
"531 1473 CURVE SMOOTH"
);
}
);
width = 989;
}
);
leftKerningGroup = c;
rightKerningGroup = e;
unicode = 00E8;
},
{
glyphname = f;
layers = (
{
layerId = "421C8255-749A-4570-9FED-EBF43319311F";
name = "Bold Italic";
paths = (
{
closed = 1;
nodes = (
"496 823 LINE",
"693 823 LINE",
"721 1035 LINE",
"511 1035 LINE",
"517 1084 LINE SMOOTH",
"525 1152 OFFCURVE",
"544.167 1199.67 OFFCURVE",
"574.5 1227 CURVE SMOOTH",
"604.833 1254.33 OFFCURVE",
"645.667 1268 OFFCURVE",
"697 1268 CURVE SMOOTH",
"712.333 1268 OFFCURVE",
"727.667 1270.67 OFFCURVE",
"743 1276 CURVE SMOOTH",
"758.333 1281.33 OFFCURVE",
"767.667 1292.67 OFFCURVE",
"771 1310 CURVE SMOOTH",
"799 1466 LINE",
"779 1472.67 OFFCURVE",
"759.167 1477.5 OFFCURVE",
"739.5 1480.5 CURVE SMOOTH",
"719.833 1483.5 OFFCURVE",
"698.333 1485 OFFCURVE",
"675 1485 CURVE SMOOTH",
"615 1485 OFFCURVE",
"559.167 1475.67 OFFCURVE",
"507.5 1457 CURVE SMOOTH",
"455.833 1438.33 OFFCURVE",
"410.333 1412 OFFCURVE",
"371 1378 CURVE SMOOTH",
"331.667 1344 OFFCURVE",
"299.333 1303 OFFCURVE",
"274 1255 CURVE SMOOTH",
"248.667 1207 OFFCURVE",
"232.333 1153.33 OFFCURVE",
"225 1094 CURVE SMOOTH",
"218 1035 LINE",
"86.9999 1035 LINE",
"70.9999 913 LINE SMOOTH",
"67.6666 891 OFFCURVE",
"71.9999 874.333 OFFCURVE",
"83.9999 863 CURVE SMOOTH",
"95.9999 851.667 OFFCURVE",
"111.667 843.333 OFFCURVE",
"131 838 CURVE",
"192 824 LINE",
"62.9999 -246 LINE",
"189 -246 LINE SMOOTH",
"234.333 -246 OFFCURVE",
"269 -235 OFFCURVE",
"293 -214 CURVE SMOOTH",
"317 -192 OFFCURVE",
"335.667 -162 OFFCURVE",
"349 -124 CURVE",
"403 50 LINE"
);
}
);
width = 681;
}
);
leftKerningGroup = f;
rightKerningGroup = f;
unicode = 0066;
},
{
glyphname = g;
lastChange = "2014-08-21 00:10:06 -0500";
layers = (
{
layerId = "421C8255-749A-4570-9FED-EBF43319311F";
name = "Bold Italic";
paths = (
{
closed = 1;
nodes = (
"1020 1036 LINE",
"835 1036 LINE SMOOTH",
"798.333 1036 OFFCURVE",
"772 1019 OFFCURVE",
"756 985 CURVE",
"738 943 LINE",
"710.667 975.667 OFFCURVE",
"678.333 1002.17 OFFCURVE",
"641 1022.5 CURVE SMOOTH",
"603.667 1042.83 OFFCURVE",
"560 1053 OFFCURVE",
"510 1053 CURVE SMOOTH",
"466.667 1053 OFFCURVE",
"424.833 1045 OFFCURVE",
"384.5 1029 CURVE SMOOTH",
"344.167 1013 OFFCURVE",
"306.167 990.5 OFFCURVE",
"270.5 961.5 CURVE SMOOTH",
"234.833 932.5 OFFCURVE",
"202.333 897.833 OFFCURVE",
"173 857.5 CURVE SMOOTH",
"143.667 817.167 OFFCURVE",
"118.5 772.667 OFFCURVE",
"97.5001 724 CURVE SMOOTH",
"76.5001 675.333 OFFCURVE",
"60.1667 623.5 OFFCURVE",
"48.5001 568.5 CURVE SMOOTH",
"36.8334 513.5 OFFCURVE",
"31 456.667 OFFCURVE",
"31 398 CURVE SMOOTH",
"31 331.333 OFFCURVE",
"37.6667 274 OFFCURVE",
"51 226 CURVE SMOOTH",
"64.3334 178 OFFCURVE",
"83.1667 138.333 OFFCURVE",
"107.5 107 CURVE SMOOTH",
"131.833 75.6667 OFFCURVE",
"160.667 52.5 OFFCURVE",
"194 37.5 CURVE SMOOTH",
"227.333 22.5 OFFCURVE",
"264 15 OFFCURVE",
"304 15 CURVE SMOOTH",
"366.667 15 OFFCURVE",
"423.833 30.3333 OFFCURVE",
"475.5 61 CURVE SMOOTH",
"527.167 91.6667 OFFCURVE",
"574.667 134.667 OFFCURVE",
"618 190 CURVE",
"604 74 LINE SMOOTH",
"600.667 44.6667 OFFCURVE",
"592.833 16.5 OFFCURVE",
"580.5 -11 CURVE SMOOTH",
"568.167 -38 OFFCURVE",
"551.667 -61 OFFCURVE",
"531 -82 CURVE SMOOTH",
"510.333 -102 OFFCURVE",
"485.5 -118 OFFCURVE",
"456.5 -130 CURVE SMOOTH",
"427.5 -142 OFFCURVE",
"394.667 -148 OFFCURVE",
"358 -148 CURVE SMOOTH",
"326.667 -148 OFFCURVE",
"301 -145 OFFCURVE",
"281 -138 CURVE SMOOTH",
"261 -131 OFFCURVE",
"243.667 -123 OFFCURVE",
"229 -114 CURVE SMOOTH",
"214.333 -105 OFFCURVE",
"200.667 -98 OFFCURVE",
"188 -91 CURVE SMOOTH",
"175.333 -84 OFFCURVE",
"160.667 -80 OFFCURVE",
"144 -80 CURVE SMOOTH",
"125.333 -80 OFFCURVE",
"109.667 -83 OFFCURVE",
"97 -90 CURVE SMOOTH",
"84.3334 -97 OFFCURVE",
"73.3334 -107 OFFCURVE",
"64 -120 CURVE",
"-14 -222 LINE",
"2 -240 OFFCURVE",
"21.3334 -257 OFFCURVE",
"44 -273 CURVE SMOOTH",
"66.6667 -289 OFFCURVE",
"93 -303 OFFCURVE",
"123 -315 CURVE SMOOTH",
"153 -327 OFFCURVE",
"186.5 -337 OFFCURVE",
"223.5 -344 CURVE SMOOTH",
"260.5 -351 OFFCURVE",
"301.667 -354 OFFCURVE",
"347 -354 CURVE SMOOTH",
"428.333 -354 OFFCURVE",
"501.5 -343 OFFCURVE",
"566.5 -322 CURVE SMOOTH",
"631.5 -300 OFFCURVE",
"687.5 -269 OFFCURVE",
"734.5 -230 CURVE SMOOTH",
"781.5 -190 OFFCURVE",
"819.333 -143 OFFCURVE",
"848 -88 CURVE SMOOTH",
"876.667 -33 OFFCURVE",
"895 28 OFFCURVE",
"903 94 CURVE SMOOTH"
);
},
{
closed = 1;
nodes = (
"400.667 250 OFFCURVE",
"379 264.5 OFFCURVE",
"363 293.5 CURVE SMOOTH",
"347 322.5 OFFCURVE",
"339 367.667 OFFCURVE",
"339 429 CURVE SMOOTH",
"339 479 OFFCURVE",
"344 528.167 OFFCURVE",
"354 576.5 CURVE SMOOTH",
"364 624.833 OFFCURVE",
"378.333 668.167 OFFCURVE",
"397 706.5 CURVE SMOOTH",
"415.667 744.833 OFFCURVE",
"438.667 775.833 OFFCURVE",
"466 799.5 CURVE SMOOTH",
"493.333 823.167 OFFCURVE",
"524.333 835 OFFCURVE",
"559 835 CURVE SMOOTH",
"580.333 835 OFFCURVE",
"602.667 830.167 OFFCURVE",
"626 820.5 CURVE SMOOTH",
"649.333 810.833 OFFCURVE",
"670.667 796.333 OFFCURVE",
"690 777 CURVE",
"665 575 LINE",
"653.667 526.333 OFFCURVE",
"639.5 482 OFFCURVE",
"622.5 442 CURVE SMOOTH",
"605.5 402 OFFCURVE",
"586.5 367.833 OFFCURVE",
"565.5 339.5 CURVE SMOOTH",
"544.5 311.167 OFFCURVE",
"522.333 289.167 OFFCURVE",
"499 273.5 CURVE SMOOTH",
"475.667 257.833 OFFCURVE",
"452 250 OFFCURVE",
"428 250 CURVE SMOOTH"
);
}
);
width = 1065;
}
);
unicode = 0067;
},
{
glyphname = h;
layers = (
{
layerId = "421C8255-749A-4570-9FED-EBF43319311F";
name = "Bold Italic";
paths = (
{
closed = 1;
nodes = (
"23 0 LINE",
"333 0 LINE",
"400 550 LINE",
"412 589.333 OFFCURVE",
"427.167 625 OFFCURVE",
"445.5 657 CURVE SMOOTH",
"463.833 689 OFFCURVE",
"483.5 716.333 OFFCURVE",
"504.5 739 CURVE SMOOTH",
"525.5 761.667 OFFCURVE",
"547.333 779.167 OFFCURVE",
"570 791.5 CURVE SMOOTH",
"592.667 803.833 OFFCURVE",
"614.333 810 OFFCURVE",
"635 810 CURVE SMOOTH",
"650.333 810 OFFCURVE",
"663.333 807.5 OFFCURVE",
"674 802.5 CURVE SMOOTH",
"684.667 797.5 OFFCURVE",
"693 789 OFFCURVE",
"699 777 CURVE SMOOTH",
"705 765 OFFCURVE",
"708.667 749.333 OFFCURVE",
"710 730 CURVE SMOOTH",
"711.333 710.667 OFFCURVE",
"710.333 687 OFFCURVE",
"707 659 CURVE SMOOTH",
"629 0 LINE",
"939 0 LINE",
"1017 659 LINE SMOOTH",
"1025 722.333 OFFCURVE",
"1024 778.5 OFFCURVE",
"1014 827.5 CURVE SMOOTH",
"1004 876.5 OFFCURVE",
"987 917.667 OFFCURVE",
"963 951 CURVE SMOOTH",
"939 984.333 OFFCURVE",
"909.167 1009.67 OFFCURVE",
"873.5 1027 CURVE SMOOTH",
"837.833 1044.33 OFFCURVE",
"798.333 1053 OFFCURVE",
"755 1053 CURVE SMOOTH",
"699 1053 OFFCURVE",
"644.667 1040.67 OFFCURVE",
"592 1016 CURVE SMOOTH",
"539.333 991.333 OFFCURVE",
"489.333 953 OFFCURVE",
"442 901 CURVE",
"515 1497 LINE",
"205 1497 LINE"
);
}
);
width = 1103;
}
);
leftKerningGroup = b;
rightKerningGroup = h;
unicode = 0068;
},
